<svg xmlns="http://www.w3.org/2000/svg" enable-background="new 0 0 600 550" viewBox="0 0 600 550"><path fill="#b7b7e4" d="M189.333 106.58H411.66v258.219H189.333z"/><path fill="#e1e1fe" d="M180.731 98.727h222.327v258.219H180.731z"/><path fill="#b7b7e4" d="m411.66 106.58-8.602-7.853v21.592l8.603 11.078M180.731 356.946l8.602 7.853v-7.853M225.508 119.342h138.156v37.717H225.508z"/><path fill="#fc5f69" d="M223.262 115.849h138.156v37.717H223.262z"/><path fill="#fff" d="M246.411 140.543a4.15 4.15 0 0 1-1.8-1.365c-.456-.605-.695-1.34-.72-2.2 0-.11.037-.204.11-.283a.378.378 0 0 1 .291-.118h1.765c.279 0 .454.152.527.455.097.63.355 1.098.773 1.4s.95.455 1.592.455c.752 0 1.331-.245 1.738-.736s.61-1.18.61-2.065v-5.822h-6.169a.42.42 0 0 1-.309-.128.442.442 0 0 1-.127-.327v-1.292c0-.133.042-.239.127-.318a.439.439 0 0 1 .31-.118h8.35c.134 0 .24.042.319.127a.463.463 0 0 1 .118.327v7.623c0 1.007-.206 1.874-.619 2.602a4.087 4.087 0 0 1-1.755 1.665c-.758.382-1.646.573-2.665.573-.898 0-1.72-.152-2.466-.455zM257.682 139.742c-.922-.836-1.407-2.08-1.455-3.73a48.47 48.47 0 0 1-.018-1.545c0-.692.005-1.213.018-1.565.048-1.613.546-2.85 1.492-3.711.946-.862 2.225-1.292 3.838-1.292 1.601 0 2.878.43 3.83 1.292.952.861 1.452 2.098 1.501 3.711.024.704.036 1.225.036 1.565 0 .327-.012.843-.036 1.546-.049 1.65-.537 2.893-1.465 3.73s-2.216 1.255-3.866 1.255c-1.661 0-2.953-.419-3.875-1.256zm5.804-1.582c.473-.485.727-1.231.764-2.238.024-.728.036-1.22.036-1.474 0-.278-.012-.77-.036-1.473-.037-.995-.297-1.738-.782-2.23-.486-.49-1.122-.736-1.91-.736-.801 0-1.444.246-1.929.737-.485.491-.74 1.234-.764 2.229-.012.351-.018.843-.018 1.473 0 .62.006 1.11.018 1.474.024.995.276 1.737.755 2.229s1.125.736 1.937.736 1.456-.242 1.929-.727zM269.417 140.689a.42.42 0 0 1-.128-.31v-11.844c0-.133.04-.242.118-.327a.414.414 0 0 1 .32-.127h5.275c1.419 0 2.48.312 3.184.937s1.055 1.476 1.055 2.556c0 .63-.155 1.167-.464 1.61-.31.443-.67.761-1.083.955.51.23.94.607 1.292 1.128.352.522.528 1.116.528 1.783 0 1.128-.382 2.038-1.146 2.73s-1.832 1.036-3.202 1.036h-5.44a.421.421 0 0 1-.31-.127zm5.257-7.387c.619 0 1.095-.151 1.429-.455s.5-.71.5-1.219c0-.51-.164-.903-.491-1.182-.328-.28-.807-.418-1.438-.418h-2.82v3.274h2.82zm.183 5.567c.63 0 1.121-.172 1.473-.518.352-.346.527-.785.527-1.319s-.178-.974-.536-1.32-.846-.518-1.464-.518h-3.002v3.675h3.002zM284.408 140.707a.37.37 0 0 1-.11-.273l.037-.164 4.367-11.735c.12-.302.34-.454.655-.454h2c.316 0 .534.152.656.454l4.366 11.735.037.164c0 .11-.04.2-.119.273a.381.381 0 0 1-.264.11h-1.619a.527.527 0 0 1-.527-.347l-.837-2.201h-5.385l-.837 2.201a.528.528 0 0 1-.528.346h-1.62a.371.371 0 0 1-.272-.11zm3.893-4.549h4.112l-2.056-5.603-2.056 5.603zM298.216 140.689a.42.42 0 0 1-.127-.31v-11.862c0-.133.042-.239.127-.318a.44.44 0 0 1 .31-.118h1.71c.133 0 .24.04.318.118.079.08.118.185.118.318v10.116h5.768c.133 0 .242.043.327.127a.422.422 0 0 1 .128.31v1.31c0 .12-.043.224-.128.309s-.194.127-.327.127h-7.914a.421.421 0 0 1-.31-.127zM308.787 140.689a.42.42 0 0 1-.128-.31v-11.844c0-.133.04-.242.118-.327a.414.414 0 0 1 .32-.127h8.022c.134 0 .243.042.328.127a.445.445 0 0 1 .127.327v1.22c0 .133-.043.24-.127.318a.462.462 0 0 1-.328.118h-5.967v3.184h5.567c.133 0 .242.043.327.127a.444.444 0 0 1 .128.328v1.146c0 .134-.043.24-.128.318a.462.462 0 0 1-.327.119h-5.567v3.293h6.113c.133 0 .242.04.327.118.085.08.128.185.128.318v1.238c0 .133-.043.239-.128.318a.464.464 0 0 1-.327.118h-8.169a.421.421 0 0 1-.31-.127zM320.12 140.689a.42.42 0 0 1-.127-.31v-11.844c0-.133.04-.242.118-.327a.414.414 0 0 1 .32-.127h4.711c1.492 0 2.66.346 3.502 1.037.843.691 1.265 1.674 1.265 2.947 0 .885-.213 1.628-.637 2.229-.425.6-1.019 1.034-1.783 1.3l2.638 4.64a.45.45 0 0 1 .055.2c0 .11-.04.2-.118.273a.381.381 0 0 1-.265.11h-1.673c-.194 0-.346-.046-.455-.138a1.307 1.307 0 0 1-.291-.354l-2.329-4.312h-2.492v4.367c0 .12-.043.224-.128.309s-.194.127-.327.127h-1.674a.421.421 0 0 1-.31-.127zm4.967-6.75c.728 0 1.274-.16 1.638-.482.364-.322.546-.792.546-1.41 0-.619-.182-1.095-.546-1.428-.364-.334-.91-.5-1.638-.5h-2.528v3.82h2.528zM335.04 140.689a.42.42 0 0 1-.128-.31v-10.024h-3.366a.418.418 0 0 1-.31-.128.442.442 0 0 1-.127-.327v-1.365a.46.46 0 0 1 .119-.327.413.413 0 0 1 .318-.127h9.297c.133 0 .243.042.327.127a.445.445 0 0 1 .128.327v1.365a.444.444 0 0 1-.128.327.442.442 0 0 1-.327.128h-3.348v10.025c0 .12-.04.224-.118.309a.414.414 0 0 1-.318.127h-1.71a.421.421 0 0 1-.31-.127z"/><path fill="#ffcf30" d="M374.563 169.807v20.57h-164.32v-20.58h164.31c.01 0 .01 0 .01.01z"/><path fill="#cbcbf4" d="M196.566 204.415H388.24v5.389H196.566zM196.566 219.81H388.24v5.389H196.566zM196.566 235.204H388.24v5.389H196.566zM196.566 250.599H388.24v5.389H196.566zM273.31 265.994h14.558v5.39H273.31zM196.566 265.994h51.448v5.39h-51.448zM233.239 332.956h120.199v4.1H233.239zM233.239 323.272h151.358v4.099H233.239z"/><path fill="#55b1f4" d="M196.566 284.87h26.106v24.376h-26.106z"/><path fill="#cbcbf4" d="M233.239 299.85h120.199v4.1H233.239zM233.239 290.166h151.358v4.099H233.239z"/><path fill="#ee2a33" d="M196.566 317.976h26.106v24.376h-26.106z"/><path fill="#1b152b" d="M495.666 425.034s2.189 2.653 1.942 7.763-1.484 13.6-1.484 13.6l-5.275 1.154-.577-5.028s-4.533 7.83-14.012 8.902c-9.478 1.071-20.193 1.566-20.028-2.39s12.775-8.985 12.775-8.985l26.659-15.016zM516.839 140.425c.736 8.857 14.596 46.276 13.547 51.56-.636 3.204-4.068 5.084-7.292 5.614-7.395 1.215-15.354-2.832-18.729-9.524-.723-1.433-1.307-3.037-2.588-4.005-1.223-.924-2.911-1.082-4.385-.663-4.087 1.161-6.466 6.02-9.032 9.225-6.461 8.065-13.045 3.584-12.838-.284.123-2.294-7.786-57.41-5.212-61.132 3.098-4.483 11.56 30.934 14.049 26.085 1.175-2.29 1.439-5.27 3.577-6.703 1.954-1.311 4.57-.69 6.81.03 2.24.721 4.776 1.477 6.849.362 3.036-1.633 3.12-6.143 5.689-8.442 2.087-1.868 5.7-1.635 7.53.485"/><path fill="#feabb5" d="m497.813 329.32-.496 22.214-1.647 73.5s-7.382 10.974-13.365 14.556c-5.983 3.592-13.295.456-13.295.456s10.299-13.215 11.896-16.212c1.072-1.994-2.828-40.69-5.536-66.158-1.33-12.65-2.381-22.037-2.381-22.037l24.824-6.32z"/><path fill="#1b152b" d="M530.413 425.034s2.19 2.653 1.942 7.763c-.247 5.11-1.484 13.6-1.484 13.6l-5.275 1.154-.577-5.028s-4.533 7.83-14.011 8.902c-9.479 1.071-20.194 1.566-20.03-2.39.166-3.957 12.776-8.985 12.776-8.985l26.659-15.016z"/><path fill="#feabb5" d="m532.559 329.32-.546 24.387-1.597 71.328s-7.382 10.973-13.365 14.555c-5.983 3.592-13.295.456-13.295.456s10.299-13.215 11.896-16.212c1.171-2.193-3.631-48.537-6.27-73.143-.973-8.97-1.647-15.052-1.647-15.052l24.824-6.32z"/><path fill="#e48a9a" d="m472.989 335.64 24.824-6.32-.496 22.214c-7.55 1.062-14.952 3.116-21.947 6.142-1.33-12.65-2.381-22.037-2.381-22.037zM532.559 329.32l-.546 24.387a85.03 85.03 0 0 0-22.631-3.016c-.973-8.97-1.647-15.052-1.647-15.052l24.824-6.32z"/><path fill="#ffcf30" d="M491.583 213.037c-19.717 14.586-18.943 14.233-20.31 14.89-3.42 1.68-7.59 1.18-9.911-2.442l-26.01-23.06 7.442-12.64 21.819 17.322c5.7-7.46 13.42-17.88 15.16-19.58l11.81 25.51z"/><path fill="#ffa719" d="M483.453 219.077c-10.801 7.966-10.821 8.197-12.18 8.85-.03-.41-.05-.82-.07-1.23-.22-4.75-.42-9.66 1.29-14.09 1.29-3.361 3.463-5.916 3.731-11.223.063-1.24 1.614-1.743 2.369-.757 1.73 4.67 3.12 9.47 4.15 14.34.29 1.36.54 2.73.71 4.11z"/><path fill="#ffcf30" d="M523.954 250.26H479.39c1.723-5.472-2.399-24.92-4.914-30.119a4.93 4.93 0 0 0-.266-.522c-2.518-4.454 2.078-13.186 2.078-13.186l.359-11.979a9.886 9.886 0 0 1 5.753-8.691c1.126-.523 2.191-.983 2.96-1.331 7.296-3.335 14.985-4.185 22.522-2.509a36.072 36.072 0 0 1 7.208 2.376c4.258 1.924 7.811 4.504 10.35 7.176 1.817 1.946-1.48 58.68-1.485 58.786z"/><path fill="#ffa719" d="M525.214 225.301c-.75 16.872-1.067 21.198-1.26 24.96h-8.896c1.351-7.249 1.136-14.804-.747-21.94l1.77-.051c2.448-2.232 5.857-3.266 9.133-2.969z"/><path fill="#1b152b" d="M479.389 250.263s-9.258 20.13-9.918 36.945c-.659 16.814 2.453 51.212 2.638 51.866.258.913 54.118 5.987 55.059 3.461v-9.23l3.956 9.23h3.297s-2.009-55.693-3.076-67.197c-1.064-11.464-7.392-25.075-7.392-25.075h-44.564z"/><path fill="#e5415c" d="m511.181 236.583-24.993 28.801 38.323 36.894 25.588-28.563z"/><path fill="#feabb5" d="M505.395 161.41s-10.522 16.127-24.157 13.898c-9.99-1.629-10.8-25.603-7.994-39.881 1.03-5.21 2.535-9.134 4.252-10.208 6.416-4.012 25.312 0 25.312 0l4.545 9.806-2.141 15.418s6.043-4.428 7.49.445c2.14 7.22-7.307 10.522-7.307 10.522z"/><path fill="#feabb5" d="M515.089 184.305c-3.304 4.634-12.946 16.904-21.566 16.048-8.606-.862-8.506-11.829-8.158-15.921 3.585-1.64 5.83-2.07 7.062-2.42-.228-2.883-1.121-12.556-2.327-15.18-1.385-3.023 14.196-8.647 14.196-8.647s.08 20.389 3.584 23.732a36.63 36.63 0 0 1 7.209 2.388z"/><path fill="#1b152b" d="M518.904 156.488c-2.733 5.297-13.51 4.922-13.51 4.922s9.449-3.302 7.308-10.522c-1.447-4.873-7.49-.445-7.49-.445s-.344 2.71-1.578 2.44c-1.235-.263-1.41-14.197-1.41-14.197s-15.509.888-16.473-4.994c-.965-5.875-10.273 5.77-14.438 4.35-2.829-.965-3.058-8.199-.152-12.206 3.958-5.457 22.534-13.145 35.592-4.143 13.05 8.995 14.884 29.504 12.151 34.795z"/><path fill="#feabb5" d="M515.487 269.43s-6.396.866-8.963 2.939c-2.566 2.073-13.521 8.29-10.66 9.771 2.863 1.48 8.884-.79 8.884-.79s-9.475 7.304-4.244 11.746 10.321 4.157 12.93 2.171c3.969-3.022 10.535-16.948 10.535-16.948l-8.482-8.888z"/><path fill="#1b152b" d="M496.108 147.895c0 1.609-.875 2.915-1.944 2.915-1.08 0-1.944-1.306-1.944-2.915 0-1.61.864-2.916 1.944-2.916 1.07 0 1.944 1.306 1.944 2.916zM479.882 147.895c0 1.609-.875 2.915-1.944 2.915-1.08 0-1.944-1.306-1.944-2.915 0-1.61.864-2.916 1.944-2.916 1.07 0 1.944 1.306 1.944 2.916z"/><path fill="#222130" d="M490.82 142.614c2.003-2.1 5.937-1.886 7.567.566-2.474-1.158-4.887-1.286-7.567-.566zM473.602 142.843c1.637-2.397 5.554-2.822 7.56-.666-2.63-.743-5.032-.478-7.56.666z"/><path fill="#e48a9a" d="M484.504 146.373c-.23 2.362-.757 4.643-1.351 6.906-.62 1.767-.46 3.294 1.558 3.07.543-.064 1.09-.292 1.652-.484-.452.383-.937.738-1.534.96-1.41.565-3.01-.373-2.95-1.958.351-2.983 1.472-5.723 2.625-8.494z"/><path fill="#ae5053" d="M491.702 161.264c-.064.1-.424 6.102-6.264 6.63-1.9.163-3.218-.42-4.114-1.306-2.009-1.933-2.02-5.324-2.02-5.324h12.398z"/><path fill="#fff" d="M491.454 161.264c-1.015 1.166-2.765 2.268-5.746 2.451-3.412.217-5.172-1.08-6.069-2.451h11.815z"/><path fill="#e86060" d="M489.942 165.627c-2.144 2.562-6.416 3.136-8.618.961.691-.875 2.117-1.955 4.773-1.868 1.944.054 3.132.475 3.845.907z"/><path fill="#ffa719" d="M525.336 222.63c-.7 16.28-.506 9.554-.506 11.222-11.569-2.411-35.818-6.559-46.92-1.886-1.062-5.02-2.372-9.624-3.433-11.826.274 4.03 31.289.117 50.859 2.49z"/><path fill="#ffa719" d="M519.938 230.835c-.914-.614-.878-1.212-3.214-9.931-1.012-3.808-2.037-8.058.307-11.46 5.826 7.041 6.857 14.17 2.907 21.391z"/><path fill="#ffcf30" d="M525.433 191.486s28.384 41.737 26.026 57.29c-1.588 10.47-26.66 30.413-26.66 30.413l-9.765-10.233 19.647-23.775s-18.815-26.006-18.815-32.357c0-6.352 9.567-21.338 9.567-21.338z"/><path fill="#55b1f4" d="m442.326 157.848 11.052 1.378c6.785 1.624 5.586 12.508-1.127 12.123l-11.094-.595 1.169-12.906zM425.665 200.619l6.378 1.477c.873.196 1.76-.356 1.98-1.239l5.826-23.372 1.26-5.327a1.643 1.643 0 0 0-1.229-1.955l-6.378-1.477c-.908-.213-1.82.35-2.016 1.222l-1.573 6.586-5.538 22.122c-.196.874.357 1.76 1.29 1.963z"/><path fill="#1b152b" d="m428.81 153.033 17.771 2.45c8.382 2.357 5.451 18.499-2.624 18.113l-16.609-1.747 1.463-18.816z"/><path fill="#55b1f4" d="M392.139 185.167c6.778-2.77 20.87-11.457 35.181-13.305 1.874-.815 3.449-3.529 4.258-6.719 1.231-4.825.718-10.823-2.996-12.887.049.005-14.567-13.404-28.151-29.065 2.285 5.448 1.62 16.68.141 30.378-.659 6.032-1.663 11.662-2.883 16.516-1.754 7.088-3.326 12.526-5.55 15.082z"/><ellipse cx="395.349" cy="153.858" fill="#4d475b" rx="31.571" ry="8.398" transform="rotate(-83.05 395.35 153.858)"/><path fill="#1b152b" d="M402.445 145.492c-.11 2.93-.36 6.01-.74 9.14-.4 3.28-.9 6.3-1.48 9.05-2.62 12.71-6.63 19.53-8.42 19.53h-.03c-1.9-.23-5.14-10.76-2.78-30.13 2.26-18.49 7.72-28.58 9.9-28.58.66.08 2.23 2.18 3.07 8.19.51 3.68.67 8.05.48 12.8z"/><path fill="#55b1f4" d="M402.445 145.492c-.11 2.93-.36 6.01-.74 9.14-.4 3.28-.9 6.3-1.48 9.05-3.84-1.14-6.65-4.7-6.65-8.91 0-4.99 3.94-9.06 8.87-9.28z"/><path fill="#feabb5" d="M442.266 190.681s-3.214-11.89-6.172-9.898c-2.958 1.992 1.09 7.396 1.09 7.396l-3.045 12.217 1.77 1.082M432.503 196.697c-.796 1.07-3.207 2.103-5.35 2.589a4.112 4.112 0 0 1-4.482-2c-1.188-2.105-2.757-5.345-2.868-7.94-.01-.23 0-.42.01-.59-.04-.95.03-1.899.23-2.8.89-4.01 6.66-4.61 8.65-3.2 1.99 1.4-.67 3.52-.67 3.52s4.22 1.39 3.5 3.061c-.64 1.48-1.86 1.49-2.16 1.48.53.15 4.58.85 3.37 2.44-.3.4-.83.82-1.5 1.22 1.03.54 1.95 1.32 1.27 2.22z"/><path fill="#1b152b" d="M142.366 447.221c.156 2.157-.062 3.805-.062 3.805h-30.277l-5.639-2.69-.842 2.27H93.098v-3.385h49.268z"/><path fill="#1b152b" d="M122.944 447.221c.156 2.157-.062 3.805-.062 3.805H92.605l-5.639-2.69-.842 2.27H73.676v-3.385h49.268z"/><path fill="#e1e1fe" d="M93.097 420.05v11.309s0 .036.015.093v.021c.188 1.014 1.7 8.425 6.715 7.89 1.185-.13 2.468-1.83 3.82-3.893 2.053-3.129 4.277-7.084 6.61-7.64.957-.228 2.1.177 3.274.92-.005-1.923-.02-3.269-.046-3.32l-20.388-5.38z"/><path fill="#ce5d09" d="M93.097 431.427v19.176h12.447l.842-2.265 5.638 2.686h30.278s1.351-10.175-5.046-13.039c-6.393-2.853-16.314-1.595-16.314-1.595s-3.856-5.332-7.41-7.577c-1.175-.739-2.318-1.149-3.275-.92-2.312.556-4.521 4.453-6.564 7.572-1.366 2.094-2.666 3.835-3.866 3.965-5.015.535-6.527-6.876-6.715-7.89v-.02c-.015-.057-.015-.093-.015-.093z"/><path fill="#e1e1fe" d="M73.676 420.114v11.313s0 .035.014.093v.021c.186 1.014 1.699 8.422 6.717 7.887 2.983-.321 6.559-10.606 10.428-11.534.956-.229 2.098.178 3.276.92-.008-1.92-.022-3.268-.05-3.318l-20.385-5.382z"/><path d="M93.097 426.848v4.511s0 .036.015.093v.021c.188 1.014 1.7 8.425 6.715 7.89 1.185-.13 2.468-1.83 3.82-3.893-1.092.078-1.746.16-1.746.16s-4.314-5.97-8.295-8.48c-.171-.11-.343-.208-.51-.302z" opacity=".1"/><path d="M93.112 431.52c-.015-.057-.015-.093-.015-.093v19.176h12.447l.842-2.265 5.638 2.686h13.882c.176-2.847.13-10.976-5.738-13.605-5.4-2.412-13.04-2.204-16.475-1.954-1.366 2.094-2.666 3.835-3.866 3.965-5.015.535-6.527-6.876-6.715-7.89v-.02z" opacity=".1"/><path fill="#ce5d09" d="M73.676 431.427v19.178h12.448l.842-2.27 5.639 2.691h30.277s1.349-10.178-5.046-13.04c-6.396-2.855-16.317-1.599-16.317-1.599s-3.854-5.331-7.408-7.573c-1.178-.742-2.32-1.149-3.276-.92-3.869.928-7.445 11.213-10.428 11.534-5.018.535-6.531-6.873-6.717-7.887v-.021c-.014-.058-.014-.093-.014-.093z"/><path fill="#04020f" d="M126.634 283.5 115.48 428.654l-27.157 1.176 1.671-154.375z"/><path fill="#1d1b37" d="M109.044 284.144 97.851 429.83H70.785l1.67-154.375z"/><path fill="#feabb5" d="m175.657 223.399 3.41-1.685c1.681-.832 5.358-11.05 9.083-11.936 1.986-.473.178 6.586.178 6.586s15.795-11.438 15.962-7.3c.168 4.14-13.503 10.813-13.503 10.813s10.834 12.514.635 14.927-18.044-1.006-18.044-1.006"/><path fill="#e1e1fe" d="m169.275 219.304 8.014-.89c1.629-.051 1.23 18.61-.399 18.66l-10.472 1.985"/><path fill="#55b1f4" d="M120.61 210.741s.223 3.862.935 9.074c1.325 9.74 4.34 21.72 10.727 24.495.629.27 2.034.766 4.017 1.055 8.38 1.225 34.866-7.282 34.866-7.282.43.689 2.376-19.174 2.338-20.077l-31.298 5.078-11.54-40.973-10.045 28.63z"/><path fill="#258bca" d="M121.545 219.815c1.325 9.74 4.34 21.72 10.727 24.495.629.27 2.058.634 4.017 1.055-2.032-4.5-2.406-7.293-2.697-12.308l-2.027-35.34-1.606 2.651c-4.017 5.857-6.455 12.577-8.414 19.447z"/><path fill="#55b1f4" d="m68.587 237.144-.207 50.562c1.569.008 59.255.443 59.477 0 .107-.207.556-22.94 1.013-47.578.55-29.278 5.24-53.681.971-59.677-16.038-22.547-56.122-11.962-59.52-2.227-4.874 13.933-1.734 58.92-1.734 58.92z"/><path fill="#258bca" d="M79.78 201.061c2.013 8.506-1.351 17.225-2.839 25.838-2.3 13.322 1.962 26.258 8.46 38.113 1.733 3.161 1.901 7.938.552 11.28-1.809 4.48-10.203 6.727-15.95-2.947-5.835-9.822-4.46-22.136-4.31-32.523.094-6.56-.224-13.242 1.548-19.56 1.798-6.414 5.773-12.196 11.118-16.171M109.474 287.899c.296.007.592.007.88.007l.27-68.434-.88-.022-.27 68.449z"/><path fill="#258bca" d="M83.747 194.048s8.786 22.897 26.63 26.666C93.19 197.367 93.454 163.52 93.454 163.52l-4.577 4.63s-5.911 10.298-4.052 18.91l4.896 1.463-5.974 5.524zM110.377 220.714c13.861-2.484 16.06-26.416 16.06-26.416l-4.597-5.11 2.99-1.235c.995-8.019-8.54-17.982-8.54-17.982l-4.95-5.915c6.403 19.107 7.623 38.036-.963 56.658z"/><path fill="#ff7545" d="M73.676 431.427s0 .035.014.093c-.007-.065-.014-.093-.014-.093zM91.216 431.427s0 .035.014.093c-.007-.065-.014-.093-.014-.093z"/><path fill="#e1e1fe" d="M93.492 165.434c.057 1.866.218 4.99.66 8.944.041.359.083.722.13 1.097 1.19 9.962 4.11 24.581 11.256 37.615a67.7 67.7 0 0 0 4.839 7.624 65.919 65.919 0 0 0 4.812-14.697c1.965-9.812 1.585-19.701-.483-29.648a106.367 106.367 0 0 0-2.178-8.554 116.09 116.09 0 0 0-1.19-3.758c-5.446 1.777-11.272.478-17.883-.535 0 0-.005.68.037 1.912z"/><path fill="#bcc4d8" d="M93.492 165.434c.057 1.866.218 4.99.66 8.944 3.378 2.62 10.103 6.865 10.425 6.262 0 0 .26-3.492.67-4.1.411-.608 1.46.255 1.887-.343.566-.78 1.491-1.455 2.427-1.237.883.208 1.403 1.091 1.819 1.897.39.759 1.361 3.373 1.361 3.373.172 0 1.076-2.952 1.653-5.301-.53-2.37-1.159-4.74-1.866-7.115a.798.798 0 0 0-.098-.041c-.946-.338-1.954-.458-2.957-.567l-13.658-1.543c-.775-.089-1.549-.177-2.323-.229z"/><path fill="#ce5d09" d="M51.578 332.944v31.19a2.862 2.862 0 0 0 2.862 2.863h62.39v-34.053H51.577z"/><path fill="#ffcf30" d="M70.27 308.698h3.568v-2.932a3.578 3.578 0 0 1 3.574-3.574H91.59a3.578 3.578 0 0 1 3.574 3.574v2.932h3.57v-2.932c0-3.938-3.205-7.143-7.144-7.143H77.412c-3.938 0-7.142 3.205-7.142 7.143v2.932z"/><path fill="#ff9f3e" d="M48.402 310.41v24.34c0 .949.771 1.712 1.72 1.712h67.007v-27.764H50.122c-.949 0-1.72.77-1.72 1.712z"/><path fill="#ea8124" d="M112.497 313.016v49.641a4.336 4.336 0 0 0 4.332 4.34 4.336 4.336 0 0 0 4.333-4.34v-49.641a4.335 4.335 0 0 0-4.333-4.333 4.338 4.338 0 0 0-4.332 4.333z"/><path fill="#04020f" d="M85.144 335.136v4.546a3.558 3.558 0 1 1-7.116 0v-4.546h7.116z"/><path fill="#feabb5" d="M74.647 293.701s-.608 10.883 2.318 11.579c2.791.67 2.64-7.582 2.625-8.352.078.749.94 8.731 2.858 8.97 1.954.245 2.037-1.772 2.043-1.891 0 .12.03 2 1.922 1.886 1.95-.125 2.313-2.235 2.313-2.235s1.221 2.48 3.415 1.258c2.193-1.221.852-10.118.79-13.834-.058-3.716-10.166-12.712-10.166-12.712l-9.848 3.118 1.73 12.213z"/><path fill="#e1e1fe" d="M68.593 279.503s1.749 6.652 2.827 8.933c.737 1.559 17.139-6.195 16.402-7.753 0 0-4.215-6.18-4.272-6.346l-14.957 5.166z"/><path fill="#55b1f4" d="M70.318 178.225s-19.842 39.556-18.463 54.878 15.737 49.949 15.737 49.949c1.148 2.555 18.905-6.385 17.756-8.94l-13.728-40.55s8.391-25.097 7.66-33.708c-.494-5.832-8.962-21.629-8.962-21.629z"/><path fill="#fc5f69" d="M103.366 176.883s.452 1.045 2.167 2.032c0 0 .005 20.45.005 34.175a67.7 67.7 0 0 0 4.839 7.624 65.919 65.919 0 0 0 4.812-14.697c-1.18-11.293-2.78-23.6-4.344-26.24 0 0 2.54-3.512 1.88-6.225-.654-2.708-2.733-3.758-2.733-3.758l-3.378.738-2.723 2.25-.525 4.101z"/><path fill="#feabb5" d="M93.318 150.44h15.384c-.999 4.79 1.304 11.047 2.65 13.656l-.103 3.593s-.93 2.245-2.8 2.504c-2.61.36-15.512-7.558-15.029-8.678l-.102-11.075z"/><path fill="#e1e1fe" d="M111.352 164.096s.733 2.708 1.619 4.723c.885 2.015-.033 10.197-.033 10.197-.648-3.823-2.875-7.266-4.9-8.824 0 0 2.95-1.826 3.314-6.096zM93.405 161.291s.126 1.575 0 2.365c-.27 1.685-1.556 11.327 10.845 15.924.488-3.712 2.124-7.558 3.788-9.388-6.531-1.843-11.13-5.381-14.633-8.9z"/><path fill="#1b152b" d="M129.948 114.994c.032.035.118.162.238.373 1.271 2.227 8.531 14.206-3.702 23.15-13.393 9.79-10.622-19.583-10.622-19.583l9.17-4.451 4.916.511z"/><path fill="#feabb5" d="M122.654 161.291c-9.183 6.148-26.208-9.622-26.208-9.622s-12.16-3.534-10.83-10.394c.016-.078.031-.156.052-.24 1.632-6.89 8.85-2.613 9.105-2.463l-5.057-15.045 2.822-15.84s25.356-8.456 33.708 1.231c7.586 8.77 8.147 44.516-3.592 52.373z"/><path fill="#1b152b" d="M132.149 109.756s7.684 3.585 3.642 9.477c-.948 1.382-6.119 1.702-9.133 2.079-9.808 1.199-27.073-1.69-29.14-.32-2.717 1.793-.639 7.399-1.107 10.516-.457 3.118-2.273 11.848-2.273 11.848-.8-3.574-3.711-4.248-3.711-4.248a4.516 4.516 0 0 0-.88-.08c-2.603 0-3.957 1.563-3.957 4.166s7.386 7.373 7.728 7.293c.468 3.345.145 8.079.145 8.079s-16.231-14.789-14.67-36.592c1.46-20.402 8.495-13.28 8.495-13.28 4.796-11.44 27.381-8.723 34.426-10.63 7.056-1.907 6.246 7.742 6.246 7.742s1.496-3.814 5.892-.754c4.384 3.06-1.703 4.704-1.703 4.704z"/><path fill="#1b152b" d="M106.322 136.416c.066 1.542.959 2.757 1.983 2.713 1.035-.045 1.808-1.333 1.742-2.874-.067-1.542-.95-2.758-1.984-2.713-1.024.044-1.808 1.332-1.741 2.874zM121.867 135.743c.067 1.542.96 2.757 1.984 2.713 1.034-.045 1.808-1.333 1.741-2.874-.067-1.542-.949-2.758-1.983-2.713-1.025.044-1.809 1.332-1.742 2.874z"/><path fill="#222130" d="M111.17 131.138c-2.61-.55-4.89-.33-7.227.856 1.439-2.442 5.235-2.815 7.226-.856zM127.674 130.643c-2.485-.965-4.771-1.117-7.27-.325 1.816-2.176 5.622-1.93 7.27.325z"/><path fill="#e48a9a" d="M117.376 134.477c1.24 2.603 2.429 5.18 2.887 8.028.122 1.524-1.384 2.502-2.767 2.01-.582-.192-1.06-.515-1.507-.867.548.157 1.083.35 1.605.385 1.91.133 2.012-1.339 1.344-2.99-.663-2.143-1.258-4.308-1.562-6.566z"/><path fill="#ae5053" d="M111.098 149.042c.07.1.655 5.829 6.276 6.093 1.827.076 3.065-.537 3.887-1.422 1.844-1.936 1.714-5.185 1.714-5.185l-11.877.514z"/><path fill="#fff" d="M111.336 149.032c1.02 1.075 2.742 2.058 5.606 2.11 3.278.066 4.91-1.25 5.712-2.6l-11.318.49z"/><path fill="#e86060" d="M112.965 153.149c.947 1.037 2.342 1.889 4.409 1.986 1.827.076 3.065-.537 3.887-1.422-.698-.81-2.109-1.785-4.65-1.592-1.86.132-2.98.585-3.646 1.028z"/></svg>