<svg xmlns="http://www.w3.org/2000/svg" viewBox="0 0 1000 1000"><defs><clipPath id="f8899152-7274-46c5-967b-147240c8244f"><polygon fill="none" points="364.344 254.553 418.41 248.349 418.41 279.894 364.344 286.098 364.344 254.553"/></clipPath><clipPath id="a712cda2-88e9-47d3-af0d-5072853c5646"><polygon fill="none" points="364.343 292.261 418.411 286.057 418.411 317.596 364.343 323.8 364.343 292.261"/></clipPath><clipPath id="bea49bf1-dc28-441b-be5f-ad013cb3284f"><polygon fill="none" points="364.344 216.851 418.411 210.647 418.411 242.184 364.344 248.388 364.344 216.851"/></clipPath></defs><g style="isolation:isolate"><g id="ac7caffa-812a-43b5-9123-39727d3fac23" data-name="Layer 55"><path fill="#98c0da" d="M185.89607,682.90237c-21.9745,15.2148-44.9818,36.9902-38.9406,60.595,3.4235,13.377,15.6658,23.4043,28.4335,31.109,25.5692,15.4298,55.3418,24.8877,85.6561,31.2939,64.2177,13.5708,131.2971,13.98,197.6915,14.3196,83.4887.4271,167.0433.8528,250.5256-3.3349,50.997-2.558,110.5144-11.5405,135.2167-51.3744,22.746-36.6791,2.2475-84.1295-34.1728-109.478s-84.4186-33.6332-130.7278-39.6194c-110.8244-14.3258-221.6234-22.5085-332.0863,3.9472C291.48667,633.77367,232.08647,650.92047,185.89607,682.90237Z"/><path fill="#45465a" d="M663.59467,372.04067l-426.4866,59.5324a1.97268,1.97268,0,0,0-.7255,3.6552l52.4077,30.7483,457.468-70.2047Z"/><line x1="291.779" x2="294.597" y1="457.081" y2="685.411" fill="none" stroke="#45465a" stroke-miterlimit="10" stroke-width="11.533"/><line x1="245.793" x2="247.672" y1="435.387" y2="660.481" fill="none" stroke="#45465a" stroke-miterlimit="10" stroke-width="11.533"/><polygon fill="#dadada" points="500.277 399.643 430.492 408.006 441.498 342.051 489.272 336.326 500.277 399.643"/><polygon fill="#929497" points="489.271 336.326 441.498 342.051 437.55 365.709 493.219 359.037 489.271 336.326"/><path fill="#fff" d="M577.61857,341.47017l-227.7564,27.2947c-5.3785.6446-9.7385-3.4744-9.7385-9.2V211.05837c0-4.7426,3.6115-9.02,8.0665-9.5539l231.1004-21.9289c4.4549-.5338,8.0664,2.878,8.0664,7.6205v142.74C587.357,335.66167,582.997,340.82567,577.61857,341.47017Z"/><path fill="#262728" d="M349.86107,366.54847c-4.2239.5061-7.656-2.7362-7.656-7.2328V210.80807a7.1742,7.1742,0,0,1,5.9866-7.0866l231.0996-21.9288a5.37738,5.37738,0,0,1,5.9829,5.6522v142.741c0,4.4966-3.4321,8.5616-7.656,9.0677Z"/><polygon fill="#45465a" points="350.56 209.027 578.906 186.145 578.906 315.494 349.626 343.979 350.56 209.027"/><polygon fill="#98c0da" points="350.56 209.027 349.627 343.979 430.21 333.968 430.21 201.045 350.56 209.027"/><polygon fill="#697596" points="571.738 191.083 449.323 203.35 449.323 319.125 571.738 303.916 571.738 191.083"/><polygon fill="#98c0da" points="449.323 300.916 449.323 319.125 571.738 303.916 571.738 284.714 449.323 300.916"/><path fill="#fff" d="M577.61857,341.47017l-227.7564,27.2947c-5.3785.6446-9.7385-3.4744-9.7385-9.2v-21.0966l247.2333-29.6288v21.0966C587.357,335.66167,582.997,340.82567,577.61857,341.47017Z"/><polygon fill="#bbbdbf" points="389.316 434.738 366.887 426.336 555.047 399.67 577.582 405.162 389.316 434.738"/><path fill="#313248" d="M590.46487,698.93447c-4.503.8186-12.6346,2.4797-14.5172,7.334-1.186,3.0582.4882,6.6325,3.076,8.6482s5.8893,2.8235,9.0866,3.5554a321.89505,321.89505,0,0,0,38.8961,6.8242c6.053.6207,30.9869,4.3003,25.2357-9.7157-1.0999-2.6808-3.3433-4.7127-5.6457-6.472C631.02567,697.21117,609.68087,695.44137,590.46487,698.93447Z"/><path fill="#313248" d="M492.56787,723.75707c-3.0238-.2067-6.4533-.2715-8.6047,1.8634a6.93019,6.93019,0,0,0-1.3979,6.8023,14.68334,14.68334,0,0,0,3.9776,6.0195c9.8102,9.8084,24.4381,12.7853,38.2466,14.1142q11.0133,1.0599,22.0925,1.1163c2.3095.0116,4.812-.0743,6.6176-1.5141,2.2656-1.8066,2.6233-5.2768,1.5233-7.9576s-3.3433-4.7127-5.6457-6.4719C532.91267,725.14887,512.31317,725.10677,492.56787,723.75707Z"/><path fill="#537864" d="M612.91487,709.61137a45.19622,45.19622,0,0,0,15.1436,5.5573c7.0468,1.3806,14.2748,1.5218,21.4551,1.4427,2.064-.0227,4.3561-.1566,5.7993-1.6323a5.30966,5.30966,0,0,0,1.5289-4.3964c-9.2318-56.1357-11.208-98.4661-10.9169-116.3746.0487-2.9949.0167-6.2472-2.1052-8.6163-2.9543-3.2986-8.5482-3.4712-13.3739-3.317-36.7504,1.1734-41.2778,15.0658-40.6912,43.9403a194.56477,194.56477,0,0,0,7.1485,48.2894,199.22876,199.22876,0,0,0,8.3196,23.8383c2.0115,4.7708,2.9729,8.2609,7.4205,11.0974Q612.77862,709.52642,612.91487,709.61137Z"/><path fill="#537864" d="M516.09507,547.38947c-6.8724,1.0254-13.9236,2.1108-19.9629,5.5472-18.4957,10.5241-19.2039,36.5811-16.5425,57.6942a663.207,663.207,0,0,0,23.2665,109.2784c1.5402,5.084,3.212,10.2838,6.5604,14.408,6.1925,7.6273,16.1682,9.4224,25.4918,9.0372,5.7277-.2367,16.6904.0437,18.4161-7.1178,1.1967-4.9659-1.816-12.6569-2.5834-17.6279q-1.69335-10.9689-3.0454-21.987a714.77031,714.77031,0,0,1-5.3215-88.5752q30.8439,1.06065,61.6879,2.1212c39.7612,1.3673,86.9715,3.5446,120.2125-22.3004a29.758,29.758,0,0,0,6.7814-6.8226,27.2275,27.2275,0,0,0,3.7476-10.5616c2.2987-13.5478-1.037-28.4848-10.7818-38.1732-11.5903-11.5232-24.2863-8.2319-38.6656-7.6656-18.1175.7137-35.833.2013-53.9918,2.4868C592.62537,532.00717,554.69027,541.63087,516.09507,547.38947Z"/><path fill="#dd9d72" d="M617.926,280.42667c-1.8168,1.6526-3.9988,3.5622-5.6768,5.3555a2.36155,2.36155,0,0,0-.6897,1.2047c-.1486.9825.7344,1.7912,1.5548,2.3516a28.98114,28.98114,0,0,0,8.481,3.9588,1.74863,1.74863,0,0,0,1.0604.0643c.5439-.1985.756-.8415.8926-1.4042a90.61044,90.61044,0,0,0,2.4463-16.9082C626.272,269.42017,618.83007,279.60427,617.926,280.42667Z"/><path fill="none" stroke="#45465a" stroke-miterlimit="10" stroke-width="1.348" d="M626.34147,271.10447a7.61005,7.61005,0,0,0-3.1164-3.4055,4.4579,4.4579,0,0,0-4.4137.5225c-2.4353,1.8089-2.5336,7.0722-2.5289,9.855a8.40881,8.40881,0,0,0,1.5455,5.1168,5.206,5.206,0,0,0,4.7408,2.1037"/><path fill="#dd9d72" d="M623.78867,259.68057c-.9715,8.5986-3.4579,16.912-5.1936,25.3665-1.7154,8.3556-1.7264,16.4929-1.2522,24.9343a21.15163,21.15163,0,0,0,1.4316,7.4813c2.9039,6.5105,10.8442,8.9398,17.9275,9.7429a5.53474,5.53474,0,0,1,3.2692,1.0798,5.14424,5.14424,0,0,1,1.2163,2.4398,68.51208,68.51208,0,0,1,2.5856,18.8649c12.63.1136,29.6496-.3642,40.2477-7.93a2.07605,2.07605,0,0,0,.8082-.8539,2.14611,2.14611,0,0,0-.0527-1.2674c-1.2613-5.2283-1.2175-10.671-1.1667-16.049l.1197-12.682c.0352-3.7318,2.4443-5.9284,4.1857-9.024,5.1672-9.1854,8.2528-19.6546,7.861-30.2489a36.73707,36.73707,0,0,0-3.3621-14.6707C679.95707,231.15067,627.68467,225.20007,623.78867,259.68057Z"/><line x1="616.281" x2="646.669" y1="275.14" y2="284.404" fill="none" stroke="#45465a" stroke-miterlimit="10" stroke-width="1.348"/><path fill="#fff" d="M646.866,273.89227a11.357,11.357,0,0,1,.8523,1.9895,14.04131,14.04131,0,0,1,.1075,6.8213,27.6953,27.6953,0,0,1-10.1545,16.3678c-2.2916,1.7853-4.7631,3.3713-7.6868,3.674-4.0373.4181-5.1259-1.6345-7.8607-4.0805-1.5275-1.3661-4.3092-1.9652-5.366-.2095a4.46535,4.46535,0,0,0-.4087,2.3688,22.19814,22.19814,0,0,1-6.3081,15.1468,12.86905,12.86905,0,0,0-2.5556,3.0653c-2.8564,5.8389,5.1529,12.4569,9.8652,14.0654,8.0958,2.7635,17.6132,5.0672,26.1111,3.0258,4.1223-.9903,7.9115-3.0068,11.845-4.5882,6.7904-2.7301,14.0246-4.1665,20.9701-6.4735s13.8263-5.6616,18.4682-11.3199c5.6224-6.8534,7.2648-16.0238,8.5833-24.5396,1.0701-6.9108,2.986-16.3402,1.2737-23.0675a42.51107,42.51107,0,0,0-3.7497-8.8621c-4.202-8.1419-8.7663-16.6368-16.4821-21.5779-9.1414-5.8541-20.4665-5.5421-30.6986-7.9829-9.3516-2.2307-19.5243-5.1484-29.1625-2.8345a21.08842,21.08842,0,0,0-7.5155,3.1173,9.93145,9.93145,0,0,0-4.2582,6.7161,14.37555,14.37555,0,0,0,1.3597,6.6913c3.0328,7.7423,8.8507,8.8638,15.2601,12.8847,6.392,4.01,10.9663,10.2942,15.3338,16.3017A29.34372,29.34372,0,0,1,646.866,273.89227Z"/><path fill="#697596" d="M642.52407,276.42787a21.14383,21.14383,0,0,0-8.3599,17.6162c.2333,5.1174,2.7557,10.4415,7.4009,12.6013,2.7853,1.2949,6.6893,3.4005,9.6664,2.6443,7.9655-2.0235,13.1602-11.5322,14.9272-19.5584.6475-2.9417,3.6355-5.3113,2.784-8.2004C665.75377,270.71177,650.201,270.72327,642.52407,276.42787Z"/><path fill="#45465a" d="M646.44107,278.30117a21.14359,21.14359,0,0,0-8.36,17.6161c.2333,5.1175,2.7557,10.4416,7.4008,12.6013a13.60018,13.60018,0,0,0,9.0176.5695c7.9655-2.0234,13.8091-9.4573,15.5761-17.4836a18.04968,18.04968,0,0,0-.0316-8.9401C666.85517,271.84537,654.11787,272.59647,646.44107,278.30117Z"/><path fill="none" stroke="#697596" stroke-linecap="round" stroke-linejoin="round" stroke-width="2.883" d="M643.60007,288.29017a17.47814,17.47814,0,0,0-1.0539,9.0785"/><path fill="#45465a" d="M647.24337,280.112c-1.5014-15.6476.8372-32.2434,9.8842-45.0986,1.5434-2.1933,3.4508-4.3796,6.0526-5.0302a12.84812,12.84812,0,0,1,5.9949.4345q4.8219,1.1319,9.644,2.2639c-7.3609,4.1303-12.6206,11.3669-15.7264,19.2152-3.106,7.8483-4.2403,16.3299-4.9007,24.7445-.069.8782.0641,2.0393.9258,2.2219Z"/><path fill="none" stroke="#45465a" stroke-miterlimit="10" stroke-width="1.442" d="M647.36737,305.438c-4.8636,2.9865-9.0168,7.5089-10.4425,13.0354-1.4895,5.7742.0653,12.1502-2.1842,17.6729-1.7195,4.2217-5.5248,7.5324-6.3749,12.0108-.8839,4.6562,1.6549,9.2053,4.0978,13.2666"/><path fill="#e2724b" d="M630.67557,346.44127c-5.4173,1.6731-11.0262,3.6045-14.9602,7.6873-5.7474,5.9649-6.584,15.0606-6.2251,23.3361.8445,19.4711,6.4876,38.4414,8.1415,57.8647,2.6057,30.6135-7.7946,62.0852-3.6764,92.3518,1.9612,14.4148,6.8183,13.0619,20.5375,18.0974a330.5337,330.5337,0,0,0,45.4883,13.2554c11.982,2.5345,24.1794,4.3761,36.4248,4.1673,11.2418-.1918,23.888-3.047,29.6477-12.703,3.7697-6.3197,3.6858-14.1198,3.631-21.4782-.2302-30.8999,4.4376-61.4915,4.3567-92.3193-.0629-20.3993-1.5844-41.1683-8.9926-60.175-6.7103-17.216-21.6309-38.6094-40.5726-43.9997-9.9609-2.8347-24.4588,2.0106-34.4502,3.9836A388.23126,388.23126,0,0,0,630.67557,346.44127Z"/><path fill="#c65823" d="M627.37567,541.25977a46.23335,46.23335,0,0,1-3.9265-6.8544,42.71518,42.71518,0,0,1-3.6323-13.2542c-1.0601-9.6962.8292-19.368,2.1976-28.931a108.35592,108.35592,0,0,0,.0564-30.0378,87.34455,87.34455,0,0,0-4.042-17.0875c.1408,27.5096-7.7546,55.5287-4.073,82.5862,1.6923,12.4415,5.5569,13.1425,15.4007,16.3374C628.67377,543.11737,628.01917,542.195,627.37567,541.25977Z"/><path fill="#45465a" d="M649.54217,490.77577c-4.028,22.8499-4.3946,50.1968,13.6228,64.8157,7.5249,6.1055,17.202,8.9002,26.7651,10.4647,34.2783,5.608,73.747-5.664,91.2486-35.6665,9.3128-15.9648,11.4012-35.0095,12.8234-53.4373,2.5242-32.7049,3.1352-67.5094-13.1299-95.995-12.2403-21.4367-37.5198-38.0573-61.1703-30.9855-24.3198,7.2721-32.8832,28.9301-42.2614,49.8989A387.87471,387.87471,0,0,0,649.54217,490.77577Z"/><line x1="717.268" x2="717.268" y1="538.136" y2="715.292" fill="none" stroke="#45465a" stroke-miterlimit="10" stroke-width="14.417"/><path fill="none" stroke="#697596" stroke-miterlimit="10" stroke-width="10.533" d="M628.69437,743.991a168.09742,168.09742,0,0,1,172.9634-.6245"/><path fill="#45465a" d="M607.66317,585.47677c-10.0202-.0156-20.1771-.0129-29.8491,2.7807s-18.967,8.756-23.9371,18.1378c-1.2962,2.4468-2.2824,5.4628-1.208,8.0406,1.4222,3.4121,5.5075,4.1865,8.9565,4.4863a1328.03131,1328.03131,0,0,0,153.9885,4.4227c6.5139-.1912,13.2037-.4713,19.1822-3.2512,11.1603-5.1892,15.8077-20.1403,5.8777-29.8692-8.1184-7.9542-22.97-4.5759-33.0232-4.5914Q657.65792,585.55627,607.66317,585.47677Z"/><path fill="none" stroke="#697596" stroke-miterlimit="10" stroke-width="10.533" d="M725.25417,717.69667c-11.106,2.9903-20.6011,10.4336-27.9817,19.2548s-12.8772,19.0321-18.3209,29.1639"/><ellipse cx="631.254" cy="745.957" fill="#45465a" rx="10.298" ry="12.358"/><ellipse cx="631.254" cy="745.957" fill="#697596" rx="5.53" ry="6.636"/><path fill="#45465a" d="M689.22437,764.979c0,6.825-4.6106,12.3577-10.298,12.3577-5.6876,0-10.2982-5.5327-10.2982-12.3577s4.6106-12.3578,10.2982-12.3578C684.61377,752.62117,689.22437,758.154,689.22437,764.979Z"/><path fill="#697596" d="M684.45657,764.979c0,3.6652-2.476,6.6363-5.5302,6.6363s-5.5303-2.9711-5.5303-6.6363,2.476-6.6363,5.5303-6.6363S684.45657,761.31387,684.45657,764.979Z"/><ellipse cx="801.669" cy="744.939" fill="#45465a" rx="10.298" ry="12.358"/><path fill="#697596" d="M807.19957,744.93937c0,3.6651-2.476,6.6362-5.5303,6.6362s-5.5303-2.9711-5.5303-6.6362,2.476-6.6363,5.5303-6.6363S807.19957,741.27417,807.19957,744.93937Z"/><path fill="#537864" d="M546.37917,583.69867v24.4857q28.84095.9918,57.6833,1.9833c34.5983,1.1896,78.2889-6.0709,106.268-22.1624l-.2899-7.9734Z"/><g id="a3fd8d04-6994-4d57-b322-dfe9ba0cb777" clip-path="url(#f8899152-7274-46c5-967b-147240c8244f)" data-name="BELGIUM"><polygon fill="#313248" points="364.344 286.098 382.366 284.03 382.366 252.485 364.344 254.553 364.344 286.098"/><polygon fill="#ffc239" points="382.366 284.03 400.388 281.962 400.388 250.417 382.366 252.485 382.366 284.03"/><polygon fill="#f25637" points="400.388 281.962 418.41 279.894 418.41 248.349 400.388 250.417 400.388 281.962"/></g><g id="f56ce93b-27e0-4a11-97cf-db39d80c20c8" clip-path="url(#a712cda2-88e9-47d3-af0d-5072853c5646)" data-name="ITALY"><polygon fill="#537864" points="364.343 323.8 382.366 321.732 382.366 290.193 364.343 292.261 364.343 323.8"/><polygon fill="#f1f2f1" points="382.366 321.732 400.388 319.664 400.388 288.125 382.366 290.193 382.366 321.732"/><polygon fill="#f25637" points="400.388 319.664 418.411 317.596 418.411 286.057 400.388 288.125 400.388 319.664"/></g><g id="a7353703-1bc5-453b-9b5d-f5b0153cafd0" clip-path="url(#bea49bf1-dc28-441b-be5f-ad013cb3284f)" data-name="UNITED KINGDOM"><polygon fill="#fff" points="364.344 248.388 418.411 242.184 418.411 210.647 364.344 216.851 364.344 248.388"/><polygon fill="#f25637" points="400.546 224.099 418.411 212.049 418.411 210.647 417.179 210.789 396.809 224.528 400.546 224.099"/><polygon fill="#f25637" points="399.702 233.561 418.411 241.884 418.411 239.792 403.44 233.132 399.702 233.561"/><polygon fill="#f25637" points="364.344 219.252 380.348 226.417 384.087 225.988 364.344 217.158 364.344 219.252"/><polygon fill="#f25637" points="383.239 235.45 364.344 248.206 364.344 248.388 367.758 247.997 386.98 235.021 383.239 235.45"/><polygon fill="#45465a" points="414.71 211.072 395.781 213.244 395.781 223.845 414.71 211.072"/><polygon fill="#45465a" points="387.423 214.203 368.568 216.367 387.423 224.805 387.423 214.203"/><polygon fill="#45465a" points="418.411 222.049 418.411 214.815 405.569 223.523 418.411 222.049"/><polygon fill="#45465a" points="418.411 238.572 418.411 231.414 405.569 232.888 418.411 238.572"/><polygon fill="#45465a" points="369.638 247.781 387.423 245.74 387.423 235.774 369.638 247.781"/><polygon fill="#45465a" points="395.781 244.781 413.622 242.734 395.781 234.815 395.781 244.781"/><polygon fill="#45465a" points="364.344 237.619 364.344 245.099 377.633 236.094 364.344 237.619"/><polygon fill="#45465a" points="364.344 228.254 377.633 226.729 364.344 220.762 364.344 228.254"/><polygon fill="#f25637" points="389.095 214.011 389.095 227.287 364.344 230.127 364.344 235.75 389.095 232.91 389.095 245.548 394.108 244.973 394.108 232.334 418.411 229.546 418.411 223.923 394.108 226.712 394.108 213.436 389.095 214.011"/></g><path fill="#ffc239" d="M465.83687,249.72357a16.87044,16.87044,0,0,0-6.0621,6.6625c-2.0756,4.685-.5165,10.4135,2.8473,14.2789s8.2299,6.1199,13.1591,7.5197a51.37543,51.37543,0,0,0,22.0833,1.3009c8.1683-1.3099,16.6224-5.203,20.2366-12.6445,5.0159-10.3273-2.0245-22.6477-12.9328-23.9665C491.79,241.25717,477.28337,241.733,465.83687,249.72357Z"/><path fill="#ffc239" d="M487.06637,278.12907a23.973,23.973,0,0,0,18.1771,11.042,34.79865,34.79865,0,0,1-5.6562-19.8632Z"/><path fill="#ffd4e5" d="M553.00917,201.567a17.29774,17.29774,0,0,1,7.2773,5.6875c2.9066,4.3768,2.3198,10.436-.4128,14.9236s-7.2617,7.6063-12.0022,9.8721a52.67607,52.67607,0,0,1-22.0955,5.1272c-8.4822.0861-17.6991-2.3892-22.6367-9.2866-6.8525-9.5723-1.8635-23.2402,8.9341-26.4563C525.31607,197.49007,540.06037,195.46667,553.00917,201.567Z"/><path fill="#ffd4e5" d="M536.45577,233.94227a24.58138,24.58138,0,0,1-16.466,14.2984,35.6812,35.6812,0,0,0,2.2877-21.0528Z"/><path fill="#fd7756" d="M553.43677,293.73417v5.8311a1.383,1.383,0,0,0,1.5406,1.3739l10.5582-1.2117a1.3829,1.3829,0,0,0,1.2252-1.3739v-5.9005a1.38278,1.38278,0,0,0-1.5494-1.3728l-10.5582,1.281A1.383,1.383,0,0,0,553.43677,293.73417Z"/><path fill="#537864" d="M549.83137,297.74377c0,2.2219-1.4655,4.0231-3.2731,4.0231s-3.2731-1.8012-3.2731-4.0231,1.4654-4.0232,3.2731-4.0232S549.83137,295.52187,549.83137,297.74377Z"/><path fill="#537864" d="M541.37587,298.69847c0,2.2219-1.4654,4.0231-3.2731,4.0231s-3.2731-1.8012-3.2731-4.0231,1.4655-4.0232,3.2731-4.0232S541.37587,296.47647,541.37587,298.69847Z"/><path fill="#537864" d="M532.92037,299.65307c0,2.2219-1.4654,4.0232-3.2731,4.0232s-3.273-1.8013-3.273-4.0232,1.4653-4.0231,3.273-4.0231S532.92037,297.43117,532.92037,299.65307Z"/><path fill="#f0f1f1" d="M561.62707,298.11007l-4.4046.3767a.33937.33937,0,0,1-.3755-.3434v-3.4845a.41712.41712,0,0,1,.3755-.4077l4.4046-.3767a.33937.33937,0,0,1,.3755.3434v3.4846A.417.417,0,0,1,561.62707,298.11007Z"/><polygon fill="#f0f1f1" points="560.841 296.013 563.567 297.612 563.567 293.948 560.841 296.013"/><path fill="none" stroke="#f4ebdc" stroke-linecap="round" stroke-miterlimit="10" stroke-width="2.049" d="M470.705,269.41247c.8902,0,38.277-5.341,38.277-5.341"/><path fill="none" stroke="#f4ebdc" stroke-linecap="round" stroke-miterlimit="10" stroke-width="2.049" d="M470.705,262.473c.8902,0,38.277-5.341,38.277-5.341"/><path fill="none" stroke="#f4ebdc" stroke-linecap="round" stroke-miterlimit="10" stroke-width="2.049" d="M470.705,255.53347c.8902,0,38.277-5.3409,38.277-5.3409"/><path fill="none" stroke="#98c0da" stroke-linecap="round" stroke-miterlimit="10" stroke-width="2.049" d="M511.33237,226.67167c.8901,0,38.2769-5.341,38.2769-5.341"/><path fill="none" stroke="#98c0da" stroke-linecap="round" stroke-miterlimit="10" stroke-width="2.049" d="M511.33237,219.73217c.8901,0,38.2769-5.341,38.2769-5.341"/><path fill="none" stroke="#98c0da" stroke-linecap="round" stroke-miterlimit="10" stroke-width="2.049" d="M511.33237,212.79267c.8901,0,38.2769-5.341,38.2769-5.341"/><path fill="#dd9d72" d="M473.90777,410.75827c-3.1013.5045-5.7968,2.5161-8.8941,3.0445-2.8483.486-5.7463-.3252-8.6353-.3756-5.2479-.0915-10.1789,2.3065-14.876,4.6488-.8178.4078-1.7663,1.0369-1.6751,1.9462.0931.9307,1.1884,1.349,2.0947,1.5806a89.62706,89.62706,0,0,1,18.2228,6.8396c3.6042,1.8216,7.1121,3.8986,10.9576,5.1314s8.1691,1.5504,11.8338-.1459C496.72847,427.04407,487.09767,408.61257,473.90777,410.75827Z"/><path fill="#e2724b" d="M574.681,396.33987a221.76153,221.76153,0,0,1-30.9437,28.8774c-2.016,1.5492-4.1466,3.1044-6.6365,3.6193-2.9017.6001-5.8813-.2905-8.7103-1.1719q-17.72175-5.5212-35.4435-11.0426c-1.9464-.6064-4.0028-1.2187-5.9927-.7751a11.78118,11.78118,0,0,0-4.0144,2.0809q-9.0354,6.2802-18.0707,12.5605a232.24549,232.24549,0,0,0,56.7232,40.4728c10.9011,5.5219,23.0655,10.282,35.0773,8.0363,9.9217-1.8548,18.2909-8.2172,26.6307-13.9031,14.2264-9.6994,29.5313-17.9696,42.4182-29.3888s23.4314-26.8383,24.2768-44.0356c.7432-15.1187-11.3345-40.728-29.6929-37.0091C601.60607,358.44837,586.33117,383.17057,574.681,396.33987Z"/></g></g></svg>