<svg xmlns="http://www.w3.org/2000/svg" enable-background="new 0 0 3000 3000" viewBox="0 0 3000 3000"><path fill="#479376" d="M1509.814,2416.472c46.636-155.286,144.698-530.919-15.272-480.739
					c-154.921,48.599-74.119,346.703-28.983,480.739H1509.814z"/><path fill="#61AA85" d="M1484.056,2397.333c0.449,6.38,0.844,12.759,1.25,19.139h4.236c0.161-6.414,0.306-12.828,0.518-19.242
							l0.833-59.141c0.657-39.428,0.584-78.827,0.753-118.225l0.015-118.173c-0.008-19.684,0.117-39.369,0.559-59.059
							c0.009-19.712,0.934-39.334,1.88-59.092c-7.252,38.906-9.758,78.498-11.907,117.907c-2.086,39.455-2.638,78.935-2.854,118.396
							c0.139,39.464,0.534,78.92,2.133,118.357L1484.056,2397.333z" opacity=".52"/><path fill="#61AA85" d="M1384.332,2416.472h66.454c-12.434-65.546-53.536-198.742-179.894-164.319
					C1154.766,2283.786,1291.638,2368.452,1384.332,2416.472z"/><path fill="#7AC094" d="M1308.096,2290.162c6.86,6.996,13.594,14.108,20.197,21.351l39.615,43.464l39.728,43.44l16.719,18.055
							h5.177l-17.517-21.86c-12.391-15.288-25.367-30.072-38.504-44.726c-13.281-14.513-26.811-28.832-41.056-42.452
							c-14.229-13.593-28.88-27.024-45.385-37.872c3.54,3.463,7.231,6.663,10.723,10.112
							C1301.229,2283.185,1304.756,2286.569,1308.096,2290.162z" opacity=".52"/><path fill="#7AC094" d="M1474.572,2416.472c14.607-86.59,35.977-282.08-65.568-296.84
					c-103.157-14.994-7.617,203.823,37.293,296.84H1474.572z"/><path fill="#479376" d="M1427.338,2222.137l11.794,73.195c4.034,24.385,7.917,48.796,12.255,73.152l6.415,36.548
							c0.743,3.812,1.483,7.624,2.195,11.44h2.592c-0.385-3.988-0.701-7.982-1.059-11.974l-4.297-36.885
							c-2.941-24.586-6.632-49.064-10.482-73.521c-4.068-24.42-8.349-48.819-13.575-73.049
							c-5.261-24.196-10.761-48.469-19.134-71.844c2.556,12.143,5.085,24.205,7.057,36.413
							C1423.338,2197.764,1425.379,2209.944,1427.338,2222.137z" opacity=".52"/><path fill="#61AA85" d="M1581.391,2416.472c131.68-94.505,368.223-285.396,164.072-307.183
					c-209.556-22.369-239.077,202.099-241.539,307.183H1581.391z"/><path fill="#7AC094" d="M1539.042,2416.472c0.754-1.089,1.504-2.183,2.262-3.27l26.025-39.094l51.514-78.427l51.33-78.436
							c8.553-13.072,17.351-25.968,26.373-38.717c4.347-6.499,9.038-12.721,13.557-19.113c4.621-6.313,9.618-12.285,14.313-18.63
							c-23.226,21.251-42.879,46.1-61.828,71.098c-18.966,25.042-36.629,51.003-53.851,77.207
							c-16.962,26.387-33.637,52.942-49.261,80.139l-23.201,40.904c-1.11,2.121-2.242,4.226-3.366,6.339H1539.042z" opacity=".52"/><g><path fill="#479376" d="M624.435,2244.206c82.329-139.681,267.156-481.083,99.834-470.507
					c-162.042,10.245-154.676,319.018-142.812,459.951L624.435,2244.206z"/><path fill="#61AA85" d="M603.986,2219.475c-1.085,6.303-2.223,12.592-3.351,18.884l4.115,1.011
							c1.686-6.19,3.357-12.384,5.093-18.563l14.915-57.236c10.043-38.133,19.369-76.413,28.931-114.633l28.201-114.758
							c4.688-19.118,9.504-38.205,14.629-57.222c4.711-19.14,10.289-37.975,15.92-56.938c-16.323,36.053-28.2,73.904-39.686,111.664
							c-11.436,37.819-21.39,76.027-31.012,114.298c-9.277,38.358-18.306,76.769-26.159,115.449L603.986,2219.475z" opacity=".52"/><path fill="#61AA85" d="M502.575,2214.275l64.536,15.851c3.559-66.62-4.588-205.775-135.509-202.485
					C311.283,2030.663,424.01,2145.532,502.575,2214.275z"/><path fill="#7AC094" d="M458.666,2073.427c4.994,8.431,9.838,16.943,14.522,25.552l28.105,51.659l28.22,51.662l11.93,21.522
							l5.027,1.235l-11.798-25.407c-8.387-17.803-17.462-35.255-26.725-52.618c-9.435-17.262-19.159-34.395-29.745-51.019
							c-10.577-16.595-21.6-33.133-35.042-47.604c2.613,4.207,5.434,8.195,8.002,12.377
							C453.662,2065.014,456.279,2069.141,458.666,2073.427z" opacity=".52"/><g><path fill="#7AC094" d="M590.21,2235.8c34.839-80.607,102.22-265.358,7.127-303.912
					c-96.604-39.166-56.012,196.124-34.585,297.168L590.21,2235.8z"/><path fill="#479376" d="M590.692,2035.807l-6.005,73.895c-1.899,24.644-3.95,49.277-5.546,73.965l-2.488,37.024
							c-0.187,3.878-0.378,7.758-0.596,11.633l2.518,0.618c0.578-3.965,1.223-7.919,1.828-11.881l4.625-36.845
							c3.008-24.578,5.262-49.23,7.357-73.9c1.874-24.686,3.537-49.401,4.24-74.179c0.662-24.752,1.11-49.636-1.445-74.333
							c-0.414,12.402-0.836,24.719-1.832,37.045C592.621,2011.183,591.697,2023.499,590.692,2035.807z" opacity=".52"/></g><g><path fill="#61AA85" d="M693.946,2261.278c150.421-60.369,425.667-189.331,232.605-259.183
					c-198.172-71.706-280.381,139.242-307.837,240.706L693.946,2261.278z"/><path fill="#7AC094" d="M652.82,2251.177c0.992-0.877,1.98-1.761,2.976-2.636l34.599-31.758l68.733-63.876l68.557-63.928
							c11.424-10.655,23.043-21.081,34.847-31.31c5.772-5.275,11.811-10.198,17.725-15.328c5.993-5.028,12.27-9.636,18.343-14.678
							c-27.624,15.097-52.637,34.542-77.001,54.298c-24.392,19.795-47.737,40.794-70.712,62.135
							c-22.767,21.579-45.294,43.39-66.954,66.076l-32.288,34.189c-1.584,1.794-3.186,3.569-4.78,5.353L652.82,2251.177z" opacity=".52"/></g></g><g><path fill="#479376" d="M2371.893,2300.405c24.444-160.285,68.971-545.945-82.402-473.87
					c-146.595,69.802-24.869,353.664,38.583,480.064L2371.893,2300.405z"/><path fill="#61AA85" d="M2343.711,2285.059c1.337,6.255,2.621,12.515,3.916,18.775l4.196-0.593
							c-0.739-6.373-1.492-12.744-2.18-19.125l-7.452-58.676c-4.867-39.132-10.454-78.133-15.8-117.167l-16.523-117.012
							c-2.763-19.49-5.394-38.998-7.712-58.556c-2.75-19.519-4.58-39.077-6.409-58.774c-1.736,39.539,1.323,79.092,4.711,118.414
							c3.457,39.359,8.435,78.527,13.744,117.63c5.66,39.056,11.573,78.068,18.675,116.894L2343.711,2285.059z" opacity=".52"/><path fill="#61AA85" d="M2247.646,2317.967l65.8-9.301c-21.484-63.16-80.824-189.292-201.12-137.526
					C2001.769,2218.715,2149.143,2283.392,2247.646,2317.967z"/><path fill="#7AC094" d="M2154.482,2203.569c7.772,5.968,15.436,12.066,22.987,18.314l45.308,37.491l45.416,37.453
							l19.082,15.537l5.125-0.724l-20.404-19.193c-14.409-13.403-29.326-26.226-44.384-38.896
							c-15.181-12.512-30.582-24.797-46.593-36.288c-15.991-11.468-32.377-22.717-50.239-31.147
							c3.991,2.933,8.093,5.585,12.033,8.511C2146.708,2197.622,2150.673,2200.479,2154.482,2203.569z" opacity=".52"/><g><path fill="#7AC094" d="M2336.998,2305.337c2.344-87.783-3.855-284.34-106.466-284.743
					c-104.24-0.409,20.984,202.883,78.469,288.7L2336.998,2305.337z"/><path fill="#479376" d="M2263.031,2119.525l21.921,70.824c7.407,23.582,14.669,47.208,22.373,70.718l11.467,35.29
							c1.27,3.67,2.536,7.342,3.776,11.02l2.567-0.363c-0.939-3.895-1.812-7.806-2.725-11.708l-9.417-35.921
							c-6.353-23.932-13.433-47.653-20.668-71.331c-7.446-23.61-15.099-47.17-23.665-70.431
							c-8.595-23.221-17.438-46.485-28.999-68.458c4.23,11.666,8.422,23.255,12.083,35.067
							C2255.66,2095.952,2259.385,2107.727,2263.031,2119.525z" opacity=".52"/></g><g><path fill="#61AA85" d="M2442.765,2290.388c117.159-112.004,324.657-334.12,119.467-327.122
					c-210.624,7.179-208.44,233.569-196.172,337.963L2442.765,2290.388z"/><path fill="#7AC094" d="M2400.834,2296.315c0.595-1.184,1.183-2.372,1.781-3.554l20.298-42.352l40.031-84.865l39.848-84.847
							c6.64-14.14,13.545-28.141,20.695-42.027c3.395-7.044,7.168-13.861,10.749-20.823c3.692-6.897,7.803-13.51,11.564-20.45
							c-20.023,24.292-36.005,51.648-51.269,79.051c-15.274,27.45-29.13,55.627-42.515,83.984
							c-13.103,28.501-25.897,57.128-37.561,86.245l-17.249,43.748c-0.802,2.255-1.629,4.498-2.445,6.747L2400.834,2296.315z" opacity=".52"/></g></g><g><path fill="#BFDADF" d="M1411.88,1568.547c-76.72,0-139.131-62.412-139.131-139.133V758.579
			c0-298.659,242.98-541.639,541.638-541.639c298.659,0,541.633,242.98,541.633,541.639v670.835
			c0,76.721-62.412,139.133-139.133,139.133H1411.88z"/><path fill="#EAEEEF" d="M1814.385,266.631h-0.002c-271.693,0-491.944,220.252-491.944,491.946v670.836
			c0,49.399,40.045,89.445,89.444,89.445h805.002c49.4,0,89.445-40.046,89.445-89.445V758.576
			C2306.33,486.882,2086.079,266.631,1814.385,266.631z"/><path fill="#FFF" d="M1601.954,1098.653v420.204h-190.071c-49.398,0-89.444-40.046-89.444-89.444v-355.916h254.357
					C1590.69,1073.497,1601.954,1084.76,1601.954,1098.653z"/><rect width="53.73" height="71.641" x="1361.57" y="1138.717" fill="#EAEEEF"/><rect width="53.731" height="71.641" x="1426.246" y="1138.717" fill="#EAEEEF"/><rect width="53.731" height="71.641" x="1490.922" y="1138.717" fill="#EAEEEF"/><rect width="53.73" height="71.641" x="1361.57" y="1230.956" fill="#EAEEEF"/><rect width="53.731" height="71.641" x="1426.246" y="1230.956" fill="#EAEEEF"/><rect width="53.731" height="71.641" x="1490.922" y="1230.956" fill="#EAEEEF"/><rect width="53.73" height="71.641" x="1361.57" y="1323.197" fill="#EAEEEF"/><rect width="53.731" height="71.641" x="1426.246" y="1323.197" fill="#EAEEEF"/><rect width="53.731" height="71.641" x="1490.922" y="1323.197" fill="#EAEEEF"/><rect width="53.73" height="71.641" x="1361.57" y="1415.436" fill="#EAEEEF"/><rect width="53.731" height="71.641" x="1426.246" y="1415.436" fill="#EAEEEF"/><rect width="53.731" height="71.641" x="1490.922" y="1415.436" fill="#EAEEEF"/><g><rect width="328.484" height="158.191" x="1917.602" y="1360.785" fill="#FFF"/><rect width="149.904" height="86.032" x="2060.988" y="1432.944" fill="#EAEEEF"/><rect width="73.866" height="136.434" x="1903.697" y="1382.542" fill="#EAEEEF"/><path fill="#FFF" d="M1933.244,1518.976h-294.022V1168.23c0-8.708,5.342-16.545,13.503-19.809l250.828-100.317
					c14.198-5.678,29.692,4.659,29.692,19.809V1518.976z"/><rect width="26.704" height="317.482" x="1692.396" y="1201.294" fill="#EAEEEF"/><rect width="26.704" height="317.482" x="1747.075" y="1201.294" fill="#EAEEEF"/><rect width="26.703" height="317.482" x="1801.756" y="1201.294" fill="#EAEEEF"/></g><g><path fill="#FFF" d="M2305.928,712.593c-38.037-3.335-76.148-7.193-111.702-20.654c-43.316-16.4-168.115-40.498-119.062,9.05
				c8.443,8.527,17.804,16.805,22.281,27.936c4.478,11.135,2.022,26.229-8.749,31.518c-14.834,7.281-31.694-8.109-48.103-6.174
				c-17.993,2.125-27.014,25.399-20.809,42.421c6.204,17.021,22.24,28.305,38.098,37.067
				c33.857,18.704,70.824,30.964,107.548,43.119c46.279,15.319,92.927,30.582,140.498,40.77V712.593z"/><path fill="#FFF" d="M1701.733,881.151c-13.503-7.898-30.262-6.633-45.831-5.125c-32.291,3.126-64.582,6.252-96.873,9.377
				c-8.322,0.804-17.067,1.548-24.728-1.799c-7.662-3.347-13.57-12.285-10.578-20.091c6.416-16.737,36.743-4.725,47.476-19.08
				c5.444-7.284,2.442-18.318-4.154-24.579c-6.594-6.262-15.733-8.913-24.514-11.275c-71.878-19.345-145.253-33.3-219.342-40.48
				v207.927c11.965,1.952,23.97,3.655,36.076,4.743c113.518,10.194,226.134-21.644,335.661-53.161
				c5.472-1.575,11.151-3.259,15.37-7.079C1721.897,910.031,1715.236,889.045,1701.733,881.151z"/><path fill="#FFF" d="M1916.563,556.704c-0.949-13.559-4.188-23.602-8.075-23.602c-3.888,0-7.127,10.044-8.076,23.602
				c-13.559,0.949-23.602,4.189-23.602,8.075c0,3.887,10.044,7.127,23.602,8.077c0.949,13.558,4.188,23.602,8.076,23.602
				c3.887,0,7.127-10.044,8.075-23.602c13.558-0.949,23.602-4.19,23.602-8.077C1940.166,560.893,1930.122,557.653,1916.563,556.704z
				"/><path fill="#FFF" d="M1667.815,713.822c-0.719-10.271-3.173-17.878-6.118-17.878c-2.945,0-5.398,7.607-6.117,17.878
				c-10.271,0.72-17.879,3.174-17.879,6.118c0,2.945,7.608,5.399,17.879,6.118c0.719,10.27,3.172,17.879,6.117,17.879
				c2.945,0,5.399-7.609,6.118-17.879c10.271-0.719,17.878-3.173,17.878-6.118C1685.694,716.996,1678.086,714.542,1667.815,713.822z
				"/><path fill="#FFF" d="M1997.802,923.067c-0.489-6.978-2.155-12.148-4.156-12.148c-2.002,0-3.669,5.17-4.157,12.148
				c-6.978,0.489-12.148,2.157-12.148,4.157c0,2.001,5.169,3.668,12.148,4.157c0.488,6.978,2.155,12.148,4.157,12.148
				c2,0,3.667-5.169,4.156-12.148c6.979-0.489,12.149-2.156,12.149-4.157C2009.951,925.224,2004.781,923.556,1997.802,923.067z"/></g></g><g><path fill="#023B5F" d="M1293.003,2395.927c-32.704-342.201-59.972-615.4-59.972-615.4l-413.219,81.438
							c0,0,41.55,232.208,96.6,533.962H1293.003z"/><path fill="#06344E" d="M1074.419,2395.927l20.914-272.775l148.815-213.814c-8.132-67.041-9.531-120.972-9.531-120.972
							l-414.847,73.586c0,0,38.704,233.128,90.72,533.976H1074.419z"/><path fill="#092C3D" d="M956.137,2216.128c6.089,42.432,15.708,103.728,28.842,179.329c0.027,0.153,0.057,0.317,0.083,0.47
								h13.652c-0.188-0.953-0.39-1.964-0.578-2.912c-14.573-74.711-26.407-135.37-34.747-178.12
								c-4.185-20.458-7.487-36.607-9.887-48.333c-2.449-11.019-4.008-16.758-4.656-16.655c-0.638,0.101-0.338,6.05,0.9,17.272
								C950.953,2178.408,953.141,2194.903,956.137,2216.128z"/><g><path fill="#023B5F" d="M989.271,2395.927c8.99-102.018,17.427-193.193,24.82-265.531
							c73.582-177.825,109.151-301.145,109.151-301.145l-526.89,26.386c0,0,1.528,235.382,4.561,540.291H989.271z"/><path fill="#092C3D" d="M763.804,2395.927c1.1-31.002,1.857-60.537,2.364-88.145c1.424-81.122,0.648-146.769-0.658-192.113
								c-0.644-22.673-1.405-40.271-2.204-52.199c-0.776-11.926-1.559-18.183-2.214-18.166c-0.662,0.017-1.159,6.288-1.625,18.221
								c-0.332,12.6-0.789,30.043-1.369,52.168c-0.973,45.294-2.251,110.826-5.39,191.717c-1.101,27.724-2.409,57.383-4.027,88.517
								H763.804z"/><g><path fill="#092C3D" d="M1001.166,2395.927c7.927-99.745,14.501-188.971,19.154-259.218l0.304-4.622
								c0.018-0.453,0-0.442,0.121-0.854l0.625-2.116c0.887-2.849,1.765-5.663,2.632-8.444c1.85-5.558,3.658-10.98,5.416-16.261
								c3.688-10.477,7.177-20.394,10.457-29.717c6.659-18.25,12.452-34.129,17.332-47.504c9.551-26.089,14.5-40.687,13.257-41.214
								c-1.177-0.502-8.431,13.111-20.11,38.388c-5.825,12.647-12.742,28.214-20.402,46.47c-3.737,9.231-7.713,19.049-11.914,29.422
								c-1.997,5.281-4.049,10.705-6.15,16.265c-1.001,2.831-2.013,5.697-3.037,8.595l-0.744,2.234
								c-0.429,1.024-0.731,2.53-0.741,3.626l-0.466,4.608c-7.121,70.403-15.515,160.042-24.321,260.34H1001.166z"/><path fill="#092C3D" d="M682.281,2060.751c-0.124-11.143,37.619-19.561,77.888-41.686
								c40.981-21.211,71.496-45.803,79.737-39.296c8.652,6.001-13.078,47.358-61.976,72.99
								c-24.02,12.813-48.899,18.031-66.725,17.737C693.285,2070.472,682.487,2065.662,682.281,2060.751z"/></g></g><g><path fill="#E95B52" d="M1055.653,936.917c0,0,35.012,3.634,45.346,10.465c102.905,68.02,230.338,417.057,230.338,417.057
						s426.472,183.545,445.393,193.649c18.922,10.105-44.815,97.931-44.815,97.931s-346.788,11.964-442.357-44.799
						c-103.677-61.58-272.276-398.15-272.276-398.15L1055.653,936.917z"/><path fill="#E54C4C" d="M1731.914,1656.019c0,0-346.79,11.96-442.36-44.8c-103.67-61.58-272.27-398.15-272.27-398.15
						l38.37-276.15c0,0,35.01,3.63,45.35,10.46c102.9,68.02,230.33,417.06,230.33,417.06s38.71,16.66,93.32,40.22
						c-30.67,53.35-70.69,138.25-35.64,168.8c52.65,45.9,228.15,72.9,241.65,40.5c9.87-23.68,15.41-71.9,49.32-98.76
						c52.58,22.92,91.34,40,96.75,42.89C1795.654,1568.189,1731.914,1656.019,1731.914,1656.019z"/><path fill="#ED6A58" d="M1344.595,1299.695c7.333,2.346-15.982,50.823-31.975,47.092
						C1296.627,1343.055,1336.739,1297.183,1344.595,1299.695z"/><path fill="#ED6A58" d="M1362.375,1303.339c4.874-2.237,26.656,111.17,4.312,91.702
						C1344.344,1375.572,1346.729,1310.521,1362.375,1303.339z"/><path fill="#ED6A58" d="M759.316,923.475c18.095-16.971,97.011-20.864,97.011-20.864l181.15,23.542
					c0,0,31.009,12.235,34.046,18.208c73.283,144.116,186.511,791.824,206.376,897.226
					c19.866,105.401-401.312,127.814-475.075,126.278c-73.764-1.538-223.296,0.291-259.909-75.333
					C506.299,1816.908,578.253,1093.283,759.316,923.475z"/><path fill="#E95B52" d="M908.881,1156.911c5.43,49.022-25.237,147.465-13.283,168.785
					c11.955,21.322,55.787-72.843,66.414-28.426c10.625,44.417,31.878,83.504,45.162,65.737
					c13.283-17.767,25.238-117.261,38.52-87.059c13.283,30.204,58.444,95.942,62.429,58.631
					c3.985-37.31-1.732-193.66-21.656-182.999c-19.924,10.661-19.52,58.631-24.833,58.631s-34.536-95.941-53.131-56.855
					c-18.597,39.087-13.283,90.612-30.55,49.747C960.684,1162.241,903.568,1108.941,908.881,1156.911z"/><path fill="#E95B52" d="M802.868,1967.829c-73.751-1.578-223.307,0.316-259.948-75.331
					c-33.639-69.488,24.321-684.458,173.878-916.455l94.282,243.051c0,0-94.756,229.786-80.542,251.106
					c14.213,21.319,66.331,16.582,59.223,23.689c-7.109,7.107-71.069,7.107-59.223,21.32
					c11.845,14.214,2.369,246.367,45.009,272.425c42.639,26.059,125.551-11.845,123.184,4.738
					c-2.369,16.582-127.923,30.796-106.601,52.116c21.32,21.321,220.307-61.591,208.464-37.903
					c-11.845,23.69-45.01,61.591-30.795,66.33c14.211,4.738,210.833-11.844,253.473-37.902
					c15.161-9.318,20.214-85.439,20.214-179.406c16.581,88.282,29.058,157.295,34.429,186.039
					C1297.815,1946.983,876.621,1969.409,802.868,1967.829z"/><path fill="#EAEEEF" d="M1335.615,1114.247l-265.173-2.796c-5.789,332.107-135.257,457.149-135.257,457.149
							c-5.849,21.318,300.046,32.776,305.413,17.705C1240.598,1586.306,1373.387,1426.96,1335.615,1114.247z"/><path fill="#D69A16" d="M1415.751,1102.01l-265.175-2.803c-19.588-0.208-36.691,11.016-41.066,26.945l-126.743,461.969
							c-5.85,21.323,13.13,41.782,39.336,42.418l226.389,5.474c18.839,0.46,35.693-9.715,41.065-24.793l165.534-464.641
							C1462.95,1124.514,1443.347,1102.3,1415.751,1102.01z"/><path fill="#E2CC49" d="M1419.528,1111.828l-245.069-2.037c-19.595-0.213-36.69,11.017-41.067,26.946l-126.741,461.969
							c-5.849,21.318,13.126,41.782,39.331,42.417l226.387,5.476c18.847,0.452,35.701-9.723,41.068-24.793l145.433-465.403
							C1466.73,1134.339,1447.126,1112.118,1419.528,1111.828z"/><path fill="#D69A16" d="M1282.293,1562.337c-10.628-24.208-176.542-11.218-171.818-5.314
							C1115.199,1562.928,1287.046,1573.164,1282.293,1562.337z" opacity=".5"/><path fill="#D69A16" d="M1296.464,1510.379c-10.628-24.208-122.812-11.809-118.088-5.904
							C1183.099,1510.379,1301.217,1521.205,1296.464,1510.379z" opacity=".5"/><path fill="#092C3D" d="M1266.997,1095.64l2.576-9.392c3.077-11.215,13.271-18.989,24.9-18.989
							c12.786,0,21.716,12.661,17.425,24.706l-3.154,8.852c-1.224,3.436-4.477,5.73-8.125,5.73h-25.303
							C1269.622,1106.547,1265.491,1101.13,1266.997,1095.64z"/><path fill="#023B5F" d="M1219.377,1123.841l0.359-1.311c6.241-22.75,26.92-38.52,50.51-38.52h45.519
							c23.762,0,41.104,21.082,38.055,43.437c-0.61,4.474-4.464,7.812-8.979,7.812h-116.757
							C1222.125,1135.258,1217.8,1129.587,1219.377,1123.841z"/><g><path fill="#F9C6A0" d="M1010.093,1320.786c28.935-19.253,61.864-23.953,75.765-25.113
							c23.602-1.933,107.983,17.54,107.983,17.54s-0.645,11.86-3.325,15.898c-4.358,6.562-18.702,9.677-34.586,8.36
							c10.726,2.928,29.835,10.198,29.835,10.198s-4.282,13.286-8.076,16.343c-5.078,4.094-17.963,5.699-27.948,4.535
							c7.37,2.876,20.11,7.013,20.11,7.013s-6.472,14.403-10.688,16.864c-8.015,4.681-23.911,3.416-37.568,1.493
							c9.67,2.773,24.98,11.333,24.98,11.333s-8.344,11.68-12.113,14.013c-14.65,9.06-66.639,0.248-66.639,0.248
							c-23.216,43.941-53.356,36.289-74.958,41.951c-5.238,1.303-34.216-89.714-34.216-89.714S988.462,1335.112,1010.093,1320.786z"/><path fill="#F89A6D" d="M1097.738,1329.177c0.024,0.477,3.312,0.645,8.576,1.175c5.267,0.54,12.523,1.429,20.513,2.722
							c15.986,2.554,28.885,5.239,29.103,4.396c0.224-0.82-12.439-4.887-28.615-7.473c-8.079-1.307-15.508-1.865-20.894-1.846
							C1101.025,1328.18,1097.713,1328.796,1097.738,1329.177z"/><path fill="#F89A6D" d="M1094.475,1359.477c-0.018,0.453,3.081,0.954,8.06,1.774c5.462,0.937,12.107,2.078,19.455,3.339
							c15.197,2.667,27.558,4.806,27.75,3.957c0.193-0.829-11.914-4.339-27.214-7.025c-7.647-1.348-14.647-2.192-19.751-2.46
							C1097.667,1358.793,1094.488,1359.071,1094.475,1359.477z"/><path fill="#F89A6D" d="M1094.475,1389.312c-0.163,0.844,6.949,2.923,15.884,4.642c8.936,1.719,16.311,2.428,16.474,1.584
							c0.163-0.845-6.949-2.923-15.885-4.644C1102.013,1389.175,1094.637,1388.466,1094.475,1389.312z"/></g><path fill="#E54C4C" d="M957.781,1358.707c0,0-413.156,83.425-428.853,86.913c-15.697,3.488-184.878,31.394-176.157,104.647
						c8.721,73.254,61.045,114.24,141.274,121.217c80.229,6.976,503.323-202.555,503.323-202.555L957.781,1358.707z"/><path fill="#E54C4C" d="M778.812,914.276c-7.085,0.537-46.894,16.025-66.676,37.124
					c-19.782,21.099-359.813,522.739-361.109,566.602c-6.353,214.803,265.106-34.883,265.106-34.883s240.985-287.91,236.018-353.459
					C847.184,1064.11,778.812,914.276,778.812,914.276z"/><path fill="#ED6A58" d="M538.626,1448.489c-11.459-12.392,131.795-38.125,125.229-29.496
					C657.288,1427.623,548.609,1459.286,538.626,1448.489z"/><path fill="#ED6A58" d="M582.187,1489.53c-31.524-13.578,55.216-59.626,48.549-44.146
					C624.069,1460.864,595.088,1495.086,582.187,1489.53z"/><g><path fill="#F9C6A0" d="M1004.437,789.256l-1.319,147.832c0,0-102.237,22.278-138.335-45.224L897.931,700.5
											L1004.437,789.256z"/><path fill="#F9B087" d="M1004.432,789.179l-0.855,95.738c-77.233-10.037-89.219-133.272-91.01-172.2L1004.432,789.179z"/><path fill="#F9C6A0" d="M859.84,594.505c0,0-21.193,246.837,183.479,246.832
										c152.061-0.002,109.759-295.103,109.759-295.103S934.958,542.387,859.84,594.505z"/><path fill="#092C3D" d="M978.518,588.854c0,0-50.274,60.501-22.155,136.34c28.12,75.839,69.874,32.381,111.628,34.937
										c41.755,2.557,71.579,8.521,71.579,11.078c0,2.557-6.817,70.726-94.586,80.1c-87.769,9.373-143.157-59.649-145.713-86.917
										c-2.557-27.268-24.711-184.91,2.556-181.503C929.095,586.298,978.518,588.854,978.518,588.854z"/><path fill="#092C3D" d="M983.374,631.215c1.127,0.846,4.228,5.921,4.228,5.921s24.245-7.33,29.319-5.357
										c5.074,1.974,15.506,9.867,15.506,9.867l1.973-2.818c0,0-9.021-14.378-15.505-17.76
										C1012.41,617.684,983.374,631.215,983.374,631.215z"/><path fill="#092C3D" d="M1096.983,628.96c1.128,0.845,4.229,5.921,4.229,5.921s24.243-7.331,29.317-5.356
										c5.075,1.973,15.506,9.866,15.506,9.866l1.973-2.819c0,0-9.02-14.378-15.504-17.759
										C1126.019,615.429,1096.983,628.96,1096.983,628.96z"/><path fill="#092C3D" d="M1028.263,667.063c0.607,8.018-4.415,14.911-11.179,15.424
											c-6.767,0.513-12.768-5.545-13.376-13.563c-0.608-8.019,4.41-14.953,11.175-15.466c1.897-0.143,3.724,0.221,5.409,1.068
											c-2.343,0.9-3.94,3.611-3.707,6.69c0.274,3.615,3.009,6.396,6.085,6.163c2.253-0.17,4.104-1.931,4.787-4.29
											C1027.876,664.354,1028.157,665.665,1028.263,667.063z"/><path fill="#092C3D" d="M1131.962,663.093c0.608,8.018-4.418,14.911-11.182,15.423
											c-6.762,0.512-12.768-5.545-13.376-13.563c-0.608-8.019,4.413-14.953,11.175-15.466c1.896-0.143,3.728,0.221,5.413,1.066
											c-2.347,0.902-3.941,3.613-3.709,6.691c0.275,3.615,3.007,6.397,6.081,6.164c2.259-0.17,4.104-1.931,4.792-4.29
											C1131.577,660.382,1131.856,661.695,1131.962,663.093z"/><path fill="#092C3D" d="M1059.882,569.656c0,0,24.795,42.184,78.656,34.647c53.86-7.538,93.727-28.703,78.836-65.589
						c-14.89-36.887-73.436-34.178-73.436-34.178s15.93-63.414-22.376-78.654c-38.306-15.241-78.068,30.107-78.068,30.107
						s-32.124-47.677-103.581-21.526c-28.955,10.595-90.725,1.955-80.382,65.909c-32.895,46.758-51.55,111.607-34.869,180.419
						c18.853,77.771,62.816,76.455,62.816,76.455s24.722-63.882,11.794-143.252C899.271,613.993,1048.715,627.525,1059.882,569.656z
						"/><g><path fill="#F9C6A0" d="M921.901,632.314c0,0-21.311-16.522-48.078-1.951c-29.233,15.913,15.386,89.839,35.009,88.349
							c18.947-1.439,21.754-12.197,20.235-26.903C926.465,666.615,921.901,632.314,921.901,632.314z"/><path fill="#092C3D" d="M890.885,643.62c9.662,5.447,28.836,25.883,20.742,44.531c0,0-1.536-11.573-8.663-17.751
							l-16.435-4.921l15.282-3.252L890.885,643.62z"/></g><path fill="#092C3D" d="M1071.773,686.688c2.762,3.305,13.661,43.46,12.002,50.065c-1.659,6.606-24.189,5.721-22.7,2.584
						c1.491-3.136,14.513-8.011,14.513-8.011S1064.648,678.157,1071.773,686.688z"/><path fill="#D6E8EA" d="M1045.865,781.254c1.299-8.843,8.346,0.257,27.624-0.133c19.279-0.391,20.051-5.411,20.097-2.024
						c0.046,3.386-4.084,21.728-19.095,24.6C1059.481,806.573,1044.291,791.967,1045.865,781.254z"/><path fill="#E54C4C" d="M867.86,872.39c0.105,1.388,64.537,40.732,98.327,38.171c33.791-2.56,37.305-23.777,37.305-23.777
						s48.946,37.724,33.496,67.292c-15.45,29.568-43.02,9.778-43.02,9.778s-6.57,21.627-43.003,28.398
						c-59.221,11.004-107.524-91.942-107.524-91.942L867.86,872.39z"/><path fill="#F9B087" d="M1037.422,695.124c0.458,6.048-8.4,11.652-19.787,12.515c-11.387,0.863-20.99-3.342-21.448-9.39
						c-0.459-6.05,8.401-11.653,19.788-12.515C1027.361,684.869,1036.964,689.074,1037.422,695.124z"/><path fill="#F9B087" d="M1101.425,693.845c-0.458,6.049,8.4,11.652,19.788,12.515c11.386,0.863,20.988-3.342,21.446-9.39
						c0.459-6.05-8.4-11.652-19.787-12.515C1111.485,683.592,1101.884,687.797,1101.425,693.845z"/></g></g></g><g><path fill="#092C3D" d="M2473.049,1357.118c-165.974-76.164-181.505-13.665-262.057-139.652
				c76.834,120.173,147.236,42.267,261.366,113.427c-62.385-73.23-152.981-47.986-224.702-105.586
				c-48.97-49.889-47.207-147.946-119.378-131.174c-40.825-94.604-261.403-54.523-248.047,159.083
				c-80.226,363.77,405.784,580.144,601.832,402.61C2582.821,1560.542,2561.698,1412.624,2473.049,1357.118z"/><path fill="#023B5F" d="M1746.853,2295.063c0,0-6.64,204.162,4.979,227.4c11.619,23.238,567.669,0,567.669,0
				s36.517-219.101,16.599-247.318C2316.182,2246.927,1746.853,2295.063,1746.853,2295.063z"/><path fill="#F9C6A0" d="M1672.16,1749.525c0,0-178.158,306.52-151.601,359.635c26.558,53.115,77.46,57.541,115.083,53.115
				c37.623-4.426,200.289-324.224,200.289-324.224L1672.16,1749.525z"/><path fill="#E54C4C" d="M1595.807,1779.679c0.671,20.655,177.784,134.034,217.994,138.044
					c25.746,2.567,118.033-262.911,119.371-300.295c1.337-37.382-21.993-100.006-48.009-101.267
					C1757.407,1570.795,1658.881,1694.196,1595.807,1779.679z"/><path fill="#ED6A58" d="M1885.163,1516.161c0,0,148.69-31.968,308.667,0c0,0,192.066,705.868,168.829,768.943
				c-23.238,63.074-567.67,76.353-627.425,39.836C1675.479,2288.424,1885.163,1516.161,1885.163,1516.161z"/><path fill="#E95B52" d="M1915.577,1716.655c15.378,11.631,49.26,46.613,122.887,38.137
				c73.626-8.476,112.699-54.91,100.111-30.722c-27.014,51.91-108.585,81.043-87.398,97.993
				c21.187,16.95,73.097,30.722,46.082,31.781c-27.014,1.06-189.627-2.648-179.564-16.42c10.065-13.772,31.252-29.662,5.298-46.083
				C1897.039,1774.921,1874.262,1685.403,1915.577,1716.655z"/><path fill="#F9C6A0" d="M2299.046,1895.953c50.441,103.691,73.075,200.717,73.075,200.717
						c-16.845,7.237-335.412,159.754-357.904,153.283c-26.24-7.536-70.663-53.041-76.599-33.11
						c-5.947,19.953,33.071,39.755,33.071,39.755c-12.724,0.079-82.46,19.389-94.663,41.019c-5.094,9.37,33.264,13.763,35.562,9.906
						c-8.453,3.67-2.493,28.135,8.892,22.034c-5.639,5.125-2.51,28.24,11.041,20.449c-11.914,20.628,18.933,22.459,28.501,17.395
						l-0.006-0.025c6.201-1.546,14.76-4.698,26.863-10.592c0,0-0.102-0.012-0.264,0.034c71.29-4.558,529.316-94.968,564.658-175.959
						c13.975-56.971-16.643-193.099-94.903-341.04L2299.046,1895.953z"/><path fill="#F9B087" d="M2386.631,2101.155c-9.612-17.745,69.083,16.301,67.919,20.57
					C2453.385,2125.994,2391.677,2110.47,2386.631,2101.155z"/><path fill="#F9B087" d="M2384.691,2108.917c0,0,35.317,20.958,30.272,23.286
					C2409.917,2134.532,2389.736,2122.113,2384.691,2108.917z"/><path fill="#E54C4C" d="M2296.264,1926.576c19.757,6.061,192.678-51.407,209.507-88.146
					c10.776-23.524-186.712-274.49-221.643-287.875c-34.93-13.384-69.768-33.479-90.298-34.394
					C2204.095,1654.729,2262.023,1838.191,2296.264,1926.576z"/><g><path fill="#F9B087" d="M2099.079,1320.419l16.819,184.535c0,0-50.593,90.642-113.667,31.469l-8.845-124.978L2099.079,1320.419z
					"/><path fill="#F9B087" d="M1998.079,1478.449l-4.695-67.049l85.078-73.227C2081.704,1379.714,2079.58,1471.301,1998.079,1478.449z
					"/><path fill="#F9C6A0" d="M1908.726,1185.355c0,0-82.634,212.695,13.335,252.609c95.969,39.908,239.99-90.936,222.334-110.08
					c-17.656-19.142-0.632-53.744-0.632-53.744s-39.43-12.516-50.189-73.568c-30.407,7.686-78.83-25.44-120.54-35.257
					C1943.001,1158.246,1914.186,1170.268,1908.726,1185.355z"/><path fill="#F9B087" d="M2062.779,1379.378c-6.049-7.229-32.09-2.213-38.73,1.107c-3.785,1.864-20.936,27.552-34.19,47.101
					c-14.248-6.115-37.381-15.493-45.898-15.771c-12.656-0.415-16.183,20.54-11.619,29.669c0,0,31.745,7.054,57.265,1.245
					l0.267-0.221c24.788-4.932,49.709-15.726,72.093-28.864C2061.967,1404.349,2065.656,1382.845,2062.779,1379.378z"/><path fill="#092C3D" d="M1965.574,1315.95c0,0-20.177,28.236-14.911,33.282c5.268,5.045,21.086,8.031,19.298,4.995
					c-1.787-3.037-10.426-8.52-10.426-8.52S1973.992,1311.119,1965.574,1315.95z"/><path fill="#F9B087" d="M2030.877,1356.679c-1.087,7.263-10.87,11.817-21.851,10.178c-10.987-1.641-19.01-8.859-17.927-16.119
						c1.083-7.261,10.867-11.819,21.855-10.178C2023.935,1342.201,2031.959,1349.418,2030.877,1356.679z"/><path fill="#F9B087" d="M1921.08,1337.424c-1.087,7.261-10.872,11.816-21.851,10.177c-10.987-1.642-19.014-8.857-17.927-16.116
						c1.083-7.262,10.867-11.818,21.852-10.178C1914.136,1322.949,1922.162,1330.163,1921.08,1337.424z"/><path fill="#092C3D" d="M1933.776,1293.598c-2.957,9.068-10.383,14.778-16.583,12.756c-6.208-2.025-8.837-11.016-5.881-20.084
						c2.959-9.065,10.385-14.778,16.592-12.752C1934.105,1275.54,1936.734,1284.533,1933.776,1293.598z"/><path fill="#092C3D" d="M2029.842,1313.743c-2.958,9.069-10.383,14.778-16.589,12.755c-6.203-2.024-8.836-11.016-5.878-20.085
						c2.957-9.065,10.386-14.775,16.589-12.753C2030.17,1295.685,2032.8,1304.678,2029.842,1313.743z"/><path fill="#FFF" d="M1933.138,1368.314c4.009-11.007,9.473,7.04,20.48,11.048c11.008,4.009,23.392-7.54,19.383,3.467
						c-4.008,11.008-16.184,16.684-27.193,12.677C1934.802,1391.497,1929.131,1379.324,1933.138,1368.314z"/><path fill="#F9B087" d="M1951.565,1505.919c0,0,110.165-15.253,195.406-0.408c0,0-8.668,79.533-113.267,76.568
				C1965.99,1580.161,1951.565,1505.919,1951.565,1505.919z"/><path fill="#F89A6D" d="M2146.972,1505.448c0,0-8.719,79.624-113.3,76.658c-67.621-1.942-82.097-76.199-82.097-76.199
				s2.522-0.385,7.188-0.905c4.576,11.718,25.906,57.823,79.537,64.222c45.555,5.413,79.095-41.486,93.275-66.127
				C2136.749,1503.839,2141.923,1504.581,2146.972,1505.448z"/><g><path fill="#F9C6A0" d="M2104.401,1307.972c0,0,23.342-11.579,45.913,7.334c24.652,20.658-31.733,82.16-50.035,77.001
					c-17.672-4.983-18.277-15.708-14.028-29.349C2093.527,1339.591,2104.401,1307.972,2104.401,1307.972z"/><path fill="#092C3D" d="M2131.621,1324.604c-10.193,3.315-32.258,19.011-28.153,38.22c0,0,3.664-10.668,11.595-15.159
					l16.508-1.523l-13.854-5.999L2131.621,1324.604z"/></g><path fill="#092C3D" d="M1958.39,1250.727c-17.073-28.277-36.394-24.94-39.839-23.813c-14.932,4.883-15.346,13.054-13.79,13.803
				c1.555,0.751,29.865-7.285,49.325,17.945C1954.086,1258.662,1960.52,1254.258,1958.39,1250.727z"/><path fill="#092C3D" d="M2057.105,1273.88c-17.074-28.278-36.392-24.941-39.839-23.814
				c-14.932,4.883-15.345,13.053-13.791,13.804c1.556,0.749,29.867-7.287,49.324,17.944
				C2052.8,1281.813,2059.236,1277.41,2057.105,1273.88z"/></g><path fill="#F9C6A0" d="M1540.478,2084.815c33.957-128.255,403.897-576.521,417.176-576.521c13.279,0,66.394,42.049,66.394,42.049
			s-271.109,592.014-346.356,627.424C1602.446,2213.177,1522.315,2153.418,1540.478,2084.815z"/><g><path fill="#F9C6A0" d="M2089.253,1469.177c-0.365-5.02-6.578-10.318-9.781-10.327c-3.072-0.008-6,1.115-6,1.115
					s2.616-5.366,1.609-8.767c-0.793-2.681-11.714-9.842-13.837-9.804c-3.68,0.065-8.002,4.169-8.002,4.169s2.885-6.736,1.839-9.916
					c-0.876-2.665-14.248-10.773-16.903-10.748c-5.042,0.048-10.047,6.664-10.047,6.664s23.596-38.851,22.801-41.369
					c-1.147-3.64-19.69-4.728-19.69-4.728s-47.338,64.836-50.902,71.927c-4.454,2.353-22.777-29.88-29.878-31.537
					c-8.299-1.937-10.932,0.46-12.172,4.979c-2.211,8.057,16.915,48.868,16.945,55.329c0.054,11.654,3.168,20.462,7.238,25.509
					c-8.357,12.9-19.906,33.039-19.906,33.039l64.527,38.195l20.314-28.068l45.797-51.847
					C2073.205,1502.992,2089.918,1478.361,2089.253,1469.177z"/><path fill="#F89A6D" d="M1971.127,1472.827c-0.664-0.393,3.255-8.241,8.753-17.528c5.497-9.287,10.492-16.498,11.156-16.106
					c0.664,0.393-3.255,8.242-8.752,17.529C1976.786,1466.01,1971.792,1473.22,1971.127,1472.827z"/><path fill="#F89A6D" d="M2022.351,1441.703c-0.664-0.393-0.012-2.723,1.455-5.202c1.468-2.48,3.197-4.172,3.861-3.779
					c0.664,0.393,0.012,2.722-1.457,5.202C2024.743,1440.404,2023.015,1442.097,2022.351,1441.703z"/><path fill="#F89A6D" d="M2046.043,1457.708c-0.664-0.393,0.182-3.051,1.891-5.936c1.707-2.885,3.63-4.905,4.294-4.512
					c0.664,0.393-0.182,3.05-1.89,5.935C2048.63,1456.08,2046.708,1458.101,2046.043,1457.708z"/><path fill="#F89A6D" d="M2066.212,1470.884c-0.615-0.466,0.419-2.872,2.311-5.374c1.892-2.503,3.924-4.154,4.539-3.689
					c0.615,0.465-0.419,2.871-2.311,5.374C2068.861,1469.697,2066.829,1471.349,2066.212,1470.884z"/></g></g><g><path fill="#023B5F" d="M1356.458,2242.987h758.935c7.228,0,13.89-5.858,14.881-13.087l63.944-466.181
				c0.991-7.228-4.064-13.088-11.292-13.088h-758.934c-7.229,0-13.891,5.86-14.882,13.088l-63.944,466.181
				C1344.176,2237.129,1349.231,2242.987,1356.458,2242.987z"/><path fill="#092C3D" d="M1383.754,2252.226h773.177c7.364,0,14.151-5.968,15.161-13.332l65.144-474.928
				c1.01-7.364-4.141-13.334-11.504-13.334h-773.176c-7.364,0-14.151,5.969-15.161,13.334l-65.144,474.928
				C1371.241,2246.257,1376.392,2252.226,1383.754,2252.226z"/><path fill="#E2CC49" d="M1869.127,1925.287c-14.103,20.428-41.798,30.412-64.762,22.429c-24.602-8.553-34.224-34.66-21.459-58.24
				c12.764-23.579,43.125-35.788,67.729-27.235c6.048,2.103,11.253,5.313,15.363,9.195c-15.964-4.034-34.554,3.98-42.637,18.913
				c-8.563,15.819-2.15,33.223,14.355,38.96C1847.967,1932.874,1859.701,1931,1869.127,1925.287z"/><path fill="#023B5F" d="M1837.318,2130.111h-92.078c-10.47,0-17.97,8.487-16.753,18.957l25.823,222.071
			c1.217,10.47,10.692,18.958,21.161,18.958h92.078c10.47,0,17.97-8.487,16.752-18.958l-25.822-222.071
			C1857.263,2138.598,1847.788,2130.111,1837.318,2130.111z"/><path fill="#092C3D" d="M1945.489,2348.178h-256.525c-25.052,0-45.361,23.163-45.361,51.735h347.248
			C1990.851,2371.341,1970.542,2348.178,1945.489,2348.178z"/></g><g><path fill="#F9C6A0" d="M1681.413,1668.705c20.792,3.307,24.127-17.858,24.127-17.858l18.208-37.98l77.634,39.55
			c0,0,23.26-9.07,17.582-20.426c-2.599-5.197-14.22-12.669-14.22-12.669l23.011,6.464c0,0,28.493-10.653,20.426-18.874
			c-3.859-3.932-21.294-17.12-21.294-17.12l24.139,13.242c0,0,13.005-16.581,10.343-19.909c-7.24-9.049-20.943-23.787-20.943-23.787
			l21.719,12.669c0,0,13.03-19.241,0.296-28.583c-15.247-11.186-42.572-30.965-72.174-33.728
			c-71.528-6.678-101.871,39.559-101.871,39.559S1657.52,1606.875,1681.413,1668.705z"/><path fill="#F89A6D" d="M1775.139,1599.865c0.731-1.138,4.877,0.112,16.191,7.392c11.313,7.281,19.893,14.104,19.16,15.241
			c-0.732,1.139-10.497-3.842-21.811-11.123C1777.366,1604.095,1774.406,1601.002,1775.139,1599.865z"/><path fill="#F89A6D" d="M1797.662,1568.181c0.783-1.103,10.665,4.565,22.073,12.66c11.408,8.095,20.021,15.552,19.238,16.656
			c-0.783,1.102-10.666-4.566-22.073-12.662C1805.493,1576.74,1796.879,1569.284,1797.662,1568.181z"/><path fill="#F89A6D" d="M1823.376,1548.864c0.751-1.126,8.443,2.686,17.181,8.513c8.739,5.827,15.214,11.462,14.463,12.587
			c-0.751,1.126-8.442-2.685-17.181-8.512C1829.102,1555.625,1822.626,1549.99,1823.376,1548.864z"/></g><path fill="#EAEEEF" d="M1534.843,2458.829c-463.045,0-1050.186-233.48-1050.186-233.48s142.057,557.503,1083.06,557.503
		c830.197,0,1017.313-557.503,1017.313-557.503S1966.458,2458.829,1534.843,2458.829z"/><path fill="#BFDADF" d="M2531.799,2202.061
		c-300.045,146.935-840.86,229.033-1284.564,166.542c-447.29-43.01-797.47-230.609-799.07-173.206
		c-3.963,60.605,149.777,176.082,369.864,256.153c218.965,83.098,504.278,130.79,737.564,125.756
		c550.471-7.301,871.527-218.026,891.285-221.173C2623.566,2262.471,2690.957,2128.967,2531.799,2202.061z"/></svg>