<svg xmlns="http://www.w3.org/2000/svg" data-name="Layer 1" viewBox="0 0 3000 3000"><g data-name="Todo list"><path fill="#eef1f8" d="M842.45438,2539.9551S-10.3314,2106.2095,237.75479,1449.8282,1529.8559,410.98,2139.7279,462.6814s679.6416,701.3544,565.4204,987.1468-510.6324,1090.1269-510.6324,1090.1269Z" data-name="Path 14449"/><g data-name="Group 12765"><g data-name="Group 12399"><path fill="#3fd5e4" d="M940.61488,2537.9122s-145.9194,54.3623-238.4165-236.5226C626.852,2064.867,486.983,1946.04,486.983,1946.04s201.01458,5.1379,330.13418,165.8003,145.1907,223.9553,145.1907,223.9553Z" data-name="Path 13568"/><path fill="#29c6d9" d="M940.61488,2537.9122s-145.9194,54.3623-238.4165-236.5226C626.852,2064.867,486.983,1946.04,486.983,1946.04s202.69448,152.9789,299.03078,401.6996c8.0419,19.2753,21.0588,23.8128,29.718,2.7768,21.29-51.6781,46.9265-179.9549,50.6331-174.9503,84.1156,113.6317,95.95012,160.2238,95.95012,160.2238Z" data-name="Path 13569"/><path fill="none" stroke="#21b0c4" stroke-width="1.5" d="M937.73968,2461.977c0-12.3133-123.2552-283.5537-328.8699-445.8785" data-name="Path 13570"/></g><g data-name="Group 12400"><path fill="#22afcd" d="M1002.6498,2417.4747S797.138,2287.1655,806.27628,2017.4205s-11.43-354.3454-61.7291-425.2178c98.3051,9.144,294.90832,329.199,294.90832,329.199Z" data-name="Path 13571"/><path fill="#149ec3" d="M1002.6498,2417.4743S797.138,2287.1652,806.27628,2017.4201c0,0,164.7444,68.2055,131.5734-245.2106,56.87379,76.3738,101.60162,149.1975,101.60162,149.1975Z" data-name="Path 13572"/><path fill="none" stroke="#0c87a8" stroke-width="1.5" d="M985.10028,2305.9038s-63.3048-404.9263-130.1302-561.4382" data-name="Path 13573"/></g></g><g data-name="Group 12764"><rect width="1085.284" height="1575.971" x="926.991" y="965.999" fill="#111d5e" data-name="Rectangle 2280"/><g data-name="Group 12763"><g data-name="Group 12762"><path fill="#fff" d="M1013.5832,1035.2727h730.6214l181.4792,162.9543V2461.1515H1013.5832Z" data-name="Path 14435"/><path fill="#d2dde1" d="M1744.2046,1167.585c-2.8229-13.9066,0-132.3123,0-132.3123l181.4792,162.9543s-125.0964,3.9312-148.3607,0S1747.0275,1181.4859,1744.2046,1167.585Z" data-name="Path 14436"/></g><g data-name="Group 12758"><path fill="#9acf40" d="M1219.8335,1437.5841h-87.1403a13.35254,13.35254,0,0,1-13.3409-13.3409v-87.1403a13.35254,13.35254,0,0,1,13.3409-13.3409h87.1692a13.35254,13.35254,0,0,1,13.3409,13.3409v87.1691A13.35246,13.35246,0,0,1,1219.8335,1437.5841Zm-87.1403-104.932a4.4508,4.4508,0,0,0-4.445,4.4451v87.1691a4.45078,4.45078,0,0,0,4.445,4.445h87.1692a4.45078,4.45078,0,0,0,4.445-4.445v-87.1634a4.45078,4.45078,0,0,0-4.445-4.445Zm82.4528,24.7537-6.6272-5.9344-41.1196,45.9225-23.8647-22.687-6.1249,6.4482,30.5034,28.9967Z" data-name="checkbox"/><g data-name="Group 12757"><rect width="392.55" height="11.546" x="1313.768" y="1318.139" fill="#c8cdcf" data-name="Rectangle 2282"/><rect width="508.005" height="11.546" x="1313.768" y="1375.867" fill="#c8cdcf" data-name="Rectangle 2283"/><rect width="277.094" height="11.546" x="1313.768" y="1433.595" fill="#c8cdcf" data-name="Rectangle 2284"/></g></g><g data-name="Group 12759"><path fill="#9acf40" d="M1219.8335,1731.9963h-87.1403a13.35254,13.35254,0,0,1-13.3409-13.3409v-87.1403a13.35254,13.35254,0,0,1,13.3409-13.3409h87.1692a13.35254,13.35254,0,0,1,13.3409,13.3409v87.1692A13.35244,13.35244,0,0,1,1219.8335,1731.9963Zm-87.1403-104.932a4.45087,4.45087,0,0,0-4.445,4.4451v87.1691a4.45078,4.45078,0,0,0,4.445,4.445h87.1692a4.45078,4.45078,0,0,0,4.445-4.445v-87.1634a4.45078,4.45078,0,0,0-4.445-4.445Zm82.4528,24.7537-6.6272-5.9344-41.1196,45.9226-23.8647-22.6871-6.1249,6.4482,30.5034,28.9967Z" data-name="checkbox-2"/><g data-name="Group 12757-2"><rect width="392.55" height="11.546" x="1313.768" y="1612.552" fill="#c8cdcf" data-name="Rectangle 2282-2"/><rect width="508.005" height="11.546" x="1313.768" y="1670.279" fill="#c8cdcf" data-name="Rectangle 2283-2"/><rect width="277.094" height="11.546" x="1313.768" y="1728.007" fill="#c8cdcf" data-name="Rectangle 2284-2"/></g></g><g data-name="Group 12760"><path fill="#9acf40" d="M1219.8335,2026.4085h-87.1403a13.35241,13.35241,0,0,1-13.3409-13.3409v-87.1402a13.35241,13.35241,0,0,1,13.3409-13.3409h87.1692a13.35241,13.35241,0,0,1,13.3409,13.3409v87.1691A13.35244,13.35244,0,0,1,1219.8335,2026.4085Zm-87.1403-104.932a4.45087,4.45087,0,0,0-4.445,4.4451v87.1691a4.45072,4.45072,0,0,0,4.445,4.445h87.1692a4.45072,4.45072,0,0,0,4.445-4.445v-87.1633a4.45087,4.45087,0,0,0-4.445-4.4451Zm82.4528,24.7538-6.6272-5.9345-41.1196,45.9226-23.8647-22.6871-6.1249,6.4482,30.5034,28.9967Z" data-name="checkbox-3"/><g data-name="Group 12757-3"><rect width="392.55" height="11.546" x="1313.768" y="1906.964" fill="#c8cdcf" data-name="Rectangle 2282-3"/><rect width="508.005" height="11.546" x="1313.768" y="1964.692" fill="#c8cdcf" data-name="Rectangle 2283-3"/><rect width="277.094" height="11.546" x="1313.768" y="2022.419" fill="#c8cdcf" data-name="Rectangle 2284-3"/></g></g><g data-name="Group 12761"><g data-name="Rectangle 2285"><rect width="115.456" height="115.456" x="1117.493" y="2207.149" fill="none" rx="17.318"/><rect width="106.796" height="106.796" x="1121.823" y="2211.478" fill="none" stroke="#c8cdcf" stroke-width="1.5" rx="12.989"/></g><g data-name="Group 12757-4"><rect width="392.55" height="11.546" x="1313.768" y="2201.376" fill="#c8cdcf" data-name="Rectangle 2282-4"/><rect width="508.005" height="11.546" x="1313.768" y="2259.104" fill="#c8cdcf" data-name="Rectangle 2283-4"/><rect width="277.094" height="11.546" x="1313.768" y="2316.832" fill="#c8cdcf" data-name="Rectangle 2284-4"/></g></g></g><path fill="#ff5b98" d="M1267.5859,914.0441h404.0952a34.6367,34.6367,0,0,1,34.6367,34.6367v86.5919a34.6367,34.6367,0,0,1-34.6367,34.6367H1267.5859a34.6368,34.6368,0,0,1-34.6368-34.6368V948.6809A34.6368,34.6368,0,0,1,1267.5859,914.0441Z" data-name="Rectangle 2281"/></g><g data-name="Group 12766"><path fill="#fff" d="M2366.0787,1662.6998s-40.4095-9.3286-87.071,32.651-240.9913,259.6486-240.9913,259.6486a1010.24815,1010.24815,0,0,1-102.6108-37.3153c-63.7487-26.4334-93.2877,29.5391-54.4201,57.5257s122.8212,115.0576,157.0196,110.3933,163.2546-130.6037,163.2546-130.6037,26.4342,82.4011,0,161.6959c-26.4342,79.2941-76.2005,265.8653-40.4095,276.7471-6.772,26.8951-35.2893,141.8956-35.2893,141.8956s326.0822,7.4062,484.6719-57.8956c0-79.2955-7.7756-261.2074-73.0718-408.9096-27.3277-55.9958,20.0836-156.477,20.0836-156.477l129.1887,92.7395s-105.7227,132.1562-91.7361,178.8a72.83133,72.83133,0,0,0,54.4201,52.8614s183.4594-191.3272,155.4792-281.458-205.2399-293.8351-320.2855-303.1405Z" data-name="Path 14441"/><path fill="#30394b" d="M2213.0181,2041.1233a241.75414,241.75414,0,0,1-11.7415,75.5713c-26.4342,79.2948-76.2005,265.866-40.4095,276.7478-6.772,26.8951-35.2893,141.8956-35.2893,141.8956s326.0823,7.4062,484.6719-57.8956c0-79.2955-7.7755-261.2074-73.0718-408.9096a90.75922,90.75922,0,0,1-8.1278-32.5699C2462.3332,2065.2884,2288.2152,2088.61,2213.0181,2041.1233Z" data-name="Path 14446"/><path fill="#ffd0a6" d="M2596.5844,2183.9026s-7.9601,32.2013-23.9199,32.2013-116.8144-43.4566-123.2806,10.1193,26.7443,82.7978,56.1832,90.1604,5.5191-39.5611,28.5201-41.3961,46.8588,36.8015,62.4972,0a202.09059,202.09059,0,0,1,37.7204-58.8836Z" data-name="Path 14447"/><path fill="#9d62c2" d="M2603.7327,2345.9846c-8.0813-83.1741-26.4849-186.7615-66.5773-277.4518-27.3277-55.9958,20.0835-156.477,20.0835-156.477l129.1887,92.7395s-105.7226,132.1562-91.736,178.8a72.83118,72.83118,0,0,0,54.4201,52.8614s183.4594-191.3272,155.4791-281.458c-23.5351-75.8024-152.6434-231.9101-262.8183-285.8052-8.4393-4.133-99.8695,142.9167-122.6196,303.0714-28.7146,202.2386-44.3064,287.3689,0,429.4082C2419.1529,2401.6633,2531.5264,2395.6819,2603.7327,2345.9846Z" data-name="Path 14443"/><path fill="#4a176a" d="M2537.1554,2068.5328c-27.3277-55.9958,20.0835-156.477,20.0835-156.477s-8.4858-11.1587-14.8815-41.3735C2533.9167,1866.5542,2482.5563,2017.801,2537.1554,2068.5328Z" data-name="Path 14444"/><g data-name="Group 12768"><path fill="#fa6ef1" d="M1744.2997,1718.2803h0a8.66272,8.66272,0,0,1,12.1316,1.7058l69.5043,92.2492a8.6626,8.6626,0,0,1-1.7058,12.1315h0a8.6626,8.6626,0,0,1-12.1315-1.7059l-69.5044-92.2491A8.66267,8.66267,0,0,1,1744.2997,1718.2803Z" data-name="Rectangle 2286"/><path fill="#ffd0a6" d="M1866.9919,1937.3576s-39.4977-17.1683-40.5829-57.451-38.1003-57.7279-34.839-66.9642c3.262-9.2363,29.9428,2.7187,45.7264,23.409s23.4139,2.1761,20.1413-18.5079-27.7618-22.323-48.4514-28.8639-7.6148-19.6276,33.7531-3.2677,45.1774,23.9516,43.0013,56.6138,4.3522,67.5012,8.7114,77.846Z" data-name="Path 14448"/></g><path fill="#9d62c2" d="M2323.0365,1667.9702a133.61957,133.61957,0,0,0-44.0231,27.3918c-46.6446,41.9796-240.9914,259.6487-240.9914,259.6487a1010.25691,1010.25691,0,0,1-102.6108-37.3153c-63.7487-26.4335-93.2877,29.5391-54.42,57.5257s122.8211,115.0576,157.0195,110.3933,163.2547-130.6037,163.2547-130.6037,26.4341,82.401,0,161.6958c-26.4342,79.2941-76.2006,265.8654-40.4096,276.7472,17.4861,5.0568,52.6655,8.8903,62.5719-159.6227,4.6932-88.2549-4.4973-311.3381,5.8884-370.3013C2250.7667,1726.1314,2349.21,1658.8085,2323.0365,1667.9702Z" data-name="Path 14445"/><path fill="#4a176a" d="M2225.99,1793.9385c-69.0085,103.0328-128.5827,254.2338-128.5827,254.2338,46.9617-37.6443,103.8637-93.1729,103.8637-93.1729S2186.4233,1883.1686,2225.99,1793.9385Z" data-name="Path 14442"/></g><g data-name="Group 12769"><path fill="#ffd0a6" d="M2392.372,1580.9168v53.8211s-9.5668,27.5081-37.0778,32.2943c-8.3716,37.0722-33.481,121.9897-33.481,121.9897s159.0617-130.3613,172.2196-137.5379c-25.115-31.0992-17.9385-101.658-17.9385-101.658Z" data-name="Path 14439"/><path fill="#f2ae71" d="M2392.372,1580.9168v53.8211s32.3254,11.0833,83.4461-43.0873a259.00911,259.00911,0,0,1,.2706-41.8246Z" data-name="Path 14440"/></g><g data-name="Group 12767"><path fill="#ffd0a6" d="M2267.0619,1367.7577s-12.8817,222.6329,76.3598,238.2769,203.3273-74.522,217.1222-117.7643-69.0028-160.0793-164.6823-165.5984S2267.0619,1367.7577,2267.0619,1367.7577Z" data-name="Path 14438"/><path fill="#1e2633" d="M2274.7232,1445.6762s-73.5692-168.1606,49.9256-160.2822c115.6137-89.3401,278.5202-34.1576,281.136,120.8706s-75.6551,214.5797-128.7321,183.9315c-39.795-27.6181.6709-71.7906,40.3024-81.6957s29.0105-65.8092-16.9857-49.5366-149.3146-45.2944-163.4703-121.0143C2266.8533,1343.6095,2274.7232,1445.6762,2274.7232,1445.6762Z" data-name="Path 14437"/></g></g></svg>