<svg xmlns="http://www.w3.org/2000/svg" enable-background="new 0 0 3200 2300" viewBox="0 0 3200 2300"><rect width="3134.4" height="2199.1" x="32.8" y="50.4" fill="none"/><g opacity=".49"><ellipse cx="1884.4" cy="1995.8" fill="#0f0a26" opacity="0" rx="154.8" ry="320.9" transform="rotate(-86.486 1884.384 1995.763) scale(.99998)"/><ellipse cx="1885.1" cy="1994.1" fill="#0f0a26" opacity=".02" rx="152.8" ry="316.9" transform="matrix(.06137 -.9981 .9981 .06137 -220.9 3753.347)"/><ellipse cx="1885.9" cy="1992.5" fill="#0f0a26" opacity=".039" rx="150.8" ry="312.9" transform="rotate(-86.478 1885.916 1992.483) scale(.99999)"/><ellipse cx="1886.7" cy="1990.8" fill="#0f0a26" opacity=".059" rx="148.7" ry="308.9" transform="rotate(-86.474 1886.695 1990.852)"/><ellipse cx="1887.4" cy="1989.2" fill="#0f0a26" opacity=".078" rx="146.7" ry="304.9" transform="rotate(-86.469 1887.449 1989.202)"/><ellipse cx="1888.2" cy="1987.6" fill="#0f0a26" opacity=".098" rx="144.7" ry="300.8" transform="rotate(-86.465 1888.21 1987.55)"/><ellipse cx="1889" cy="1985.9" fill="#0f0a26" opacity=".118" rx="142.6" ry="296.8" transform="rotate(-86.46 1888.98 1985.92) scale(1.00001)"/><ellipse cx="1889.7" cy="1984.3" fill="#0f0a26" opacity=".137" rx="140.6" ry="292.8" transform="matrix(.06182 -.9981 .9981 .06182 -207.55 3747.742)"/><ellipse cx="1890.5" cy="1982.6" fill="#0f0a26" opacity=".157" rx="138.6" ry="288.8" transform="rotate(-86.451 1890.513 1982.636) scale(1.00002)"/><ellipse cx="1891.3" cy="1981" fill="#0f0a26" opacity=".176" rx="136.6" ry="284.8" transform="matrix(.06199 -.9981 .9981 .06199 -203.131 3745.84)"/><ellipse cx="1892" cy="1979.3" fill="#0f0a26" opacity=".196" rx="134.5" ry="280.8" transform="rotate(-86.441 1892.045 1979.351) scale(1.00003)"/><ellipse cx="1892.8" cy="1977.7" fill="#0f0a26" opacity=".216" rx="132.5" ry="276.8" transform="matrix(.06216 -.9981 .9981 .06216 -198.729 3743.921)"/><ellipse cx="1893.6" cy="1976.1" fill="#0f0a26" opacity=".235" rx="130.5" ry="272.8" transform="rotate(-86.431 1893.578 1976.065) scale(1.00004)"/><ellipse cx="1894.3" cy="1974.4" fill="#0f0a26" opacity=".255" rx="128.4" ry="268.8" transform="matrix(.06235 -.9981 .9981 .06235 -194.345 3741.981)"/><ellipse cx="1895.1" cy="1972.8" fill="#0f0a26" opacity=".275" rx="126.4" ry="264.8" transform="rotate(-86.42 1895.122 1972.778) scale(.99995)"/><ellipse cx="1895.9" cy="1971.1" fill="#0f0a26" opacity=".294" rx="124.4" ry="260.8" transform="rotate(-86.414 1895.888 1971.144) scale(.99996)"/><ellipse cx="1896.6" cy="1969.5" fill="#0f0a26" opacity=".314" rx="122.3" ry="256.8" transform="matrix(.06265 -.998 .998 .06265 -187.808 3739.03)"/><ellipse cx="1897.4" cy="1967.9" fill="#0f0a26" opacity=".333" rx="120.3" ry="252.8" transform="rotate(-86.402 1897.42 1967.854) scale(.99997)"/><ellipse cx="1898.2" cy="1966.2" fill="#0f0a26" opacity=".353" rx="118.3" ry="248.8" transform="rotate(-86.395 1898.186 1966.219) scale(.99998)"/><ellipse cx="1898.9" cy="1964.6" fill="#0f0a26" opacity=".372" rx="116.3" ry="244.8" transform="matrix(.06298 -.998 .998 .06298 -181.323 3736.02)"/><ellipse cx="1899.7" cy="1962.9" fill="#0f0a26" opacity=".392" rx="114.2" ry="240.8" transform="rotate(-86.382 1899.731 1962.946)"/><ellipse cx="1900.5" cy="1961.3" fill="#0f0a26" opacity=".412" rx="112.2" ry="236.8" transform="rotate(-86.375 1900.483 1961.29)"/><ellipse cx="1901.3" cy="1959.6" fill="#0f0a26" opacity=".431" rx="110.2" ry="232.8" transform="rotate(-86.368 1901.249 1959.652) scale(1.00001)"/><ellipse cx="1902" cy="1958" fill="#0f0a26" opacity=".451" rx="108.1" ry="228.8" transform="matrix(.06347 -.998 .998 .06347 -172.77 3731.905)"/><ellipse cx="1902.8" cy="1956.4" fill="#0f0a26" opacity=".471" rx="106.1" ry="224.7" transform="rotate(-86.354 1902.767 1956.316)"/><ellipse cx="1903.6" cy="1954.7" fill="#0f0a26" opacity=".49" rx="104.1" ry="220.7" transform="matrix(.06375 -.998 .998 .06375 -168.542 3729.797)"/><ellipse cx="1904.3" cy="1953.1" fill="#0f0a26" opacity=".51" rx="102.1" ry="216.7" transform="matrix(.06389 -.998 .998 .06389 -166.44 3728.728)"/><ellipse cx="1905.1" cy="1951.4" fill="#0f0a26" opacity=".529" rx="100" ry="212.7" transform="matrix(.06404 -.9979 .9979 .06404 -164.348 3727.65)"/><ellipse cx="1905.9" cy="1949.8" fill="#0f0a26" opacity=".549" rx="98" ry="208.7" transform="rotate(-86.319 1905.855 1949.794) scale(.99996)"/><ellipse cx="1906.6" cy="1948.2" fill="#0f0a26" opacity=".569" rx="96" ry="204.7" transform="rotate(-86.31 1906.616 1948.152) scale(.99997)"/><ellipse cx="1907.4" cy="1946.5" fill="#0f0a26" opacity=".588" rx="93.9" ry="200.7" transform="matrix(.06452 -.9979 .9979 .06452 -158.133 3724.345)"/><ellipse cx="1908.2" cy="1944.9" fill="#0f0a26" opacity=".608" rx="91.9" ry="196.7" transform="rotate(-86.291 1908.162 1944.885)"/><ellipse cx="1908.9" cy="1943.2" fill="#0f0a26" opacity=".627" rx="89.9" ry="192.7" transform="rotate(-86.281 1908.905 1943.22)"/><ellipse cx="1909.7" cy="1941.6" fill="#0f0a26" opacity=".647" rx="87.8" ry="188.7" transform="rotate(-86.27 1909.682 1941.595) scale(1.00002)"/><ellipse cx="1910.5" cy="1939.9" fill="#0f0a26" opacity=".667" rx="85.8" ry="184.7" transform="rotate(-86.259 1910.447 1939.948) scale(1.00003)"/><ellipse cx="1911.2" cy="1938.3" fill="#0f0a26" opacity=".686" rx="83.8" ry="180.7" transform="matrix(.06545 -.9979 .9979 .06545 -148.021 3718.568)"/><ellipse cx="1912" cy="1936.7" fill="#0f0a26" opacity=".706" rx="81.8" ry="176.7" transform="rotate(-86.235 1911.99 1936.67) scale(.99996)"/><ellipse cx="1912.8" cy="1935" fill="#0f0a26" opacity=".726" rx="79.7" ry="172.7" transform="rotate(-86.223 1912.755 1935.02) scale(.99997)"/><ellipse cx="1913.5" cy="1933.4" fill="#0f0a26" opacity=".745" rx="77.7" ry="168.7" transform="rotate(-86.209 1913.52 1933.388) scale(.99999)"/><ellipse cx="1914.3" cy="1931.7" fill="#0f0a26" opacity=".765" rx="75.7" ry="164.7" transform="rotate(-86.196 1914.277 1931.734)"/><ellipse cx="1915.1" cy="1930.1" fill="#0f0a26" opacity=".784" rx="73.6" ry="160.7" transform="rotate(-86.181 1915.049 1930.099) scale(1.00002)"/><ellipse cx="1915.8" cy="1928.5" fill="#0f0a26" opacity=".804" rx="71.6" ry="156.7" transform="rotate(-86.166 1915.813 1928.462) scale(1.00004)"/><ellipse cx="1916.6" cy="1926.8" fill="#0f0a26" opacity=".824" rx="69.6" ry="152.7" transform="rotate(-86.15 1916.597 1926.823) scale(.99996)"/><ellipse cx="1917.4" cy="1925.2" fill="#0f0a26" opacity=".843" rx="67.5" ry="148.7" transform="rotate(-86.133 1917.362 1925.181) scale(.99998)"/><ellipse cx="1918.1" cy="1923.5" fill="#0f0a26" opacity=".863" rx="65.5" ry="144.6" transform="rotate(-86.116 1918.125 1923.539)"/><ellipse cx="1918.9" cy="1921.9" fill="#0f0a26" opacity=".882" rx="63.5" ry="140.6" transform="rotate(-86.097 1918.883 1921.894) scale(1.00002)"/><ellipse cx="1919.7" cy="1920.3" fill="#0f0a26" opacity=".902" rx="61.5" ry="136.6" transform="rotate(-86.078 1919.646 1920.245) scale(1.00004)"/><ellipse cx="1920.4" cy="1918.6" fill="#0f0a26" opacity=".922" rx="59.4" ry="132.6" transform="rotate(-86.057 1920.433 1918.614) scale(.99997)"/><ellipse cx="1921.2" cy="1917" fill="#0f0a26" opacity=".941" rx="57.4" ry="128.6" transform="rotate(-86.035 1921.199 1916.98)"/><ellipse cx="1922" cy="1915.3" fill="#0f0a26" opacity=".961" rx="55.4" ry="124.6" transform="rotate(-86.012 1921.95 1915.322) scale(1.00002)"/><ellipse cx="1922.7" cy="1913.7" fill="#0f0a26" opacity=".98" rx="53.3" ry="120.6" transform="rotate(-85.987 1922.726 1913.68) scale(.99995)"/><ellipse cx="1923.5" cy="1912" fill="#0f0a26" rx="51.3" ry="116.6" transform="matrix(.07044 -.9975 .9975 .07044 -119.292 3696.071)"/></g><linearGradient id="a" x1="1301.251" x2="1563.654" y1="1871.473" y2="1956.225" gradientTransform="rotate(13.344 4894.135 1542.67)" gradientUnits="userSpaceOnUse"><stop offset="0" stop-color="#22682e"/><stop offset="1" stop-color="#6df283"/></linearGradient><path fill="url(#a)" d="M1450.9,1352.6c0,0-91.3-27.5-124.3-193.2c-33.1-165.8,118-295.9,118-295.9s42,103.5,55.2,231.4
				C1512.9,1222.6,1450.9,1352.6,1450.9,1352.6z"/><linearGradient id="b" x1="1459.686" x2="1280.244" y1="1914.414" y2="1924.97" gradientTransform="rotate(13.344 4894.135 1542.67)" gradientUnits="userSpaceOnUse"><stop offset="0" stop-color="#22682e"/><stop offset="1" stop-color="#6df283"/></linearGradient><path fill="url(#b)" d="M1450.9,1352.6c0,0-91.3-27.5-124.3-193.2c-33.1-165.8,118-295.9,118-295.9S1340.6,1138.9,1450.9,1352.6z"/><linearGradient id="c" x1="882.674" x2="1354.305" y1="2004.009" y2="2156.337" gradientTransform="rotate(13.344 4894.135 1542.67)" gradientUnits="userSpaceOnUse"><stop offset="0" stop-color="#22682e"/><stop offset="1" stop-color="#6df283"/></linearGradient><path fill="url(#c)" d="M1329.8,1286.7c0,0-65.5,38.1-242.4-4.4c-176.8-42.5-232.3-168.6-232.3-168.6s109.4-70.6,269.2-11
				C1283.9,1162.2,1329.8,1286.7,1329.8,1286.7z"/><linearGradient id="d" x1="1135.296" x2="1081.88" y1="2043.126" y2="2166.534" gradientTransform="rotate(13.344 4894.135 1542.67)" gradientUnits="userSpaceOnUse"><stop offset="0" stop-color="#22682e"/><stop offset="1" stop-color="#6df283"/></linearGradient><path fill="url(#d)" d="M1329.8,1286.7c0,0-65.5,38.1-242.4-4.4c-176.8-42.5-232.3-168.6-232.3-168.6S1182.5,1142.8,1329.8,1286.7z
				"/><g><linearGradient id="e" x1="1126.44" x2="1496.593" y1="2209.215" y2="2328.767" gradientTransform="rotate(13.344 4894.135 1542.67)" gradientUnits="userSpaceOnUse"><stop offset="0" stop-color="#22682e"/><stop offset="1" stop-color="#6df283"/></linearGradient><path fill="url(#e)" d="M1474.8,1400.2c-0.2,0.9-34.8,145.4-226.7,126.5c-192.5-19-243.7-90.4-243.7-90.4s28.1-51.2,181-97.2
				C1338.3,1293,1474.8,1400.2,1474.8,1400.2z"/><linearGradient id="f" x1="1356.815" x2="1262.334" y1="2169.87" y2="2388.154" gradientTransform="rotate(13.344 4894.135 1542.67)" gradientUnits="userSpaceOnUse"><stop offset="0" stop-color="#22682e"/><stop offset="1" stop-color="#6df283"/></linearGradient><path fill="url(#f)" d="M1474.8,1400.2c-0.2,0.9-34.8,145.4-226.7,126.5c-192.5-19-243.7-90.4-243.7-90.4
				C1230.6,1351.7,1474.8,1400.2,1474.8,1400.2z"/></g><g><path fill="#006837" d="M1407.8,1023.7c-1.7,8.4-3,16.9-4.1,25.4c-1.1,8.5-2.1,17-2.8,25.6c-1.5,17.1-2.3,34.2-2.3,51.4
				c-0.1,34.3,2.8,68.5,9.5,102c6.7,33.5,17.4,66.1,33.1,96.2c3.9,7.5,8.2,14.8,12.7,22c4.5,7.2,9.4,14,14.6,20.7
				c5.1,6.7,10.7,13.1,16.4,19.2c5.7,6.2,11.9,11.9,18.3,17.6l9.5,8.5c3.2,2.8,6.6,5.4,9.8,8.1l4.9,4c1.7,1.3,3.2,2.7,5,4l10.2,7.6
				l5.1,3.8c1.7,1.2,3.5,2.4,5.3,3.6l10.5,7.1c0.9,0.6,1.7,1.2,2.6,1.8l2.7,1.6l5.4,3.3l5.4,3.3c1.8,1.1,3.6,2.2,5.5,3.2
				c7.5,4,14.8,8.3,22.4,11.8l5.7,2.8c1.9,0.9,3.8,1.9,5.7,2.7l11.6,5c3.8,1.7,7.8,3.1,11.8,4.6l5.9,2.2c1,0.4,2,0.8,3,1.1l3,1
				l12,3.9c4,1.2,8.1,2.3,12.2,3.4c16.3,4.3,32.8,7.7,49.4,9.9c16.7,2.2,33.5,3.3,50.2,3.2c16.8,0,33.6-1.1,50.1-3.4
				c8.3-1.1,16.5-2.6,24.6-4.3c4.1-0.9,8.1-1.8,12.1-2.9c2-0.5,4-1.1,5.9-1.6c1-0.3,1.9-0.6,2.9-0.9c0.5-0.1,1-0.3,1.4-0.5l1.3-0.4
				l7,20.1l-1.8,0.6c-0.6,0.2-1.1,0.3-1.7,0.5c-1.1,0.3-2.2,0.6-3.3,0.9c-2.2,0.6-4.4,1.1-6.5,1.7c-4.4,1-8.7,2-13.1,2.8
				c-8.7,1.6-17.5,3-26.3,4c-17.6,2-35.2,2.7-52.8,2.3c-17.6-0.4-35.2-2-52.6-4.7c-17.4-2.7-34.5-6.7-51.4-11.6
				c-4.2-1.3-8.4-2.5-12.6-3.9l-12.4-4.4l-3.1-1.1c-1-0.4-2-0.8-3.1-1.2l-6.1-2.5c-4-1.7-8.2-3.2-12.1-5.1l-11.9-5.5
				c-2-0.9-3.9-2-5.9-2.9l-5.8-3c-7.9-3.8-15.3-8.4-22.9-12.7c-1.9-1.1-3.7-2.3-5.6-3.4l-5.5-3.5l-5.5-3.5l-2.8-1.8
				c-0.9-0.6-1.8-1.3-2.7-1.9l-10.7-7.6c-1.8-1.3-3.6-2.5-5.3-3.8l-5.2-4l-10.3-8.1c-1.7-1.3-3.3-2.8-5-4.2l-4.9-4.3
				c-3.3-2.9-6.6-5.7-9.9-8.5l-9.5-9c-6.3-5.9-12.7-12-18.5-18.6c-5.8-6.6-11.5-13.3-16.6-20.4c-5.2-7.1-10.1-14.3-14.6-21.8
				c-4.5-7.5-8.8-15.1-12.6-23c-15.4-31.3-25.5-65-31.5-99.1c-6-34.1-8-68.8-7.2-103.3c0.4-17.3,1.7-34.5,3.6-51.6
				c1-8.6,2.1-17.1,3.4-25.6c1.4-8.5,2.8-17,4.7-25.4L1407.8,1023.7z"/></g><g><path fill="#006837" d="M1066.4,1150.8c5.3,1.2,10.5,2.6,15.7,4.1l7.8,2.2l7.7,2.3c10.3,3.2,20.5,6.6,30.6,10.2
				c5.1,1.8,10.1,3.6,15.2,5.6l7.6,2.8l7.5,2.9c5,1.9,10,4,15,6c5,2,9.9,4.2,14.9,6.3c5,2.1,9.9,4.3,14.8,6.5
				c4.9,2.2,9.8,4.4,14.7,6.7c2.4,1.1,4.9,2.3,7.3,3.4l7.3,3.5c4.9,2.3,9.7,4.7,14.5,7.1c4.8,2.5,9.6,4.8,14.4,7.4l14.3,7.5
				c9.4,5.2,18.9,10.3,28.3,15.8c9.4,5.3,18.6,11,27.9,16.5c9.2,5.7,18.4,11.3,27.4,17.3c4.5,3,9.1,5.9,13.5,8.9l13.4,9.1
				c4.5,3,8.9,6.2,13.3,9.3c4.4,3.1,8.8,6.2,13.2,9.4c4.3,3.2,8.7,6.4,13,9.7c2.2,1.6,4.3,3.2,6.5,4.9l6.3,5.1
				c4.2,3.4,8.4,6.8,12.5,10.3c2.1,1.7,4.1,3.6,6.1,5.3c2,1.8,4.1,3.6,6.1,5.4c16.1,14.5,31.3,29.9,45,46.8l-9.8,10.6
				c-9.1-5.8-17.6-12.2-26.3-18.4c-8.6-6.2-17-12.7-25.5-19c-4.2-3.2-8.4-6.4-12.6-9.7c-4.2-3.2-8.5-6.4-12.6-9.6l-25.1-19.4
				c-4.2-3.2-8.5-6.4-12.7-9.5c-4.2-3.2-8.5-6.4-12.8-9.4l-12.9-9.3c-4.3-3.1-8.7-6.1-13-9.1l-6.5-4.5c-2.2-1.5-4.4-3-6.6-4.4
				l-13.2-8.9c-8.9-5.8-17.7-11.6-26.7-17.2c-17.9-11.4-36.1-22.3-54.5-32.9l-6.9-4l-6.9-3.9l-6.9-3.9c-2.3-1.3-4.7-2.5-7-3.8
				c-9.3-5.1-18.7-10.1-28.1-15c-9.4-4.9-19-9.6-28.5-14.3l-7.2-3.5l-7.2-3.4c-4.8-2.3-9.6-4.5-14.5-6.7
				c-9.7-4.4-19.4-8.8-29.2-12.9c-4.9-2.1-9.8-4.1-14.8-6.1c-4.9-2-9.9-3.9-14.9-5.8L1066.4,1150.8z"/></g><g><path fill="#006837" d="M1558.4,1463.7l-1.8-1.3c-0.6-0.5-1.3-0.9-2-1.4c-1.3-0.9-2.7-1.9-4.1-2.8c-2.8-1.8-5.6-3.6-8.4-5.4
				c-1.4-0.9-2.8-1.8-4.3-2.6c-1.4-0.8-2.9-1.7-4.3-2.5c-1.5-0.8-2.9-1.7-4.4-2.5l-4.4-2.4c-11.8-6.3-24.1-12-36.5-17.2
				c-24.9-10.4-50.7-18.8-77.2-25c-13.2-3.2-26.6-5.7-40.1-8l-10.1-1.5l-5.1-0.8l-5.1-0.6l-10.2-1.3c-3.4-0.4-6.8-0.7-10.2-1
				c-27.3-2.7-54.8-3.6-82.4-3.5l-0.1-1c27.4-3.9,55.2-5.6,83-5.2c3.5,0.1,7,0.1,10.4,0.2l10.4,0.5l5.2,0.2l5.2,0.4l10.4,0.9
				c3.5,0.3,6.9,0.8,10.4,1.1l5.2,0.6c1.7,0.2,3.5,0.5,5.2,0.7l10.4,1.5l10.3,1.8c13.8,2.6,27.5,5.6,41,9.5
				c13.5,3.9,26.9,8.4,39.9,13.8c6.5,2.7,13,5.6,19.3,8.7c1.6,0.7,3.2,1.6,4.7,2.4l4.7,2.4c1.6,0.8,3.1,1.7,4.6,2.6
				c1.5,0.9,3.1,1.7,4.6,2.6c6.2,3.5,12.1,7.4,17.9,11.5l2.2,1.5l2.1,1.6c1.4,1.1,2.8,2.2,4.3,3.3c1.4,1.1,2.8,2.3,4.2,3.5
				c0.7,0.6,1.4,1.2,2.1,1.8l1,0.9l1.1,1.1L1558.4,1463.7z"/></g><g><linearGradient id="g" x1="1450.063" x2="1561.049" y1="259.07" y2="259.07" gradientUnits="userSpaceOnUse"><stop offset="0" stop-color="#f58b21"/><stop offset="1" stop-color="#f5b419"/></linearGradient><path fill="url(#g)" d="M1498.5,196.9l-48.5,133.4h55.5h55.5l-48.5-133.4C1510.5,184.9,1500.6,184.9,1498.5,196.9z"/><linearGradient id="h" x1="1450.063" x2="1561.049" y1="2842.519" y2="2842.519" gradientTransform="matrix(1 0 0 -1 0 3675.963)" gradientUnits="userSpaceOnUse"><stop offset="0" stop-color="#f58b21"/><stop offset="1" stop-color="#f5b419"/></linearGradient><path fill="url(#h)" d="M1498.5,895.6l-48.5-133.4h55.5h55.5l-48.5,133.4C1510.5,907.6,1500.6,907.6,1498.5,895.6z"/><linearGradient id="i" x1="7499.775" x2="7610.761" y1="209.658" y2="209.658" gradientTransform="rotate(-134.999 4540.663 1774.503)" gradientUnits="userSpaceOnUse"><stop offset="0" stop-color="#f58b21"/><stop offset="1" stop-color="#f5b419"/></linearGradient><path fill="url(#i)" d="M1263.5,798.3l128.6-60l-39.2-39.2l-39.2-39.2l-60,128.6C1246.5,798.3,1253.5,805.3,1263.5,798.3z"/><linearGradient id="j" x1="7499.775" x2="7610.761" y1="2891.932" y2="2891.932" gradientTransform="scale(-1 1) rotate(-45 -153.286 12800.143)" gradientUnits="userSpaceOnUse"><stop offset="0" stop-color="#f58b21"/><stop offset="1" stop-color="#f5b419"/></linearGradient><path fill="url(#j)" d="M1757.6,304.2l-60,128.6l-39.2-39.2l-39.2-39.2l128.6-60C1757.6,287.2,1764.6,294.2,1757.6,304.2z"/><linearGradient id="k" x1="5762.807" x2="5873.792" y1="-1527.334" y2="-1527.334" gradientTransform="scale(-1 1) rotate(45 -.005 -9187.687)" gradientUnits="userSpaceOnUse"><stop offset="0" stop-color="#f58b21"/><stop offset="1" stop-color="#f5b419"/></linearGradient><path fill="url(#k)" d="M1263.5,294.2l128.6,60l-39.2,39.2l-39.2,39.2l-60-128.6C1246.5,294.2,1253.5,287.2,1263.5,294.2z"/><linearGradient id="l" x1="5762.807" x2="5873.792" y1="4628.923" y2="4628.923" gradientTransform="rotate(134.999 4566.95 1837.98)" gradientUnits="userSpaceOnUse"><stop offset="0" stop-color="#f58b21"/><stop offset="1" stop-color="#f5b419"/></linearGradient><path fill="url(#l)" d="M1757.6,788.3l-60-128.6l-39.2,39.2l-39.2,39.2l128.6,60C1757.6,805.3,1764.6,798.3,1757.6,788.3z"/><g><linearGradient id="m" x1="3256.924" x2="3367.909" y1="-1547.83" y2="-1547.83" gradientTransform="matrix(0 1 1 0 2766.147 -2766.117)" gradientUnits="userSpaceOnUse"><stop offset="0" stop-color="#f58b21"/><stop offset="1" stop-color="#f5b419"/></linearGradient><path fill="url(#m)" d="M1156.2,539.2l133.4-48.5l0,55.5l0,55.5l-133.4-48.5C1144.2,551.2,1144.2,541.3,1156.2,539.2z"/><linearGradient id="n" x1="3256.924" x2="3367.909" y1="4649.419" y2="4649.419" gradientTransform="rotate(90 4604.068 1837.971)" gradientUnits="userSpaceOnUse"><stop offset="0" stop-color="#f58b21"/><stop offset="1" stop-color="#f5b419"/></linearGradient><path fill="url(#n)" d="M1854.9,539.2l-133.4-48.5l0,55.5l0,55.5l133.4-48.5C1866.9,551.2,1866.9,541.3,1854.9,539.2z"/></g><g><linearGradient id="o" x1="2195.871" x2="2306.856" y1="-853.568" y2="-853.568" gradientTransform="scale(1 -1) rotate(-67.672 1893.432 -.004)" gradientUnits="userSpaceOnUse"><stop offset="0" stop-color="#f58b21"/><stop offset="1" stop-color="#f5b419"/></linearGradient><path fill="url(#o)" d="M1179.7,672.5l105-95.5l21.1,51.3l21.1,51.3l-141.8,5.8C1173.2,688.1,1169.4,679,1179.7,672.5z"/><linearGradient id="p" x1="2195.871" x2="2306.856" y1="3955.157" y2="3955.157" gradientTransform="rotate(67.672 4635.31 1837.928)" gradientUnits="userSpaceOnUse"><stop offset="0" stop-color="#f58b21"/><stop offset="1" stop-color="#f5b419"/></linearGradient><path fill="url(#p)" d="M1826.1,407l-141.8,5.9l21.1,51.3l21.1,51.3l105-95.5C1841.7,413.5,1838,404.4,1826.1,407z"/></g><g><linearGradient id="q" x1="4468.142" x2="4579.127" y1="-1786.901" y2="-1786.901" gradientTransform="rotate(-67.672 4540.606 1774.531)" gradientUnits="userSpaceOnUse"><stop offset="0" stop-color="#f58b21"/><stop offset="1" stop-color="#f5b419"/></linearGradient><path fill="url(#q)" d="M1179.7,420l105,95.5l21.1-51.3l21.1-51.3l-141.8-5.9C1173.2,404.4,1169.4,413.5,1179.7,420z"/><linearGradient id="r" x1="4468.142" x2="4579.127" y1="4888.49" y2="4888.49" gradientTransform="scale(1 -1) rotate(67.672 7282.484 63.392)" gradientUnits="userSpaceOnUse"><stop offset="0" stop-color="#f58b21"/><stop offset="1" stop-color="#f5b419"/></linearGradient><path fill="url(#r)" d="M1826.1,685.5l-141.8-5.8l21.1-51.3l21.1-51.3l105,95.5C1841.7,679,1838,688.1,1826.1,685.5z"/></g><g><linearGradient id="s" x1="1210.959" x2="1321.945" y1="1469.996" y2="1469.996" gradientTransform="scale(1 -1) rotate(-22.33 -4448.196 -.153)" gradientUnits="userSpaceOnUse"><stop offset="0" stop-color="#f58b21"/><stop offset="1" stop-color="#f5b419"/></linearGradient><path fill="url(#s)" d="M1366.3,866.7l5.9-141.8l51.3,21.1l51.3,21.1l-95.5,105C1372.8,882.4,1363.7,878.7,1366.3,866.7z"/><linearGradient id="t" x1="1210.959" x2="1321.945" y1="1631.593" y2="1631.593" gradientTransform="rotate(22.33 4862.317 1838.488)" gradientUnits="userSpaceOnUse"><stop offset="0" stop-color="#f58b21"/><stop offset="1" stop-color="#f5b419"/></linearGradient><path fill="url(#t)" d="M1631.8,220.4l-95.5,105l51.3,21.1l51.3,21.1l5.9-141.8C1647.5,213.9,1638.3,210.1,1631.8,220.4z"/></g><g><linearGradient id="u" x1="2144.471" x2="2255.457" y1="-802.208" y2="-802.208" gradientTransform="rotate(-22.33 4541.029 1774.182)" gradientUnits="userSpaceOnUse"><stop offset="0" stop-color="#f58b21"/><stop offset="1" stop-color="#f5b419"/></linearGradient><path fill="url(#u)" d="M1366.3,225.8l5.9,141.8l51.3-21.1l51.3-21.1l-95.5-105C1372.8,210.1,1363.7,213.9,1366.3,225.8z"/><linearGradient id="v" x1="2144.471" x2="2255.457" y1="3903.798" y2="3903.798" gradientTransform="scale(1 -1) rotate(22.33 13851.484 63.855)" gradientUnits="userSpaceOnUse"><stop offset="0" stop-color="#f58b21"/><stop offset="1" stop-color="#f5b419"/></linearGradient><path fill="url(#v)" d="M1631.8,872.1l-95.5-105l51.3-21.1L1639,725l5.9,141.8C1647.5,878.7,1638.3,882.4,1631.8,872.1z"/></g><linearGradient id="w" x1="1315.514" x2="1695.597" y1="546.257" y2="546.257" gradientUnits="userSpaceOnUse"><stop offset="0" stop-color="#f58b21"/><stop offset="1" stop-color="#f5b419"/></linearGradient><circle cx="1505.6" cy="546.3" r="190" fill="url(#w)"/></g><g><linearGradient id="x" x1="8050.933" x2="7740.324" y1="1859.552" y2="1859.552" gradientTransform="matrix(-1 0 0 1 9762.894 0)" gradientUnits="userSpaceOnUse"><stop offset="0" stop-color="#6973b6"/><stop offset=".478" stop-color="#e8e9ea"/><stop offset=".908" stop-color="#6973b6"/></linearGradient><path fill="url(#x)" d="M2023.9,1749.4l-15.6,157.5c0,34.6-53,62.7-118.3,62.7c-65.3,0-118.3-28.1-118.3-62.7l-15.6-157.5H2023.9z"/><linearGradient id="y" x1="7706.658" x2="8039.266" y1="1779.124" y2="1779.124" gradientTransform="matrix(-1 0 0 1 9762.894 0)" gradientUnits="userSpaceOnUse"><stop offset="0" stop-color="#6973b6"/><stop offset=".478" stop-color="#e8e9ea"/><stop offset=".908" stop-color="#6973b6"/></linearGradient><path fill="url(#y)" d="M2056.2,1642.4l-19.4,195.6c0,43-65.8,77.8-146.9,77.8c-81.1,0-146.9-34.9-146.9-77.8l-19.4-195.6H2056.2z"/><linearGradient id="z" x1="7893.191" x2="7849.117" y1="1519.833" y2="1786.871" gradientTransform="matrix(-1 0 0 1 9762.894 0)" gradientUnits="userSpaceOnUse"><stop offset="0" stop-color="#6973b6"/><stop offset=".478" stop-color="#e8e9ea"/><stop offset=".908" stop-color="#6973b6"/></linearGradient><ellipse cx="1889.9" cy="1642.4" fill="url(#z)" rx="166.3" ry="88.1"/><radialGradient id="A" cx="14628.986" cy="930.29" r="105.05" gradientTransform="matrix(-3.4232 0 0 .8167 51967.973 990.89)" gradientUnits="userSpaceOnUse"><stop offset="0" stop-color="#0f172b"/><stop offset=".334" stop-color="#6973b6"/><stop offset=".478" stop-color="#e8e9ea"/><stop offset=".908" stop-color="#6973b6"/></radialGradient><path fill="url(#A)" d="M1896.8,1796.1c-1.9,0-3.9,0.1-5.8,0.1h-1.1c-63,0-118.9-11.6-154-29.6c-6.6-3.4-10.9-8.9-11.7-15l-1.1-8.7
			c-0.9-6.9,8.7-11.5,16.4-7.9c35.3,16.9,89.6,27.7,150.5,27.7h1.1c1.9,0,3.9-0.1,5.8-0.1c58-0.8,109.6-11.4,143.6-27.6
			c7.7-3.7,17.3,0.9,16.4,7.9l-1.1,8.5c-0.8,6.1-5,11.5-11.6,14.9C2010.3,1783.8,1957.1,1795.3,1896.8,1796.1z"/><radialGradient id="B" cx="15221.915" cy="948.457" r="105.05" gradientTransform="matrix(-3.2122 0 0 .8167 50787.227 1024.333)" gradientUnits="userSpaceOnUse"><stop offset="0" stop-color="#0f172b"/><stop offset=".334" stop-color="#6973b6"/><stop offset=".478" stop-color="#e8e9ea"/><stop offset=".908" stop-color="#6973b6"/></radialGradient><path fill="url(#B)" d="M1896.4,1844.4c-1.8,0-3.6,0.1-5.4,0.1h-1c-59.1,0-111.6-11.6-144.5-29.5c-6.2-3.4-10.2-8.9-11-15l-1.1-8.7
			c-0.8-6.9,8.2-11.5,15.4-7.9c33.1,16.9,84.1,27.7,141.2,27.7h1c1.8,0,3.6-0.1,5.4-0.1c54.5-0.8,102.9-11.4,134.8-27.6
			c7.2-3.7,16.3,0.9,15.4,7.9l-1,8.5c-0.7,6.1-4.7,11.5-10.9,14.9C2002.9,1832.1,1953,1843.6,1896.4,1844.4z"/><radialGradient id="C" cx="15221.918" cy="966.623" r="105.05" gradientTransform="matrix(-3.2122 0 0 .8167 50787.223 1057.776)" gradientUnits="userSpaceOnUse"><stop offset="0" stop-color="#0f172b"/><stop offset=".334" stop-color="#6973b6"/><stop offset=".478" stop-color="#e8e9ea"/><stop offset=".908" stop-color="#6973b6"/></radialGradient><path fill="url(#C)" d="M1896.4,1892.7c-1.8,0-3.6,0.1-5.4,0.1h-1c-59.1,0-111.6-11.6-144.5-29.5c-6.2-3.4-10.2-8.9-11-15l-1.1-8.7
			c-0.8-6.9,8.2-11.5,15.4-7.9c33.1,16.9,84.1,27.7,141.2,27.7h1c1.8,0,3.6-0.1,5.4-0.1c54.5-0.8,102.9-11.4,134.8-27.6
			c7.2-3.7,16.3,0.9,15.4,7.9l-1,8.5c-0.7,6.1-4.7,11.5-10.9,14.9C2002.9,1880.4,1953,1891.9,1896.4,1892.7z"/><g><linearGradient id="D" x1="1539.184" x2="2229.724" y1="1203.923" y2="1203.923" gradientUnits="userSpaceOnUse"><stop offset="0" stop-color="#f58b21"/><stop offset="1" stop-color="#f5b419"/></linearGradient><path fill="url(#D)" d="M2226.4,1213.2c-23.3-89.4-167.5-158.3-342-158.3c-174.5,0-318.6,68.9-341.9,158.3
				c-2.2,8.2-3.3,16.8-3.3,25.5c0,22.4,7.5,44,21.4,63.9c12.9,18.4,31,35.3,53.4,50.3l18.8-8.8c-21.6-13.9-38.8-29.7-50.9-46.7
				c-13-18.4-20-38.2-20-58.7c0-8,1-15.8,3-23.3c21.8-82,156.4-145.3,319.4-145.3s297.7,63.2,319.6,145.3c2,7.5,3,15.3,3,23.3
				c0,13.2-2.9,26-8.2,38.3c6.1,3.5,12.4,6.9,18.7,10.4c8-15.5,12.3-31.8,12.3-48.8C2229.7,1230,2228.6,1221.4,2226.4,1213.2z"/><linearGradient id="E" x1="1679.327" x2="2089.54" y1="1632.372" y2="1632.372" gradientUnits="userSpaceOnUse"><stop offset="0" stop-color="#f58b21"/><stop offset="1" stop-color="#f5b419"/></linearGradient><ellipse cx="1884.4" cy="1632.4" fill="url(#E)" rx="205.1" ry="109.2"/><linearGradient id="F" x1="2207.012" x2="1561.899" y1="1238.717" y2="1238.717" gradientUnits="userSpaceOnUse"><stop offset="0" stop-color="#f58b21"/><stop offset="1" stop-color="#f5b419"/></linearGradient><path fill="url(#F)" d="M2207,1238.6c0,20.7-7.1,40.5-20.1,58.9c-45.7,64.2-163.9,109.8-302.5,109.8c-138.7,0-256.9-45.7-302.5-110
				c-13-18.4-20-38.2-20-58.7c0-8,1-15.8,3-23.3c21.8-82,156.4-145.3,319.4-145.3s297.7,63.2,319.6,145.3
				C2206,1222.9,2207,1230.7,2207,1238.6z"/></g><linearGradient id="G" x1="1560.595" x2="2208.168" y1="1522.104" y2="1522.104" gradientUnits="userSpaceOnUse"><stop offset="0" stop-color="#f58b21"/><stop offset="1" stop-color="#f5b419"/></linearGradient><path fill="url(#G)" d="M2089.5,1524.6c0-34.6,13.2-68,37.6-92.6c35.9-36,63.9-80.2,81-129.2c-48.9,70-175.5,119.8-323.8,119.8
			c-148.4,0-275-49.9-323.8-119.9c17.1,48.9,44.9,92.6,80.4,128.6c24.6,24.9,38.3,58.4,38.3,93.3v105.8h0.1c0,0.7-0.2,1.4-0.2,2.1
			c0,60.3,91.8,109.2,205.1,109.2c113.3,0,205.1-48.9,205.1-109.2c0-0.7-0.2-1.4-0.2-2.1h0.2V1524.6z" opacity=".78"/><linearGradient id="H" x1="1613.98" x2="2217.429" y1="1349.757" y2="1349.757" gradientUnits="userSpaceOnUse"><stop offset="0" stop-color="#f58b21"/><stop offset="1" stop-color="#f5b419"/></linearGradient><path fill="url(#H)" d="M2217.4,1287.4c-2.8,5.2-5.8,10.4-9.3,15.3c-48.9,70-175.5,119.8-323.8,119.8
			c-109.5,0-207.2-27.2-270.4-69.6l18.8-8.8c59,38.6,149.7,63.2,251.6,63.2c138.6,0,256.8-45.6,302.5-109.8
			c4.8-6.7,8.7-13.5,11.9-20.5C2204.8,1280.5,2211.2,1283.9,2217.4,1287.4z"/></g><g><linearGradient id="I" x1="1536.273" x2="2232.635" y1="1241.546" y2="1241.546" gradientUnits="userSpaceOnUse"><stop offset="0" stop-color="#22682e"/><stop offset="1" stop-color="#6df283"/></linearGradient><path fill="url(#I)" d="M2231.7,1241.5c0,103.7-155.5,187.7-347.3,187.7s-347.3-84.1-347.3-187.7c0-8.6-2.1-31,0-39.3
			c22.9-91.7,171.4-148.5,347.3-148.5c176.5,0,325.2,53,347.3,145.1C2233.7,1206.9,2231.7,1233.3,2231.7,1241.5z"/><linearGradient id="J" x1="2223.503" x2="1599.357" y1="1202.265" y2="1202.265" gradientUnits="userSpaceOnUse"><stop offset="0" stop-color="#22682e"/><stop offset="1" stop-color="#6df283"/></linearGradient><path fill="url(#J)" d="M2231.8,1202.3c0,22.5-7.3,44-20.7,64c-36.5,54.4-118.1,97.1-220.5,114.8h-0.1c-33.4,5.8-69,9-106,9
			c-191.8,0-347.3-84.1-347.3-187.7c0-103.7,155.5-187.8,347.3-187.8C2076.2,1014.5,2231.8,1098.6,2231.8,1202.3z"/></g><g><g opacity=".49"><ellipse cx="2089.5" cy="1228.4" fill="#0f0a26" opacity="0" rx="67.5" ry="174.6" transform="rotate(-87.462 2089.541 1228.448) scale(.99998)"/><ellipse cx="2090" cy="1227.7" fill="#0f0a26" opacity=".02" rx="66.6" ry="172.4" transform="matrix(.04434 -.999 .999 .04434 770.761 3261.198)"/><ellipse cx="2090.4" cy="1227" fill="#0f0a26" opacity=".039" rx="65.8" ry="170.2" transform="rotate(-87.455 2090.384 1227.042)"/><ellipse cx="2090.8" cy="1226.3" fill="#0f0a26" opacity=".059" rx="64.9" ry="168.1" transform="rotate(-87.452 2090.794 1226.305) scale(.99999)"/><ellipse cx="2091.2" cy="1225.6" fill="#0f0a26" opacity=".078" rx="64" ry="165.9" transform="rotate(-87.448 2091.21 1225.585) scale(.99999)"/><ellipse cx="2091.6" cy="1224.9" fill="#0f0a26" opacity=".098" rx="63.1" ry="163.7" transform="rotate(-87.445 2091.64 1224.879)"/><ellipse cx="2092" cy="1224.2" fill="#0f0a26" opacity=".118" rx="62.2" ry="161.5" transform="rotate(-87.441 2092.051 1224.16)"/><ellipse cx="2092.5" cy="1223.4" fill="#0f0a26" opacity=".137" rx="61.3" ry="159.3" transform="rotate(-87.437 2092.463 1223.44)"/><ellipse cx="2092.9" cy="1222.7" fill="#0f0a26" opacity=".157" rx="60.4" ry="157.2" transform="rotate(-87.433 2092.873 1222.721)"/><ellipse cx="2093.3" cy="1222" fill="#0f0a26" opacity=".176" rx="59.6" ry="155" transform="rotate(-87.429 2093.284 1222.002)"/><ellipse cx="2093.7" cy="1221.3" fill="#0f0a26" opacity=".196" rx="58.7" ry="152.8" transform="rotate(-87.425 2093.714 1221.295) scale(1.00001)"/><ellipse cx="2094.1" cy="1220.6" fill="#0f0a26" opacity=".216" rx="57.8" ry="150.6" transform="rotate(-87.42 2094.123 1220.558)"/><ellipse cx="2094.6" cy="1219.9" fill="#0f0a26" opacity=".235" rx="56.9" ry="148.4" transform="matrix(.04508 -.999 .999 .04508 781.508 3257.294)"/><ellipse cx="2095" cy="1219.1" fill="#0f0a26" opacity=".255" rx="56" ry="146.3" transform="rotate(-87.412 2094.966 1219.148) scale(1.00002)"/><ellipse cx="2095.4" cy="1218.4" fill="#0f0a26" opacity=".275" rx="55.1" ry="144.1" transform="matrix(.04524 -.999 .999 .04524 783.409 3256.552)"/><ellipse cx="2095.8" cy="1217.7" fill="#0f0a26" opacity=".294" rx="54.3" ry="141.9" transform="rotate(-87.402 2095.801 1217.72) scale(1.00003)"/><ellipse cx="2096.2" cy="1217" fill="#0f0a26" opacity=".314" rx="53.4" ry="139.7" transform="rotate(-87.398 2096.14 1216.966)"/><ellipse cx="2096.6" cy="1216.3" fill="#0f0a26" opacity=".333" rx="52.5" ry="137.5" transform="rotate(-87.392 2096.565 1216.241)"/><ellipse cx="2097.1" cy="1215.6" fill="#0f0a26" opacity=".353" rx="51.6" ry="135.4" transform="rotate(-87.387 2097.052 1215.57) scale(1.00004)"/><ellipse cx="2097.5" cy="1214.9" fill="#0f0a26" opacity=".372" rx="50.7" ry="133.2" transform="matrix(.04568 -.999 .999 .04568 788.068 3254.638)"/><ellipse cx="2097.9" cy="1214.1" fill="#0f0a26" opacity=".392" rx="49.8" ry="131" transform="rotate(-87.376 2097.887 1214.142) scale(1.00005)"/><ellipse cx="2098.3" cy="1213.4" fill="#0f0a26" opacity=".412" rx="48.9" ry="128.8" transform="matrix(.04588 -.9989 .9989 .04588 789.89 3253.847)"/><ellipse cx="2098.7" cy="1212.7" fill="#0f0a26" opacity=".431" rx="48.1" ry="126.6" transform="rotate(-87.364 2098.729 1212.71) scale(.99996)"/><ellipse cx="2099.1" cy="1212" fill="#0f0a26" opacity=".451" rx="47.2" ry="124.5" transform="rotate(-87.358 2099.235 1212.033)"/><ellipse cx="2099.6" cy="1211.3" fill="#0f0a26" opacity=".471" rx="46.3" ry="122.3" transform="rotate(-87.352 2099.563 1211.279) scale(.99997)"/><ellipse cx="2100" cy="1210.6" fill="#0f0a26" opacity=".49" rx="45.4" ry="120.1" transform="matrix(.04632 -.9989 .9989 .04632 793.445 3252.21)"/><ellipse cx="2100.4" cy="1209.8" fill="#0f0a26" opacity=".51" rx="44.5" ry="117.9" transform="rotate(-87.338 2100.397 1209.846) scale(.99998)"/><ellipse cx="2100.8" cy="1209.1" fill="#0f0a26" opacity=".529" rx="43.6" ry="115.8" transform="matrix(.04656 -.9989 .9989 .04656 795.173 3251.362)"/><ellipse cx="2101.2" cy="1208.4" fill="#0f0a26" opacity=".549" rx="42.7" ry="113.6" transform="rotate(-87.324 2101.23 1208.413) scale(.99999)"/><ellipse cx="2101.6" cy="1207.7" fill="#0f0a26" opacity=".569" rx="41.9" ry="111.4" transform="rotate(-87.316 2101.654 1207.702)"/><ellipse cx="2102.1" cy="1207" fill="#0f0a26" opacity=".588" rx="41" ry="109.2" transform="rotate(-87.308 2102.057 1206.979)"/><ellipse cx="2102.5" cy="1206.3" fill="#0f0a26" opacity=".608" rx="40.1" ry="107" transform="rotate(-87.3 2102.481 1206.267) scale(1.00001)"/><ellipse cx="2102.9" cy="1205.6" fill="#0f0a26" opacity=".627" rx="39.2" ry="104.9" transform="matrix(.04726 -.9989 .9989 .04726 799.317 3249.13)"/><ellipse cx="2103.3" cy="1204.8" fill="#0f0a26" opacity=".647" rx="38.3" ry="102.7" transform="matrix(.04741 -.9989 .9989 .04741 800.11 3248.662)"/><ellipse cx="2103.7" cy="1204.1" fill="#0f0a26" opacity=".667" rx="37.4" ry="100.5" transform="rotate(-87.273 2103.73 1204.117) scale(1.00003)"/><ellipse cx="2104.2" cy="1203.4" fill="#0f0a26" opacity=".686" rx="36.5" ry="98.3" transform="rotate(-87.263 2104.149 1203.405) scale(1.00004)"/><ellipse cx="2104.6" cy="1202.7" fill="#0f0a26" opacity=".706" rx="35.7" ry="96.1" transform="rotate(-87.253 2104.566 1202.692) scale(1.00005)"/><ellipse cx="2105" cy="1202" fill="#0f0a26" opacity=".726" rx="34.8" ry="94" transform="rotate(-87.242 2104.991 1201.976) scale(.99996)"/><ellipse cx="2105.4" cy="1201.3" fill="#0f0a26" opacity=".745" rx="33.9" ry="91.8" transform="rotate(-87.231 2105.474 1201.297)"/><ellipse cx="2105.8" cy="1200.5" fill="#0f0a26" opacity=".765" rx="33" ry="89.6" transform="rotate(-87.22 2105.827 1200.583)"/><ellipse cx="2106.2" cy="1199.8" fill="#0f0a26" opacity=".784" rx="32.1" ry="87.4" transform="rotate(-87.207 2106.249 1199.829) scale(.99999)"/><ellipse cx="2106.7" cy="1199.1" fill="#0f0a26" opacity=".804" rx="31.2" ry="85.2" transform="rotate(-87.195 2106.658 1199.114)"/><ellipse cx="2107.1" cy="1198.4" fill="#0f0a26" opacity=".824" rx="30.3" ry="83.1" transform="rotate(-87.182 2107.074 1198.397) scale(1.00001)"/><ellipse cx="2107.5" cy="1197.7" fill="#0f0a26" opacity=".843" rx="29.5" ry="80.9" transform="rotate(-87.167 2107.49 1197.678) scale(1.00002)"/><ellipse cx="2107.9" cy="1197" fill="#0f0a26" opacity=".863" rx="28.6" ry="78.7" transform="matrix(.04968 -.9988 .9988 .04968 807.706 3242.81)"/><ellipse cx="2108.3" cy="1196.2" fill="#0f0a26" opacity=".882" rx="27.7" ry="76.5" transform="rotate(-87.137 2108.323 1196.253) scale(1.00005)"/><ellipse cx="2108.7" cy="1195.5" fill="#0f0a26" opacity=".902" rx="26.8" ry="74.3" transform="matrix(.05024 -.9987 .9987 .05024 808.778 3241.552)"/><ellipse cx="2109.2" cy="1194.8" fill="#0f0a26" opacity=".922" rx="25.9" ry="72.2" transform="rotate(-87.103 2109.164 1194.82) scale(.99998)"/><ellipse cx="2109.6" cy="1194.1" fill="#0f0a26" opacity=".941" rx="25" ry="70" transform="rotate(-87.084 2109.59 1194.109)"/><ellipse cx="2110" cy="1193.4" fill="#0f0a26" opacity=".961" rx="24.2" ry="67.8" transform="rotate(-87.064 2109.995 1193.383) scale(1.00001)"/><ellipse cx="2110.4" cy="1192.7" fill="#0f0a26" opacity=".98" rx="23.3" ry="65.6" transform="rotate(-87.044 2110.411 1192.67) scale(1.00003)"/><ellipse cx="2110.8" cy="1192" fill="#0f0a26" rx="22.4" ry="63.4" transform="rotate(-87.021 2110.836 1191.953) scale(.99995)"/></g><linearGradient id="K" x1="6950.958" x2="6978.92" y1="1037.022" y2="1037.022" gradientTransform="matrix(-1 0 0 1 9036.133 0)" gradientUnits="userSpaceOnUse"><stop offset="0" stop-color="#505faa"/><stop offset=".704" stop-color="#8f92c7"/><stop offset="1" stop-color="#bcbedd"/></linearGradient><polygon fill="url(#K)" points="2073.9 854.9 2057.2 1184.4 2073.1 1219.1 2085.2 879.6"/><linearGradient id="L" x1="6903.066" x2="6963.063" y1="1054.001" y2="1054.001" gradientTransform="matrix(-1 0 0 1 9036.133 0)" gradientUnits="userSpaceOnUse"><stop offset="0" stop-color="#a8abd3"/><stop offset="1" stop-color="#dfdfef"/></linearGradient><polygon fill="url(#L)" points="2085.2 879.6 2073.1 1219.1 2133.1 1228.4 2127.7 886.2"/><linearGradient id="M" x1="6858.973" x2="6908.434" y1="1048.283" y2="1048.283" gradientTransform="matrix(-1 0 0 1 9036.133 0)" gradientUnits="userSpaceOnUse"><stop offset="0" stop-color="#505faa"/><stop offset=".704" stop-color="#8f92c7"/><stop offset="1" stop-color="#bcbedd"/></linearGradient><polygon fill="url(#M)" points="2127.7 886.2 2133.1 1228.4 2177.2 1203 2159 868.1"/><polygon fill="#dbdbdc" points="2073.9 854.9 2085.2 879.6 2127.7 886.2 2159 868.1 2147.7 843.5 2105.2 836.9"/><linearGradient id="N" x1="6935.009" x2="6946.426" y1="637.03" y2="637.03" gradientTransform="matrix(-1 0 0 1 9036.133 0)" gradientUnits="userSpaceOnUse"><stop offset="0" stop-color="#505faa"/><stop offset=".704" stop-color="#8f92c7"/><stop offset="1" stop-color="#bcbedd"/></linearGradient><polygon fill="url(#N)" points="2095.6 404.4 2089.7 853.9 2096.9 869.6 2101.1 416.6"/><linearGradient id="O" x1="6912.053" x2="6939.24" y1="645.231" y2="645.231" gradientTransform="matrix(-1 0 0 1 9036.133 0)" gradientUnits="userSpaceOnUse"><stop offset="0" stop-color="#a8abd3"/><stop offset="1" stop-color="#dfdfef"/></linearGradient><polygon fill="url(#O)" points="2101.1 416.6 2096.9 869.6 2124.1 873.9 2122.1 419.9"/><g><linearGradient id="P" x1="6892.072" x2="6913.99" y1="642.405" y2="642.405" gradientTransform="matrix(-1 0 0 1 9036.133 0)" gradientUnits="userSpaceOnUse"><stop offset="0" stop-color="#505faa"/><stop offset=".704" stop-color="#8f92c7"/><stop offset="1" stop-color="#bcbedd"/></linearGradient><polygon fill="url(#P)" points="2122.1 419.9 2124.1 873.9 2144.1 862.3 2137.6 410.9"/></g><g><polygon fill="#dbdbdc" points="2095.6 404.4 2101.1 416.6 2122.1 419.9 2137.6 410.9 2132 398.8 2111 395.5"/></g><g><linearGradient id="Q" x1="6900.714" x2="6932.654" y1="405.333" y2="357.88" gradientTransform="matrix(-1 0 0 1 9036.133 0)" gradientUnits="userSpaceOnUse"><stop offset="0" stop-color="#505faa"/><stop offset=".704" stop-color="#8f92c7"/><stop offset="1" stop-color="#bcbedd"/></linearGradient><path fill="url(#Q)" d="M2110.1,425.9C2110.1,425.9,2110.1,425.9,2110.1,425.9c0.6-1.3,1-2.6,1.3-4.1c0,0,0-0.1,0-0.1
					c0.3-1.5,0.5-3.2,0.5-5c0-1.8-0.2-3.7-0.5-5.6c0,0,0,0,0,0c-0.3-1.9-0.7-3.8-1.3-5.7c0,0,0-0.1,0-0.1c-0.6-1.9-1.3-3.8-2.1-5.6
					c0,0,0,0,0-0.1c-0.8-1.8-1.7-3.6-2.7-5.4c0-0.1-0.1-0.2-0.1-0.2c-1-1.8-2.1-3.5-3.3-5.1c0,0,0,0,0,0c-1.2-1.6-2.5-3.2-3.9-4.6
					c0,0-0.1-0.1-0.1-0.1c-1.3-1.4-2.8-2.7-4.2-3.9c0,0-0.1-0.1-0.1-0.1c-1.5-1.2-3-2.3-4.6-3.2c-0.8-0.4-1.5-0.8-2.3-1.2
					c0,0-0.1,0-0.1-0.1c-0.7-0.3-1.5-0.6-2.2-0.9c0,0-0.1,0-0.1,0c-0.7-0.2-1.4-0.4-2-0.6c-0.1,0-0.1,0-0.2,0
					c-0.6-0.1-1.3-0.2-1.9-0.3c-0.1,0-0.1,0-0.2,0c-0.6,0-1.2-0.1-1.7,0c-0.1,0-0.2,0-0.4,0c-0.6,0-1.2,0.1-1.7,0.2
					c-0.1,0-0.2,0.1-0.3,0.1c-0.5,0.1-1,0.2-1.4,0.4c-0.6,0.2-1.2,0.5-1.8,0.8l50.3-29.8c0.6-0.3,1.2-0.6,1.8-0.8c0,0,0.1,0,0.1,0
					c0.4-0.2,0.9-0.3,1.3-0.4c0.1,0,0.2-0.1,0.3-0.1c0,0,0,0,0,0c0.4-0.1,0.9-0.2,1.3-0.2c0.1,0,0.3,0,0.4,0c0.1,0,0.2,0,0.4,0
					c0.2,0,0.3,0,0.5,0c0.4,0,0.7,0,1.1,0c0.1,0,0.1,0,0.2,0c0.1,0,0.1,0,0.2,0c0.2,0,0.4,0,0.6,0.1c0.3,0,0.7,0.1,1,0.2
					c0.1,0,0.2,0,0.3,0.1c0.1,0,0.1,0,0.2,0c0.1,0,0.3,0.1,0.4,0.1c0.3,0.1,0.6,0.2,1,0.3c0.2,0.1,0.4,0.1,0.6,0.2c0,0,0.1,0,0.1,0
					c0.1,0,0.1,0,0.2,0.1c0.3,0.1,0.6,0.2,0.9,0.3c0.3,0.1,0.6,0.3,0.9,0.4c0.1,0,0.1,0.1,0.2,0.1c0,0,0.1,0,0.1,0.1
					c0.2,0.1,0.4,0.2,0.6,0.3c0.3,0.2,0.6,0.3,0.9,0.5c0.2,0.1,0.5,0.3,0.7,0.4c0.1,0,0.2,0.1,0.2,0.1c0.3,0.2,0.7,0.4,1,0.6
					c0.3,0.2,0.7,0.4,1,0.6c0.3,0.2,0.7,0.5,1,0.7c0.3,0.3,0.7,0.5,1,0.8c0.1,0.1,0.3,0.2,0.4,0.3c0,0,0.1,0.1,0.1,0.1
					c0.2,0.1,0.4,0.3,0.5,0.4c0.3,0.3,0.7,0.6,1,0.9c0.3,0.3,0.7,0.6,1,0.9c0.3,0.3,0.7,0.6,1,1c0.2,0.2,0.5,0.5,0.7,0.7
					c0,0,0.1,0.1,0.1,0.1c0.1,0.1,0.1,0.1,0.2,0.2c0.3,0.3,0.6,0.7,0.9,1c0.3,0.3,0.6,0.7,0.9,1c0.3,0.4,0.6,0.7,0.9,1.1
					c0.3,0.4,0.7,0.9,1,1.3c0,0,0,0,0,0c0,0,0,0,0,0c0.5,0.7,1,1.4,1.5,2.1c0.6,0.9,1.2,1.8,1.7,2.7c0.1,0.1,0.1,0.2,0.2,0.3
					c0,0.1,0.1,0.2,0.1,0.2c0.3,0.5,0.6,1,0.8,1.5c0.2,0.5,0.5,0.9,0.7,1.4c0.2,0.4,0.4,0.8,0.6,1.2c0.2,0.4,0.3,0.7,0.5,1.1
					c0,0.1,0,0.1,0.1,0.2c0,0,0,0,0,0.1c0.1,0.3,0.2,0.6,0.4,0.9c0.2,0.4,0.3,0.7,0.4,1.1c0.1,0.4,0.3,0.7,0.4,1.1
					c0.1,0.4,0.3,0.8,0.4,1.2c0.1,0.4,0.3,0.8,0.4,1.2c0,0.1,0,0.1,0.1,0.2c0,0,0,0.1,0,0.1c0.1,0.3,0.2,0.6,0.3,0.9
					c0.1,0.4,0.2,0.8,0.3,1.2c0.1,0.4,0.2,0.8,0.3,1.2c0.1,0.4,0.2,0.8,0.2,1.2c0.1,0.4,0.1,0.7,0.2,1.1c0,0,0,0,0,0c0,0,0,0,0,0
					c0.1,0.4,0.1,0.8,0.2,1.2c0,0.4,0.1,0.8,0.1,1.1c0,0.4,0.1,0.7,0.1,1.1c0,0.4,0,0.7,0.1,1.1c0,0.3,0,0.7,0,1c0,0,0,0,0,0.1
					c0,0.4,0,0.7,0,1.1c0,0.4,0,0.7-0.1,1.1c0,0.4-0.1,0.7-0.1,1.1c0,0.4-0.1,0.7-0.2,1.1c0,0.2-0.1,0.3-0.1,0.5c0,0,0,0.1,0,0.1
					c0,0.2-0.1,0.3-0.1,0.5c-0.1,0.4-0.2,0.8-0.3,1.2c-0.1,0.4-0.3,0.8-0.4,1.2c-0.2,0.4-0.3,0.8-0.5,1.2c0,0,0,0,0,0.1
					c0,0,0,0,0,0.1c-0.3,0.6-0.6,1.1-0.9,1.6c-0.2,0.4-0.6,0.7-0.8,1c-0.2,0.3-0.4,0.5-0.6,0.8c-0.8,0.8-1.6,1.5-2.5,2.1l-50.3,29.8
					c0,0,0,0,0,0v0c0.9-0.5,1.8-1.3,2.5-2.1c0.2-0.2,0.4-0.5,0.6-0.8C2109,427.8,2109.6,427,2110.1,425.9z"/><linearGradient id="R" x1="6924.24" x2="6970.255" y1="403.44" y2="403.44" gradientTransform="matrix(-1 0 0 1 9036.133 0)" gradientUnits="userSpaceOnUse"><stop offset="0" stop-color="#505faa"/><stop offset=".704" stop-color="#8f92c7"/><stop offset="1" stop-color="#bcbedd"/></linearGradient><path fill="url(#R)" d="M2089,377c12.7,7.3,23,25.1,22.9,39.7c0,14.6-10.4,20.5-23.1,13.2c-12.7-7.3-23-25.1-22.9-39.7
						C2065.9,375.5,2076.3,369.7,2089,377z"/></g><g><linearGradient id="S" x1="6919.327" x2="6951.267" y1="416.191" y2="368.737" gradientTransform="matrix(-1 0 0 1 9036.133 0)" gradientUnits="userSpaceOnUse"><stop offset="0" stop-color="#a8abd3"/><stop offset="1" stop-color="#dfdfef"/></linearGradient><path fill="url(#S)" d="M2091.5,436.8C2091.5,436.8,2091.5,436.8,2091.5,436.8c0.6-1.3,1-2.6,1.3-4.1c0,0,0-0.1,0-0.1
					c0.3-1.5,0.5-3.2,0.5-5c0-1.8-0.2-3.7-0.5-5.6c0,0,0,0,0,0c-0.3-1.9-0.7-3.8-1.3-5.7c0,0,0-0.1,0-0.1c-0.6-1.9-1.3-3.8-2.1-5.6
					c0,0,0,0,0-0.1c-0.8-1.8-1.7-3.6-2.7-5.4c0-0.1-0.1-0.2-0.1-0.2c-1-1.8-2.1-3.5-3.3-5.1c0,0,0,0,0,0c-1.2-1.6-2.5-3.2-3.9-4.6
					c0,0-0.1-0.1-0.1-0.1c-1.3-1.4-2.8-2.7-4.2-3.9c0,0-0.1-0.1-0.1-0.1c-1.5-1.2-3-2.3-4.6-3.2c-0.8-0.4-1.5-0.8-2.3-1.2
					c0,0-0.1,0-0.1-0.1c-0.7-0.3-1.5-0.6-2.2-0.9c0,0-0.1,0-0.1,0c-0.7-0.2-1.4-0.4-2-0.6c-0.1,0-0.1,0-0.2,0
					c-0.6-0.1-1.3-0.2-1.9-0.3c-0.1,0-0.1,0-0.2,0c-0.6,0-1.2-0.1-1.7,0c-0.1,0-0.2,0-0.4,0c-0.6,0-1.2,0.1-1.7,0.2
					c-0.1,0-0.2,0.1-0.3,0.1c-0.5,0.1-1,0.2-1.4,0.4c-0.6,0.2-1.2,0.5-1.8,0.8l50.3-29.8c0.6-0.3,1.2-0.6,1.8-0.8c0,0,0.1,0,0.1,0
					c0.4-0.2,0.9-0.3,1.3-0.4c0.1,0,0.2-0.1,0.3-0.1c0,0,0,0,0,0c0.4-0.1,0.9-0.2,1.3-0.2c0.1,0,0.3,0,0.4,0c0.1,0,0.2,0,0.4,0
					c0.2,0,0.3,0,0.5,0c0.4,0,0.7,0,1.1,0c0.1,0,0.1,0,0.2,0c0.1,0,0.1,0,0.2,0c0.2,0,0.4,0,0.6,0.1c0.3,0,0.7,0.1,1,0.2
					c0.1,0,0.2,0,0.3,0.1c0.1,0,0.1,0,0.2,0c0.1,0,0.3,0.1,0.4,0.1c0.3,0.1,0.6,0.2,1,0.3c0.2,0.1,0.4,0.1,0.6,0.2c0,0,0.1,0,0.1,0
					c0.1,0,0.1,0,0.2,0.1c0.3,0.1,0.6,0.2,0.9,0.3c0.3,0.1,0.6,0.3,0.9,0.4c0.1,0,0.1,0.1,0.2,0.1c0,0,0.1,0,0.1,0.1
					c0.2,0.1,0.4,0.2,0.6,0.3c0.3,0.2,0.6,0.3,0.9,0.5c0.2,0.1,0.5,0.3,0.7,0.4c0.1,0,0.2,0.1,0.2,0.1c0.3,0.2,0.7,0.4,1,0.6
					c0.3,0.2,0.7,0.4,1,0.6c0.3,0.2,0.7,0.5,1,0.7c0.3,0.3,0.7,0.5,1,0.8c0.1,0.1,0.3,0.2,0.4,0.3c0,0,0.1,0.1,0.1,0.1
					c0.2,0.1,0.4,0.3,0.5,0.4c0.3,0.3,0.7,0.6,1,0.9c0.3,0.3,0.7,0.6,1,0.9c0.3,0.3,0.7,0.6,1,1c0.2,0.2,0.5,0.5,0.7,0.7
					c0,0,0.1,0.1,0.1,0.1c0.1,0.1,0.1,0.1,0.2,0.2c0.3,0.3,0.6,0.7,0.9,1c0.3,0.3,0.6,0.7,0.9,1c0.3,0.4,0.6,0.7,0.9,1.1
					c0.3,0.4,0.7,0.9,1,1.3c0,0,0,0,0,0c0,0,0,0,0,0c0.5,0.7,1,1.4,1.5,2.1c0.6,0.9,1.2,1.8,1.7,2.7c0.1,0.1,0.1,0.2,0.2,0.3
					c0,0.1,0.1,0.2,0.1,0.2c0.3,0.5,0.6,1,0.8,1.5c0.2,0.5,0.5,0.9,0.7,1.4c0.2,0.4,0.4,0.8,0.6,1.2c0.2,0.4,0.3,0.7,0.5,1.1
					c0,0.1,0,0.1,0.1,0.2c0,0,0,0,0,0.1c0.1,0.3,0.2,0.6,0.4,0.9c0.2,0.4,0.3,0.7,0.4,1.1c0.1,0.4,0.3,0.7,0.4,1.1
					c0.1,0.4,0.3,0.8,0.4,1.2c0.1,0.4,0.3,0.8,0.4,1.2c0,0.1,0,0.1,0.1,0.2c0,0,0,0.1,0,0.1c0.1,0.3,0.2,0.6,0.3,0.9
					c0.1,0.4,0.2,0.8,0.3,1.2c0.1,0.4,0.2,0.8,0.3,1.2c0.1,0.4,0.2,0.8,0.2,1.2c0.1,0.4,0.1,0.7,0.2,1.1c0,0,0,0,0,0c0,0,0,0,0,0
					c0.1,0.4,0.1,0.8,0.2,1.2c0,0.4,0.1,0.8,0.1,1.1c0,0.4,0.1,0.7,0.1,1.1c0,0.4,0,0.7,0.1,1.1c0,0.3,0,0.7,0,1c0,0,0,0,0,0.1
					c0,0.4,0,0.7,0,1.1c0,0.4,0,0.7-0.1,1.1c0,0.4-0.1,0.7-0.1,1.1c0,0.4-0.1,0.7-0.2,1.1c0,0.2-0.1,0.3-0.1,0.5c0,0,0,0.1,0,0.1
					c0,0.2-0.1,0.3-0.1,0.5c-0.1,0.4-0.2,0.8-0.3,1.2c-0.1,0.4-0.3,0.8-0.4,1.2c-0.2,0.4-0.3,0.8-0.5,1.2c0,0,0,0,0,0.1
					c0,0,0,0,0,0.1c-0.3,0.6-0.6,1.1-0.9,1.6c-0.2,0.4-0.6,0.7-0.8,1c-0.2,0.3-0.4,0.5-0.6,0.8c-0.8,0.8-1.6,1.5-2.5,2.1l-50.3,29.8
					c0,0,0,0,0,0v0c0.9-0.5,1.8-1.3,2.5-2.1c0.2-0.2,0.4-0.5,0.6-0.8C2090.4,438.7,2091,437.8,2091.5,436.8z"/><linearGradient id="T" x1="6942.853" x2="6988.868" y1="414.298" y2="414.298" gradientTransform="matrix(-1 0 0 1 9036.133 0)" gradientUnits="userSpaceOnUse"><stop offset="0" stop-color="#505faa"/><stop offset=".704" stop-color="#8f92c7"/><stop offset="1" stop-color="#bcbedd"/></linearGradient><path fill="url(#T)" d="M2070.3,387.9c12.7,7.3,23,25.1,22.9,39.7c0,14.6-10.4,20.5-23.1,13.2c-12.7-7.3-23-25.1-22.9-39.7
						C2047.3,386.4,2057.6,380.5,2070.3,387.9z"/></g><linearGradient id="U" x1="6691.247" x2="7190.189" y1="395.506" y2="395.506" gradientTransform="matrix(-1 0 0 1 9036.133 0)" gradientUnits="userSpaceOnUse"><stop offset="0" stop-color="#aaadd4"/><stop offset="1" stop-color="#bcbedd"/></linearGradient><path fill="url(#U)" d="M1853.8,574.6l164.8-149.9l-74.2-228c-5.8-17.8,2.7-37.2,19.8-44.9c21.1-9.6,45.8,2.5,51.1,25.1l54.4,230.1
			l242.3,42.4c22.8,4,37.4,26.5,31.7,48.9l-0.5,2.2c-5.6,22.3-28.9,35.2-50.8,28.2l-234.6-75.5c-0.2,0.2-0.3,0.5-0.4,0.7L1922.6,633
			c-8.1,10.8-23.4,12.8-34,4.5l-33.4-26.2C1843.4,602.1,1842.8,584.6,1853.8,574.6z"/><linearGradient id="V" x1="6695.429" x2="7194.371" y1="398.615" y2="398.615" gradientTransform="matrix(-1 0 0 1 9036.133 0)" gradientUnits="userSpaceOnUse"><stop offset="0" stop-color="#efeff6"/><stop offset="1" stop-color="#dfdfef"/></linearGradient><path fill="url(#V)" d="M1849.6,577.7l164.8-149.9l-74.2-228c-5.8-17.8,2.7-37.2,19.8-44.9c21.1-9.6,45.8,2.5,51.1,25.1l54.4,230.1
			l242.3,42.4c22.8,4,37.4,26.5,31.7,48.9l-0.5,2.2c-5.6,22.3-28.9,35.2-50.8,28.2l-234.6-75.5c-0.2,0.2-0.3,0.5-0.4,0.7
			l-134.7,179.1c-8.1,10.8-23.4,12.8-34,4.5l-33.4-26.2C1839.3,605.2,1838.6,587.7,1849.6,577.7z"/><linearGradient id="W" x1="6984.304" x2="7014.605" y1="454.414" y2="406.408" gradientTransform="matrix(-1 0 0 1 9036.133 0)" gradientUnits="userSpaceOnUse"><stop offset="0" stop-color="#a8abd3"/><stop offset="1" stop-color="#dfdfef"/></linearGradient><path fill="url(#W)" d="M2002.1,424.9c0,14.6,10.2,32.4,22.9,39.7c7.3,4.2,13.7,3.9,18,0.3c-0.5,0.5-1,1-1.6,1.3l24.5-13.4
			c0.9-0.5,1.8-1.3,2.5-2.1c0.2-0.2,0.4-0.5,0.6-0.8c0.3-0.3,0.6-0.6,0.8-1c0.3-0.5,0.6-1,0.9-1.6c0,0,0,0,0-0.1c0,0,0,0,0-0.1
			c0.2-0.4,0.3-0.8,0.5-1.2c0.1-0.4,0.3-0.8,0.4-1.2c0.1-0.4,0.2-0.8,0.3-1.2c0-0.2,0.1-0.3,0.1-0.5c0,0,0-0.1,0-0.1
			c0-0.2,0.1-0.3,0.1-0.5c0.1-0.4,0.1-0.7,0.2-1.1c0-0.4,0.1-0.7,0.1-1.1c0-0.4,0.1-0.7,0.1-1.1c0-0.4,0-0.7,0-1.1c0,0,0,0,0-0.1
			c0-0.3,0-0.7,0-1c0-0.4,0-0.7-0.1-1.1c0-0.4-0.1-0.7-0.1-1.1c0-0.4-0.1-0.8-0.1-1.1c0-0.4-0.1-0.8-0.2-1.2c0,0,0,0,0,0
			c0,0,0,0,0,0c-0.1-0.4-0.1-0.7-0.2-1.1c-0.1-0.4-0.2-0.8-0.2-1.2c-0.1-0.4-0.2-0.8-0.3-1.2c-0.1-0.4-0.2-0.8-0.3-1.2
			c-0.1-0.3-0.2-0.6-0.3-0.9c0,0,0-0.1,0-0.1c0-0.1,0-0.1-0.1-0.2c-0.1-0.4-0.3-0.8-0.4-1.2c-0.1-0.4-0.3-0.8-0.4-1.2
			c-0.1-0.4-0.3-0.8-0.4-1.1c-0.1-0.4-0.3-0.7-0.4-1.1c-0.1-0.3-0.2-0.6-0.4-0.9c0,0,0,0,0-0.1c0-0.1,0-0.1-0.1-0.2
			c-0.2-0.4-0.3-0.7-0.5-1.1c-0.2-0.4-0.4-0.8-0.6-1.2c-0.2-0.5-0.5-0.9-0.7-1.4c-0.3-0.5-0.5-1-0.8-1.5c0-0.1-0.1-0.2-0.1-0.2
			c-0.1-0.1-0.1-0.2-0.2-0.3c-0.5-0.9-1.1-1.8-1.7-2.7c-0.5-0.7-1-1.4-1.5-2.1c0,0,0,0,0,0c0,0,0,0,0,0c-0.3-0.4-0.7-0.9-1-1.3
			c-0.3-0.4-0.6-0.7-0.9-1.1c-0.3-0.4-0.6-0.7-0.9-1c-0.3-0.3-0.6-0.7-0.9-1c-0.1-0.1-0.1-0.1-0.2-0.2c0,0-0.1-0.1-0.1-0.1
			c-0.2-0.2-0.5-0.5-0.7-0.7c-0.3-0.3-0.6-0.6-1-1c-0.3-0.3-0.7-0.6-1-0.9c-0.3-0.3-0.7-0.6-1-0.9c-0.2-0.1-0.4-0.3-0.5-0.4
			c0,0-0.1-0.1-0.1-0.1c-0.1-0.1-0.3-0.2-0.4-0.3c-0.3-0.3-0.7-0.5-1-0.8c-0.3-0.2-0.7-0.5-1-0.7c-0.3-0.2-0.7-0.4-1-0.6
			c-0.3-0.2-0.6-0.4-1-0.6c-0.1,0-0.2-0.1-0.2-0.1c-0.2-0.1-0.5-0.3-0.7-0.4c-0.3-0.2-0.6-0.3-0.9-0.5c-0.2-0.1-0.4-0.2-0.6-0.3
			c0,0-0.1,0-0.1-0.1c-0.1,0-0.1-0.1-0.2-0.1c-0.3-0.1-0.6-0.3-0.9-0.4c-0.3-0.1-0.6-0.2-0.9-0.4c-0.1,0-0.1,0-0.2-0.1
			c0,0-0.1,0-0.1,0c-0.2-0.1-0.4-0.1-0.6-0.2c-0.3-0.1-0.6-0.2-1-0.3c-0.1,0-0.3-0.1-0.4-0.1c-0.1,0-0.1,0-0.2,0
			c-0.1,0-0.2,0-0.3-0.1c-0.3-0.1-0.7-0.1-1-0.2c-0.2,0-0.4,0-0.6-0.1c-0.1,0-0.1,0-0.2,0c-0.1,0-0.1,0-0.2,0c-0.4,0-0.7,0-1.1,0
			c-0.2,0-0.3,0-0.5,0c-0.1,0-0.2,0-0.4,0c-0.1,0-0.3,0-0.4,0c-0.5,0-0.9,0.1-1.3,0.2c0,0,0,0,0,0c-0.1,0-0.2,0.1-0.3,0.1
			c-0.4,0.1-0.9,0.2-1.3,0.4c0,0-0.1,0-0.1,0c-0.6,0.2-1.2,0.5-1.8,0.8l-24.3,13.3c0,0,0,0,0,0l-0.1,0c0,0,0,0,0.1,0
			C2004.7,412.5,2002.1,417.6,2002.1,424.9z M2012.3,408.8C2012.3,408.8,2012.3,408.8,2012.3,408.8c-1.1,0.2-2.2,0.6-3.3,1.2
			c0.5-0.3,1-0.5,1.6-0.7c0.5-0.2,0.9-0.3,1.4-0.4C2012.1,408.9,2012.2,408.8,2012.3,408.8z M2020.5,409.5
			C2020.5,409.6,2020.5,409.6,2020.5,409.5c-1.4-0.5-2.8-0.8-4.1-0.9c0,0,0,0,0,0c0.6,0.1,1.3,0.2,1.9,0.3c0.1,0,0.1,0,0.2,0
			C2019.1,409.1,2019.8,409.3,2020.5,409.5z M2029.8,414.9C2029.8,414.9,2029.8,414.9,2029.8,414.9c-1-0.8-2.1-1.5-3.2-2.2
			C2027.6,413.4,2028.7,414.1,2029.8,414.9z M2041.3,428.6c-1-1.7-2.1-3.4-3.2-5c0,0,0,0,0,0
			C2039.2,425.2,2040.3,426.9,2041.3,428.6z M2041.5,429c0.2,0.4,0.4,0.8,0.6,1.3C2041.9,429.8,2041.8,429.4,2041.5,429
			C2041.5,429,2041.5,429,2041.5,429z M2046.4,440.1c0.2,0.6,0.3,1.2,0.4,1.7C2046.6,441.3,2046.5,440.7,2046.4,440.1
			C2046.4,440.1,2046.4,440.1,2046.4,440.1z M2047.7,456.4C2047.7,456.4,2047.7,456.4,2047.7,456.4c0.3-1.5,0.5-3.2,0.5-5
			c0-1.3-0.2-2.7-0.3-4.1c0.2,1.4,0.3,2.8,0.3,4.1C2048.1,453.2,2048,454.9,2047.7,456.4z M2046.3,460.7
			C2046.3,460.7,2046.3,460.7,2046.3,460.7c0.4-0.8,0.6-1.8,0.9-2.8C2047,458.8,2046.7,459.8,2046.3,460.7
			C2046.3,460.6,2046.3,460.6,2046.3,460.7z M2044.6,463.3C2044.6,463.4,2044.5,463.4,2044.6,463.3c0.3-0.4,0.6-0.9,0.9-1.3
			C2045.2,462.4,2044.9,462.9,2044.6,463.3z M2033.9,418.8c0.1,0.1,0.1,0.1,0.2,0.2l0,0C2034.1,418.9,2034,418.8,2033.9,418.8z
			 M2020.6,409.6c0.7,0.2,1.4,0.5,2.2,0.9c0,0,0.1,0,0.1,0.1c0.8,0.3,1.5,0.7,2.3,1.2C2023.6,410.8,2022.1,410.1,2020.6,409.6z
			 M2012.4,408.8c0.5-0.1,1-0.2,1.6-0.2c0.1,0,0.2,0,0.4,0c0.6,0,1.2,0,1.7,0c0,0,0.1,0,0.1,0
			C2014.9,408.5,2013.6,408.6,2012.4,408.8z"/><g><linearGradient id="X" x1="6995.677" x2="7030.795" y1="440.137" y2="440.137" gradientTransform="matrix(-1 0 0 1 9036.133 0)" gradientUnits="userSpaceOnUse"><stop offset="0" stop-color="#505faa"/><stop offset=".704" stop-color="#8f92c7"/><stop offset="1" stop-color="#bcbedd"/></linearGradient><path fill="url(#X)" d="M2023,420c9.7,5.6,17.5,19.1,17.5,30.3c0,11.1-7.9,15.6-17.6,10c-9.7-5.6-17.5-19.2-17.5-30.3
				C2005.4,418.8,2013.3,414.4,2023,420z"/></g></g><g><g opacity=".49"><ellipse cx="1821.1" cy="1330.1" fill="#0f0a26" opacity="0" rx="88" ry="227.6" transform="rotate(-87.462 1821.07 1330.057) scale(.99998)"/><ellipse cx="1821.6" cy="1329.1" fill="#0f0a26" opacity=".02" rx="86.9" ry="224.7" transform="matrix(.04434 -.999 .999 .04434 413.023 3090.014)"/><ellipse cx="1822.2" cy="1328.2" fill="#0f0a26" opacity=".039" rx="85.7" ry="221.9" transform="rotate(-87.455 1822.162 1328.216)"/><ellipse cx="1822.7" cy="1327.3" fill="#0f0a26" opacity=".059" rx="84.6" ry="219" transform="rotate(-87.452 1822.702 1327.263) scale(.99999)"/><ellipse cx="1823.2" cy="1326.3" fill="#0f0a26" opacity=".078" rx="83.4" ry="216.2" transform="rotate(-87.448 1823.246 1326.326) scale(.99999)"/><ellipse cx="1823.8" cy="1325.4" fill="#0f0a26" opacity=".098" rx="82.2" ry="213.4" transform="rotate(-87.445 1823.8 1325.403)"/><ellipse cx="1824.3" cy="1324.5" fill="#0f0a26" opacity=".118" rx="81.1" ry="210.5" transform="rotate(-87.441 1824.339 1324.467)"/><ellipse cx="1824.9" cy="1323.5" fill="#0f0a26" opacity=".137" rx="79.9" ry="207.7" transform="rotate(-87.437 1824.878 1323.53)"/><ellipse cx="1825.4" cy="1322.6" fill="#0f0a26" opacity=".157" rx="78.8" ry="204.8" transform="rotate(-87.433 1825.416 1322.593)"/><ellipse cx="1826" cy="1321.7" fill="#0f0a26" opacity=".176" rx="77.6" ry="202" transform="rotate(-87.429 1825.954 1321.657)"/><ellipse cx="1826.5" cy="1320.7" fill="#0f0a26" opacity=".196" rx="76.5" ry="199.2" transform="rotate(-87.425 1826.51 1320.733) scale(1.00001)"/><ellipse cx="1827.1" cy="1319.8" fill="#0f0a26" opacity=".216" rx="75.3" ry="196.3" transform="rotate(-87.42 1827.047 1319.78)"/><ellipse cx="1827.6" cy="1318.9" fill="#0f0a26" opacity=".235" rx="74.2" ry="193.5" transform="matrix(.04508 -.999 .999 .04508 427.687 3085.155)"/><ellipse cx="1828.1" cy="1317.9" fill="#0f0a26" opacity=".255" rx="73" ry="190.6" transform="rotate(-87.412 1828.141 1317.935) scale(1.00002)"/><ellipse cx="1828.7" cy="1317" fill="#0f0a26" opacity=".275" rx="71.9" ry="187.8" transform="matrix(.04524 -.999 .999 .04524 430.306 3084.238)"/><ellipse cx="1829.2" cy="1316.1" fill="#0f0a26" opacity=".294" rx="70.7" ry="185" transform="rotate(-87.402 1829.23 1316.074) scale(1.00003)"/><ellipse cx="1829.8" cy="1315.1" fill="#0f0a26" opacity=".314" rx="69.6" ry="182.1" transform="rotate(-87.398 1829.702 1315.098)"/><ellipse cx="1830.3" cy="1314.2" fill="#0f0a26" opacity=".333" rx="68.4" ry="179.3" transform="rotate(-87.392 1830.256 1314.157)"/><ellipse cx="1830.9" cy="1313.3" fill="#0f0a26" opacity=".353" rx="67.2" ry="176.4" transform="rotate(-87.387 1830.86 1313.273) scale(1.00004)"/><ellipse cx="1831.4" cy="1312.3" fill="#0f0a26" opacity=".372" rx="66.1" ry="173.6" transform="matrix(.04568 -.999 .999 .04568 436.774 3081.883)"/><ellipse cx="1832" cy="1311.4" fill="#0f0a26" opacity=".392" rx="64.9" ry="170.7" transform="rotate(-87.376 1831.948 1311.41) scale(1.00005)"/><ellipse cx="1832.5" cy="1310.5" fill="#0f0a26" opacity=".412" rx="63.8" ry="167.9" transform="matrix(.04588 -.9989 .9989 .04588 439.325 3080.913)"/><ellipse cx="1833" cy="1309.5" fill="#0f0a26" opacity=".431" rx="62.6" ry="165.1" transform="rotate(-87.364 1833.043 1309.544) scale(.99996)"/><ellipse cx="1833.6" cy="1308.6" fill="#0f0a26" opacity=".451" rx="61.5" ry="162.2" transform="rotate(-87.358 1833.665 1308.655)"/><ellipse cx="1834.1" cy="1307.7" fill="#0f0a26" opacity=".471" rx="60.3" ry="159.4" transform="rotate(-87.352 1834.13 1307.679) scale(.99997)"/><ellipse cx="1834.7" cy="1306.7" fill="#0f0a26" opacity=".49" rx="59.2" ry="156.5" transform="matrix(.04632 -.9989 .9989 .04632 444.35 3078.918)"/><ellipse cx="1835.2" cy="1305.8" fill="#0f0a26" opacity=".51" rx="58" ry="153.7" transform="rotate(-87.338 1835.218 1305.812) scale(.99998)"/><ellipse cx="1835.8" cy="1304.9" fill="#0f0a26" opacity=".529" rx="56.9" ry="150.9" transform="matrix(.04656 -.9989 .9989 .04656 446.818 3077.887)"/><ellipse cx="1836.3" cy="1303.9" fill="#0f0a26" opacity=".549" rx="55.7" ry="148" transform="rotate(-87.324 1836.305 1303.944) scale(.99999)"/><ellipse cx="1836.8" cy="1303" fill="#0f0a26" opacity=".569" rx="54.6" ry="145.2" transform="rotate(-87.316 1836.854 1303.017)"/><ellipse cx="1837.4" cy="1302.1" fill="#0f0a26" opacity=".588" rx="53.4" ry="142.3" transform="rotate(-87.308 1837.386 1302.076)"/><ellipse cx="1837.9" cy="1301.1" fill="#0f0a26" opacity=".608" rx="52.2" ry="139.5" transform="rotate(-87.3 1837.936 1301.147) scale(1.00001)"/><ellipse cx="1838.5" cy="1300.2" fill="#0f0a26" opacity=".627" rx="51.1" ry="136.7" transform="matrix(.04726 -.9989 .9989 .04726 452.836 3075.196)"/><ellipse cx="1839" cy="1299.3" fill="#0f0a26" opacity=".647" rx="49.9" ry="133.8" transform="matrix(.04741 -.9989 .9989 .04741 454.009 3074.635)"/><ellipse cx="1839.6" cy="1298.3" fill="#0f0a26" opacity=".667" rx="48.8" ry="131" transform="rotate(-87.273 1839.566 1298.346) scale(1.00003)"/><ellipse cx="1840.1" cy="1297.4" fill="#0f0a26" opacity=".686" rx="47.6" ry="128.1" transform="rotate(-87.263 1840.11 1297.417) scale(1.00004)"/><ellipse cx="1840.7" cy="1296.5" fill="#0f0a26" opacity=".706" rx="46.5" ry="125.3" transform="rotate(-87.253 1840.654 1296.487) scale(1.00005)"/><ellipse cx="1841.2" cy="1295.6" fill="#0f0a26" opacity=".726" rx="45.3" ry="122.5" transform="rotate(-87.242 1841.205 1295.555) scale(.99996)"/><ellipse cx="1841.7" cy="1294.6" fill="#0f0a26" opacity=".745" rx="44.2" ry="119.6" transform="rotate(-87.231 1841.806 1294.661)"/><ellipse cx="1842.3" cy="1293.7" fill="#0f0a26" opacity=".765" rx="43" ry="116.8" transform="rotate(-87.22 1842.292 1293.725)"/><ellipse cx="1842.8" cy="1292.8" fill="#0f0a26" opacity=".784" rx="41.9" ry="113.9" transform="rotate(-87.207 1842.842 1292.756) scale(.99999)"/><ellipse cx="1843.4" cy="1291.8" fill="#0f0a26" opacity=".804" rx="40.7" ry="111.1" transform="rotate(-87.195 1843.378 1291.824)"/><ellipse cx="1843.9" cy="1290.9" fill="#0f0a26" opacity=".824" rx="39.6" ry="108.2" transform="rotate(-87.182 1843.921 1290.89) scale(1.00001)"/><ellipse cx="1844.5" cy="1290" fill="#0f0a26" opacity=".843" rx="38.4" ry="105.4" transform="rotate(-87.167 1844.464 1289.953) scale(1.00002)"/><ellipse cx="1845" cy="1289" fill="#0f0a26" opacity=".863" rx="37.2" ry="102.6" transform="matrix(.04968 -.9988 .9988 .04968 465.922 3067.72)"/><ellipse cx="1845.6" cy="1288.1" fill="#0f0a26" opacity=".882" rx="36.1" ry="99.7" transform="rotate(-87.137 1845.55 1288.094) scale(1.00005)"/><ellipse cx="1846.1" cy="1287.2" fill="#0f0a26" opacity=".902" rx="34.9" ry="96.9" transform="matrix(.05024 -.9987 .9987 .05024 467.818 3066.258)"/><ellipse cx="1846.6" cy="1286.2" fill="#0f0a26" opacity=".922" rx="33.8" ry="94" transform="rotate(-87.103 1846.645 1286.228) scale(.99998)"/><ellipse cx="1847.2" cy="1285.3" fill="#0f0a26" opacity=".941" rx="32.6" ry="91.2" transform="rotate(-87.084 1847.197 1285.3)"/><ellipse cx="1847.7" cy="1284.4" fill="#0f0a26" opacity=".961" rx="31.5" ry="88.4" transform="rotate(-87.064 1847.729 1284.357) scale(1.00001)"/><ellipse cx="1848.3" cy="1283.4" fill="#0f0a26" opacity=".98" rx="30.3" ry="85.5" transform="rotate(-87.044 1848.272 1283.427) scale(1.00003)"/><ellipse cx="1848.8" cy="1282.5" fill="#0f0a26" rx="29.2" ry="82.7" transform="rotate(-87.021 1848.823 1282.492) scale(.99995)"/></g><linearGradient id="Y" x1="1624.688" x2="2142.448" y1="974.776" y2="974.776" gradientUnits="userSpaceOnUse"><stop offset="0" stop-color="#9ea1cf"/><stop offset="1" stop-color="#cecfe6"/></linearGradient><polygon fill="url(#Y)" points="1641.5 1120.5 1624.7 1090.8 1772.7 713.3 2142.4 743.4 1983.7 1236.3"/><linearGradient id="Z" x1="1624.688" x2="2125.599" y1="945.017" y2="945.017" gradientUnits="userSpaceOnUse"><stop offset="0" stop-color="#efeff6"/><stop offset="1" stop-color="#fff"/></linearGradient><polygon fill="url(#Z)" points="1624.7 1090.8 1755.8 683.5 2125.6 713.6 1966.9 1206.5"/><linearGradient id="aa" x1="1817.438" x2="1898.798" y1="1113.61" y2="814.961" gradientUnits="userSpaceOnUse"><stop offset="0" stop-color="#9ea1cf"/><stop offset="1" stop-color="#cecfe6"/></linearGradient><polygon fill="url(#aa)" points="2102.3 729.2 2098.9 739.6 1775.9 713.3 1656.8 1083.2 1646.6 1079.7 1768.2 702.1"/><linearGradient id="ab" x1="1813.998" x2="1936.679" y1="1145.696" y2="695.365" gradientUnits="userSpaceOnUse"><stop offset="0" stop-color="#efeff6"/><stop offset="1" stop-color="#fff"/></linearGradient><polygon fill="url(#ab)" points="2098.9 739.6 1955.7 1184.3 1656.8 1083.2 1775.9 713.3"/><linearGradient id="ac" x1="1966.891" x2="2142.448" y1="974.922" y2="974.922" gradientUnits="userSpaceOnUse"><stop offset="0" stop-color="#9ea1cf"/><stop offset="1" stop-color="#cecfe6"/></linearGradient><polygon fill="url(#ac)" points="1966.9 1206.5 1983.7 1236.3 2142.4 743.4 2125.6 713.6"/><g><linearGradient id="ad" x1="1667.343" x2="1959.414" y1="1286.93" y2="1286.93" gradientUnits="userSpaceOnUse"><stop offset="0" stop-color="#e0e0ee"/><stop offset="1" stop-color="#cecfe6"/></linearGradient><polygon fill="url(#ad)" points="1667.3 1273.4 1839.4 1359.3 1959.4 1285.5 1777.1 1214.6"/><linearGradient id="ae" x1="1834.826" x2="1804.704" y1="1339.2" y2="1223.73" gradientUnits="userSpaceOnUse"><stop offset="0" stop-color="#efeff6"/><stop offset="1" stop-color="#d1d1e7"/></linearGradient><polygon fill="url(#ae)" points="1665.7 1244.7 1837.8 1330.6 1957.8 1256.7 1775.5 1185.8"/><linearGradient id="af" x1="1667.343" x2="1839.416" y1="1301.973" y2="1301.973" gradientUnits="userSpaceOnUse"><stop offset="0" stop-color="#e0e0ee"/><stop offset="1" stop-color="#cecfe6"/></linearGradient><polygon fill="url(#af)" points="1667.3 1244.7 1667.3 1273.4 1839.4 1359.3 1839.4 1330.6"/><linearGradient id="ag" x1="1839.416" x2="1959.414" y1="1308.01" y2="1308.01" gradientUnits="userSpaceOnUse"><stop offset="0" stop-color="#9ea1cf"/><stop offset="1" stop-color="#cecfe6"/></linearGradient><polygon fill="url(#ag)" points="1959.4 1285.5 1959.4 1256.7 1839.4 1330.6 1839.4 1359.3"/><polygon fill="#f1f1f3" points="1839.4 1329.2 1668.7 1243.9 1667.3 1244.7 1839.4 1330.6 1959.4 1256.7 1958.1 1256.2"/></g><linearGradient id="ah" x1="1782.754" x2="1802.405" y1="1215.117" y2="1215.117" gradientUnits="userSpaceOnUse"><stop offset="0" stop-color="#e0e0ee"/><stop offset="1" stop-color="#cecfe6"/></linearGradient><polygon fill="url(#ah)" points="1782.8 1168.3 1782.8 1252.6 1802.4 1262 1802.4 1174.9"/><linearGradient id="ai" x1="1802.405" x2="1821.069" y1="1218.44" y2="1218.44" gradientUnits="userSpaceOnUse"><stop offset="0" stop-color="#9ea1cf"/><stop offset="1" stop-color="#cecfe6"/></linearGradient><polygon fill="url(#ai)" points="1802.4 1174.9 1802.4 1262 1821.1 1251 1821.1 1181.2"/><g><linearGradient id="aj" x1="1794.846" x2="1907.815" y1="757.491" y2="1106.043" gradientUnits="userSpaceOnUse"><stop offset="0" stop-color="#8489c2"/><stop offset="1" stop-color="#313f95"/></linearGradient><path fill="url(#aj)" d="M1805.5,769.8c-16.8-1.7-25.2-2.6-41.8-4.3c5.3-16.8,7.9-25.2,13.1-42c16.7,1.5,25.1,2.3,42,3.9
						C1813.6,744.3,1810.9,752.8,1805.5,769.8z"/><linearGradient id="ak" x1="1841.989" x2="1954.958" y1="742.211" y2="1090.763" gradientUnits="userSpaceOnUse"><stop offset="0" stop-color="#8489c2"/><stop offset="1" stop-color="#313f95"/></linearGradient><path fill="url(#ak)" d="M1859.4,775.4c-16.9-1.8-25.3-2.7-42.1-4.4c5.4-17.1,8.1-25.6,13.3-42.4c16.9,1.6,25.4,2.4,42.3,4.1
						C1867.6,749.5,1864.9,758.1,1859.4,775.4z"/><linearGradient id="al" x1="1889.246" x2="2002.215" y1="726.895" y2="1075.447" gradientUnits="userSpaceOnUse"><stop offset="0" stop-color="#8489c2"/><stop offset="1" stop-color="#313f95"/></linearGradient><path fill="url(#al)" d="M1913.2,781c-16.8-1.8-25.2-2.7-42.1-4.4c5.5-17.4,8.3-25.9,13.6-42.8c16.9,1.7,25.4,2.5,42.3,4.1
						C1921.6,754.8,1918.9,763.4,1913.2,781z"/><linearGradient id="am" x1="1936.174" x2="2049.144" y1="711.685" y2="1060.236" gradientUnits="userSpaceOnUse"><stop offset="0" stop-color="#8489c2"/><stop offset="1" stop-color="#313f95"/></linearGradient><path fill="url(#am)" d="M1966.5,786.6c-16.5-1.7-24.9-2.6-41.6-4.3c5.7-17.7,8.4-26.3,13.8-43.1c16.8,1.6,25.2,2.5,41.7,4
						C1975.1,760,1972.3,768.7,1966.5,786.6z"/><linearGradient id="an" x1="1982.339" x2="2095.309" y1="696.722" y2="1045.274" gradientUnits="userSpaceOnUse"><stop offset="0" stop-color="#8489c2"/><stop offset="1" stop-color="#313f95"/></linearGradient><path fill="url(#an)" d="M2018.8,792c-16.1-1.6-24.3-2.5-40.8-4.2c5.8-18,8.6-26.7,14-43.5c16.5,1.6,24.7,2.3,40.8,3.8
						C2027.4,764.9,2024.6,773.7,2018.8,792z"/><linearGradient id="ao" x1="2027.302" x2="2140.271" y1="682.149" y2="1030.701" gradientUnits="userSpaceOnUse"><stop offset="0" stop-color="#8489c2"/><stop offset="1" stop-color="#313f95"/></linearGradient><path fill="url(#ao)" d="M2069.5,796.9c-15.6-1.5-23.5-2.2-39.5-3.8c5.8-18.3,8.6-27.2,14-44c16,1.4,23.9,2.1,39.4,3.5
						C2078.1,769.4,2075.3,778.4,2069.5,796.9z"/><g><linearGradient id="ap" x1="1764.535" x2="1877.504" y1="767.315" y2="1115.867" gradientUnits="userSpaceOnUse"><stop offset="0" stop-color="#8489c2"/><stop offset="1" stop-color="#313f95"/></linearGradient><path fill="url(#ap)" d="M1788.8,823c-16.6-2.2-24.9-3.2-41.4-5.4c5.3-16.7,7.9-25.1,13.1-41.8c16.6,1.7,25,2.6,41.8,4.4
						C1796.9,797.3,1794.2,805.9,1788.8,823z"/><linearGradient id="aq" x1="1810.988" x2="1923.958" y1="752.259" y2="1100.81" gradientUnits="userSpaceOnUse"><stop offset="0" stop-color="#8489c2"/><stop offset="1" stop-color="#313f95"/></linearGradient><path fill="url(#aq)" d="M1842,830c-16.7-2.2-25-3.3-41.7-5.5c5.5-17.3,8.2-25.9,13.6-43c16.8,1.8,25.2,2.7,42.1,4.6
						C1850.5,803.5,1847.7,812.3,1842,830z"/><linearGradient id="ar" x1="1857.537" x2="1970.506" y1="737.172" y2="1085.724" gradientUnits="userSpaceOnUse"><stop offset="0" stop-color="#8489c2"/><stop offset="1" stop-color="#313f95"/></linearGradient><path fill="url(#ar)" d="M1895.3,837.1c-16.6-2.2-24.9-3.3-41.6-5.5c5.7-17.9,8.5-26.7,14.1-44.2c16.8,1.8,25.2,2.8,42,4.6
						C1904.1,809.7,1901.2,818.8,1895.3,837.1z"/><linearGradient id="as" x1="1903.806" x2="2016.775" y1="722.176" y2="1070.727" gradientUnits="userSpaceOnUse"><stop offset="0" stop-color="#8489c2"/><stop offset="1" stop-color="#313f95"/></linearGradient><path fill="url(#as)" d="M1948.1,844.1c-16.4-2.2-24.7-3.3-41.2-5.4c5.9-18.4,8.8-27.6,14.5-45.4c16.7,1.8,25,2.7,41.6,4.5
						C1957.2,815.9,1954.2,825.2,1948.1,844.1z"/><linearGradient id="at" x1="1949.43" x2="2062.399" y1="707.389" y2="1055.94" gradientUnits="userSpaceOnUse"><stop offset="0" stop-color="#8489c2"/><stop offset="1" stop-color="#313f95"/></linearGradient><path fill="url(#at)" d="M2000.1,850.9c-16.1-2.1-24.2-3.1-40.5-5.3c6.1-19,9.1-28.4,14.9-46.6c16.4,1.8,24.6,2.6,40.7,4.3
						C2009.3,821.8,2006.3,831.4,2000.1,850.9z"/><linearGradient id="au" x1="1994.037" x2="2107.006" y1="692.931" y2="1041.483" gradientUnits="userSpaceOnUse"><stop offset="0" stop-color="#8489c2"/><stop offset="1" stop-color="#313f95"/></linearGradient><path fill="url(#au)" d="M2050.7,857.3c-15.6-2-23.5-3-39.5-5c6.2-19.6,9.3-29.2,15.2-47.8c16,1.7,23.9,2.5,39.5,4
						C2060,827.4,2057,837.2,2050.7,857.3z"/></g><g><linearGradient id="av" x1="1734.058" x2="1847.027" y1="777.193" y2="1125.744" gradientUnits="userSpaceOnUse"><stop offset="0" stop-color="#8489c2"/><stop offset="1" stop-color="#313f95"/></linearGradient><path fill="url(#av)" d="M1771.8,876.7c-16.4-2.8-24.6-4.2-40.9-7c5.3-16.7,7.9-25,13.1-41.7c16.5,2.2,24.7,3.4,41.3,5.7
						C1780,850.8,1777.3,859.4,1771.8,876.7z"/><linearGradient id="aw" x1="1779.372" x2="1892.342" y1="762.506" y2="1111.057" gradientUnits="userSpaceOnUse"><stop offset="0" stop-color="#8489c2"/><stop offset="1" stop-color="#313f95"/></linearGradient><path fill="url(#aw)" d="M1824.3,885.7c-16.4-2.8-24.7-4.3-41.1-7.1c5.5-17.4,8.3-26.1,13.7-43.4c16.6,2.3,24.9,3.5,41.6,5.8
						C1832.9,858.8,1830.1,867.8,1824.3,885.7z"/><linearGradient id="ax" x1="1824.761" x2="1937.73" y1="747.795" y2="1096.347" gradientUnits="userSpaceOnUse"><stop offset="0" stop-color="#8489c2"/><stop offset="1" stop-color="#313f95"/></linearGradient><path fill="url(#ax)" d="M1876.8,894.8c-16.4-2.8-24.6-4.3-41-7.1c5.8-18.1,8.6-27.2,14.4-45.1c16.6,2.3,24.9,3.5,41.5,5.8
						C1885.8,866.8,1882.8,876.1,1876.8,894.8z"/><linearGradient id="ay" x1="1869.92" x2="1982.89" y1="733.158" y2="1081.71" gradientUnits="userSpaceOnUse"><stop offset="0" stop-color="#8489c2"/><stop offset="1" stop-color="#313f95"/></linearGradient><path fill="url(#ay)" d="M1929,903.8c-16.2-2.8-24.4-4.2-40.7-7c6-18.8,9-28.2,15-46.8c16.5,2.3,24.8,3.5,41.1,5.7
						C1938.3,874.8,1935.2,884.4,1929,903.8z"/><linearGradient id="az" x1="1914.552" x2="2027.521" y1="718.693" y2="1067.245" gradientUnits="userSpaceOnUse"><stop offset="0" stop-color="#8489c2"/><stop offset="1" stop-color="#313f95"/></linearGradient><path fill="url(#az)" d="M1980.4,912.7c-15.9-2.7-24-4.1-40.2-6.9c6.3-19.6,9.4-29.3,15.5-48.4c16.3,2.3,24.4,3.4,40.5,5.6
						C1990,882.6,1986.8,892.6,1980.4,912.7z"/><linearGradient id="aA" x1="1958.352" x2="2071.321" y1="704.497" y2="1053.048" gradientUnits="userSpaceOnUse"><stop offset="0" stop-color="#8489c2"/><stop offset="1" stop-color="#313f95"/></linearGradient><path fill="url(#aA)" d="M2030.8,921.3c-15.6-2.6-23.5-4-39.3-6.7c6.4-20.3,9.6-30.4,15.9-50.2c16,2.2,23.9,3.2,39.5,5.3
						C2040.6,890.1,2037.3,900.4,2030.8,921.3z"/></g><g><linearGradient id="aB" x1="1703.48" x2="1816.45" y1="787.104" y2="1135.655" gradientUnits="userSpaceOnUse"><stop offset="0" stop-color="#8489c2"/><stop offset="1" stop-color="#313f95"/></linearGradient><path fill="url(#aB)" d="M1754.8,930.5c-16.1-3.5-24.2-5.3-40.2-8.8c5.3-16.7,7.9-25,13.1-41.7c16.2,2.9,24.4,4.4,40.7,7.3
						C1763,904.6,1760.3,913.2,1754.8,930.5z"/><linearGradient id="aC" x1="1747.43" x2="1860.399" y1="772.859" y2="1121.41" gradientUnits="userSpaceOnUse"><stop offset="0" stop-color="#8489c2"/><stop offset="1" stop-color="#313f95"/></linearGradient><path fill="url(#aC)" d="M1806.5,941.8c-16.2-3.6-24.3-5.3-40.4-8.9c5.5-17.4,8.3-26.1,13.8-43.6c16.4,3,24.6,4.5,40.9,7.4
						C1815.1,914.8,1812.2,923.8,1806.5,941.8z"/><linearGradient id="aD" x1="1791.433" x2="1904.402" y1="758.597" y2="1107.149" gradientUnits="userSpaceOnUse"><stop offset="0" stop-color="#8489c2"/><stop offset="1" stop-color="#313f95"/></linearGradient><path fill="url(#aD)" d="M1858.2,953.2c-16.1-3.5-24.2-5.3-40.4-8.9c5.8-18.1,8.7-27.2,14.5-45.4c16.4,3,24.6,4.5,40.9,7.4
						C1867.2,925,1864.2,934.4,1858.2,953.2z"/><linearGradient id="aE" x1="1835.257" x2="1948.227" y1="744.393" y2="1092.945" gradientUnits="userSpaceOnUse"><stop offset="0" stop-color="#8489c2"/><stop offset="1" stop-color="#313f95"/></linearGradient><path fill="url(#aE)" d="M1909.6,964.5c-16-3.5-24-5.3-40.1-8.8c6-18.9,9.1-28.4,15.1-47.2c16.3,3,24.4,4.5,40.6,7.4
						C1918.9,935.2,1915.8,945,1909.6,964.5z"/><linearGradient id="aF" x1="1878.671" x2="1991.641" y1="730.322" y2="1078.874" gradientUnits="userSpaceOnUse"><stop offset="0" stop-color="#8489c2"/><stop offset="1" stop-color="#313f95"/></linearGradient><path fill="url(#aF)" d="M1960.4,975.7c-15.8-3.5-23.8-5.2-39.7-8.7c6.3-19.6,9.4-29.5,15.7-49.1c16.1,2.9,24.2,4.4,40.1,7.3
						C1970.1,945.3,1966.8,955.5,1960.4,975.7z"/><linearGradient id="aG" x1="1921.441" x2="2034.41" y1="716.46" y2="1065.012" gradientUnits="userSpaceOnUse"><stop offset="0" stop-color="#8489c2"/><stop offset="1" stop-color="#313f95"/></linearGradient><path fill="url(#aG)" d="M2010.5,986.7c-15.5-3.4-23.4-5.1-39.1-8.6c6.4-20.3,9.7-30.6,16.1-50.9c15.8,2.9,23.7,4.3,39.3,7.1
						C2020.3,955.2,2017,965.7,2010.5,986.7z"/></g><g><linearGradient id="aH" x1="1672.868" x2="1785.838" y1="797.025" y2="1145.577" gradientUnits="userSpaceOnUse"><stop offset="0" stop-color="#8489c2"/><stop offset="1" stop-color="#313f95"/></linearGradient><path fill="url(#aH)" d="M1737.9,984.2c-15.9-4.2-23.8-6.3-39.7-10.5c5.3-16.7,7.9-25,13.1-41.7c16,3.6,24,5.5,40.1,9.1
						C1746,958.4,1743.3,967,1737.9,984.2z"/><linearGradient id="aI" x1="1715.451" x2="1828.421" y1="783.223" y2="1131.775" gradientUnits="userSpaceOnUse"><stop offset="0" stop-color="#8489c2"/><stop offset="1" stop-color="#313f95"/></linearGradient><path fill="url(#aI)" d="M1788.8,997.6c-15.9-4.2-23.9-6.3-39.8-10.5c5.5-17.3,8.2-26,13.7-43.4c16.1,3.7,24.2,5.5,40.3,9.2
						C1797.3,970.8,1794.4,979.8,1788.8,997.6z"/><linearGradient id="aJ" x1="1758.07" x2="1871.039" y1="769.41" y2="1117.962" gradientUnits="userSpaceOnUse"><stop offset="0" stop-color="#8489c2"/><stop offset="1" stop-color="#313f95"/></linearGradient><path fill="url(#aJ)" d="M1839.6,1011.1c-15.9-4.2-23.8-6.3-39.8-10.5c5.7-17.9,8.6-27,14.4-45.1c16.1,3.7,24.2,5.5,40.2,9.2
						C1848.5,983.4,1845.5,992.7,1839.6,1011.1z"/><linearGradient id="aK" x1="1800.559" x2="1913.529" y1="755.639" y2="1104.191" gradientUnits="userSpaceOnUse"><stop offset="0" stop-color="#8489c2"/><stop offset="1" stop-color="#313f95"/></linearGradient><path fill="url(#aK)" d="M1890.3,1024.5c-15.8-4.2-23.7-6.3-39.6-10.5c5.9-18.5,8.9-27.9,15-46.8c16.1,3.7,24.1,5.5,40,9.2
						C1899.5,995.8,1896.4,1005.5,1890.3,1024.5z"/><linearGradient id="aL" x1="1842.756" x2="1955.725" y1="741.963" y2="1090.514" gradientUnits="userSpaceOnUse"><stop offset="0" stop-color="#8489c2"/><stop offset="1" stop-color="#313f95"/></linearGradient><path fill="url(#aL)" d="M1940.7,1037.9c-15.7-4.2-23.5-6.2-39.3-10.4c6.1-19.2,9.2-28.9,15.5-48.5c15.9,3.7,23.9,5.5,39.6,9.1
						C1950.1,1008.2,1946.9,1018.2,1940.7,1037.9z"/><linearGradient id="aM" x1="1884.494" x2="1997.463" y1="728.435" y2="1076.987" gradientUnits="userSpaceOnUse"><stop offset="0" stop-color="#8489c2"/><stop offset="1" stop-color="#313f95"/></linearGradient><path fill="url(#aM)" d="M1990.5,1051.1c-15.5-4.1-23.3-6.2-38.9-10.3c6.3-19.8,9.5-29.9,15.9-50.2c15.7,3.6,23.5,5.4,39.1,8.9
						C2000,1020.4,1996.8,1030.8,1990.5,1051.1z"/></g><g><linearGradient id="aN" x1="1642.286" x2="1755.255" y1="806.937" y2="1155.489" gradientUnits="userSpaceOnUse"><stop offset="0" stop-color="#8489c2"/><stop offset="1" stop-color="#313f95"/></linearGradient><path fill="url(#aN)" d="M1721.1,1037.5c-15.7-4.7-23.6-7-39.2-11.7c5.3-16.8,7.9-25.1,13.1-41.8c15.8,4.3,23.7,6.4,39.6,10.8
						C1729.1,1011.9,1726.4,1020.5,1721.1,1037.5z"/><linearGradient id="aO" x1="1683.729" x2="1796.698" y1="793.505" y2="1142.057" gradientUnits="userSpaceOnUse"><stop offset="0" stop-color="#8489c2"/><stop offset="1" stop-color="#313f95"/></linearGradient><path fill="url(#aO)" d="M1771.3,1052.5c-15.7-4.7-23.6-7-39.3-11.7c5.4-17.1,8.1-25.7,13.6-43c15.9,4.3,23.8,6.5,39.7,10.8
						C1779.6,1026.3,1776.8,1035.1,1771.3,1052.5z"/><linearGradient id="aP" x1="1725.188" x2="1838.158" y1="780.068" y2="1128.619" gradientUnits="userSpaceOnUse"><stop offset="0" stop-color="#8489c2"/><stop offset="1" stop-color="#313f95"/></linearGradient><path fill="url(#aP)" d="M1821.6,1067.5c-15.7-4.7-23.6-7-39.3-11.7c5.6-17.5,8.4-26.4,14.1-44.2c15.9,4.3,23.8,6.5,39.7,10.8
						C1830.2,1040.7,1827.2,1049.8,1821.6,1067.5z"/><linearGradient id="aQ" x1="1766.568" x2="1879.537" y1="766.656" y2="1115.208" gradientUnits="userSpaceOnUse"><stop offset="0" stop-color="#8489c2"/><stop offset="1" stop-color="#313f95"/></linearGradient><path fill="url(#aQ)" d="M1871.7,1082.5c-15.7-4.7-23.5-7-39.2-11.7c5.7-17.9,8.6-27,14.5-45.4c15.8,4.3,23.7,6.5,39.5,10.8
						C1880.5,1055.1,1877.5,1064.4,1871.7,1082.5z"/><linearGradient id="aR" x1="1807.771" x2="1920.741" y1="753.302" y2="1101.853" gradientUnits="userSpaceOnUse"><stop offset="0" stop-color="#8489c2"/><stop offset="1" stop-color="#313f95"/></linearGradient><path fill="url(#aR)" d="M1921.7,1097.5c-15.6-4.7-23.4-7-39.1-11.7c5.8-18.2,8.8-27.6,14.9-46.6c15.8,4.3,23.6,6.5,39.3,10.7
						C1930.6,1069.4,1927.6,1079,1921.7,1097.5z"/><linearGradient id="aS" x1="1848.703" x2="1961.672" y1="740.035" y2="1088.587" gradientUnits="userSpaceOnUse"><stop offset="0" stop-color="#8489c2"/><stop offset="1" stop-color="#313f95"/></linearGradient><path fill="url(#aS)" d="M1971.4,1112.4c-15.5-4.6-23.3-7-38.9-11.6c5.9-18.6,9-28.2,15.2-47.8c15.6,4.3,23.4,6.4,38.9,10.6
						C1980.4,1083.6,1977.3,1093.5,1971.4,1112.4z"/></g><g><linearGradient id="aT" x1="1611.797" x2="1724.767" y1="816.819" y2="1165.37" gradientUnits="userSpaceOnUse"><stop offset="0" stop-color="#8489c2"/><stop offset="1" stop-color="#313f95"/></linearGradient><path fill="url(#aT)" d="M1704.5,1090.3c-15.6-4.9-23.4-7.3-39-12.2c5.3-16.8,7.9-25.2,13.1-42c15.7,4.7,23.5,7.1,39.2,11.9
						C1712.4,1065,1709.8,1073.5,1704.5,1090.3z"/><linearGradient id="aU" x1="1652.552" x2="1765.521" y1="803.61" y2="1152.161" gradientUnits="userSpaceOnUse"><stop offset="0" stop-color="#8489c2"/><stop offset="1" stop-color="#313f95"/></linearGradient><path fill="url(#aU)" d="M1754.4,1105.9c-15.6-4.9-23.4-7.3-39-12.2c5.3-16.8,8-25.3,13.3-42.4c15.7,4.8,23.5,7.1,39.2,11.9
						C1762.4,1080.5,1759.7,1089.1,1754.4,1105.9z"/><linearGradient id="aV" x1="1693.303" x2="1806.272" y1="790.402" y2="1138.954" gradientUnits="userSpaceOnUse"><stop offset="0" stop-color="#8489c2"/><stop offset="1" stop-color="#313f95"/></linearGradient><path fill="url(#aV)" d="M1804.3,1121.5c-15.6-4.9-23.4-7.3-39-12.2c5.3-16.8,8.1-25.4,13.6-42.8c15.7,4.8,23.5,7.1,39.2,11.9
						C1812.4,1096.1,1809.7,1104.7,1804.3,1121.5z"/><linearGradient id="aW" x1="1734.022" x2="1846.992" y1="777.205" y2="1125.756" gradientUnits="userSpaceOnUse"><stop offset="0" stop-color="#8489c2"/><stop offset="1" stop-color="#313f95"/></linearGradient><path fill="url(#aW)" d="M1854.2,1137.1c-15.6-4.9-23.4-7.3-39-12.2c5.4-16.8,8.2-25.5,13.8-43.1c15.7,4.8,23.5,7.1,39.1,11.9
						C1862.4,1111.6,1859.6,1120.3,1854.2,1137.1z"/><linearGradient id="aX" x1="1774.685" x2="1887.654" y1="764.025" y2="1112.577" gradientUnits="userSpaceOnUse"><stop offset="0" stop-color="#8489c2"/><stop offset="1" stop-color="#313f95"/></linearGradient><path fill="url(#aX)" d="M1904.1,1152.7c-15.6-4.9-23.4-7.3-39-12.2c5.4-16.8,8.2-25.5,14-43.5c15.6,4.7,23.4,7.1,39,11.9
						C1912.3,1127.1,1909.5,1135.9,1904.1,1152.7z"/><linearGradient id="aY" x1="1815.261" x2="1928.23" y1="750.874" y2="1099.426" gradientUnits="userSpaceOnUse"><stop offset="0" stop-color="#8489c2"/><stop offset="1" stop-color="#313f95"/></linearGradient><path fill="url(#aY)" d="M1954,1168.3c-15.6-4.9-23.4-7.3-39-12.2c5.4-16.8,8.2-25.7,14-44c15.6,4.7,23.4,7.1,38.9,11.8
						C1962,1142.5,1959.2,1151.5,1954,1168.3z"/></g></g></g></svg>