<svg xmlns="http://www.w3.org/2000/svg" xmlns:xlink="http://www.w3.org/1999/xlink" enable-background="new 0 0 3000 2000" viewBox="0 0 3000 2000"><switch><g><polygon fill="#9b5696" points="490.224 430.911 471.519 420.041 472.783 1337.12 491.487 1347.99"/><path fill="#ab5ea7" d="M397.365,436.137L541.826,106.17c2.943-6.701,7.616-11.901,12.295-14.602
										c3.827-2.21,7.657-2.748,10.546-1.069l18.704,10.87c-2.889-1.679-6.719-1.141-10.546,1.069
										c-4.679,2.701-9.352,7.901-12.295,14.602L416.069,447.006c-4.28,9.776-2.868,17.908,1.849,20.649l-18.704-10.87
										C394.497,454.045,393.085,445.913,397.365,436.137z"/><defs><path id="a" d="M572.825,102.438c-4.679,2.701-9.352,7.901-12.295,14.602L416.069,447.006
																	c-6.661,15.215,0.465,26.449,12.377,19.572l61.778-35.667l1.263,917.079l166.797-96.3l-1.263-917.079l61.761-35.658
																	c11.929-6.887,18.968-26.299,12.243-33.786L585.15,102.826C582.188,99.534,577.504,99.737,572.825,102.438z"/></defs><use fill="#dd7ad6" overflow="visible" xlink:href="#a"/><polygon points="485.412 1482.531 503.381 1492.974 675.205 1393.771 657.236 1383.329" opacity=".07"/><path d="M1080.105,1795.774c-35.126,0-69.35-8.59-96.378-24.197l-303.87-175.435
												c-39.254-22.658-62.725-60.219-62.782-100.462c-0.062-40.155,23.181-77.646,62.18-100.304l301.883-175.435
												c26.958-15.668,61.191-24.302,96.396-24.302c35.108,0,69.333,8.59,96.36,24.188l303.87,175.444
												c39.249,22.667,62.721,60.219,62.782,100.453c0.053,40.155-23.208,77.672-62.219,100.339l-301.887,175.435
												C1149.49,1787.149,1115.279,1795.774,1080.105,1795.774z" opacity=".05"/><path fill="#cce6ff" d="M655.741,1007.427c25.984-38.766,55.364-56.762,55.364-56.762l301.891-175.439
											c17.441-10.136,40.363-15.717,64.544-15.717c24.165,0,47.129,5.573,64.661,15.694l330.354,190.309
											c31.744,18.287,51.454,51.994,51.824,88.626l3.837,379.435c0.118,41.892-28.332,91.189-64.77,112.225l-305.17,176.191
											c-11.319,6.535-39.44,16.652-76.963,16.253c-43.191-0.459-72.201-12.506-83.457-19.004l-303.865-175.437
											c-36.333-20.977-64.703-70.133-64.585-111.904l0.99-349.166C630.394,1082.73,627.853,1049.035,655.741,1007.427z"/><path fill="#94c9ff" d="M1013.211,1213.108c34.077,19.674,61.637,67.411,61.526,106.625
											c-0.265,93.429-47.418,201.568-1.75,364.581c-0.111,39.215-27.852,55.023-61.929,35.349
											c-111.811-114.105-229.739-139.176-311.046-186.118c-34.127-19.703-61.687-67.44-61.576-106.655
											c52.554-173.56,6.82-265.548,7.085-358.977c0.111-39.214,15.3-40.095,61.979-35.32
											C879.011,1126.515,931.904,1166.165,1013.211,1213.108z"/><path fill="#cacaca" d="M898.865,1442.362c18.801,10.373,34.345,36.126,34.7,57.523
											c0.846,50.978,107.053,63.468,108.366,142.562c0.551,33.198-22.672,47.037-51.843,30.943
											c-69.601-38.401-208.804-115.203-278.405-153.604c-29.214-16.118-53.33-56.075-53.881-89.274
											c-1.313-79.094,29.031-16.245,28.185-67.224c-0.355-21.397,14.613-30.316,33.441-19.928
											C764.286,1368.111,758.095,1463.891,898.865,1442.362z" opacity=".43"/><path fill="#94c9ff" d="M1468.794,1028.14c34.077-19.674,61.795-3.878,61.906,35.335
											c-20.028,218.025-13.317,278.424,1.059,373.669c0.111,39.156-27.427,86.855-61.504,106.529
											c-81.298,46.937-224.734,61.323-318.545,168.983c-34.126,19.703-70.703,22.672-70.814-16.484
											c20.404-139.52,1.419-280.251,1.154-373.669c-0.111-39.213,27.427-86.911,61.553-106.614
											C1224.901,1168.951,1379.807,1140.569,1468.794,1028.14z"/><path fill="#94c9ff" d="M1447.999,1081.007c27.733-16.011,50.292-3.156,50.382,28.757
											c-16.3,177.439-10.838,226.594,0.862,304.108c0.09,31.867-22.322,70.686-50.055,86.698
											c-66.164,38.199-188.308,65.179-264.656,152.797c-27.774,16.035-52.133,3.179-52.223-28.688
											c16.606-113.548,1.155-228.081,0.939-304.108c-0.09-31.913,22.322-70.732,50.095-86.767
											C1249.506,1195.605,1375.577,1172.507,1447.999,1081.007z"/><path fill="#fff" d="M1453.631,962.69c31.885,18.409,32.053,48.24,0.375,66.65
											c-163.744,53.532-88.17,66.127-316.509,171.358c-31.632,18.383-83.132,18.383-115.018-0.026
											c-75.966-43.859-227.899-131.578-303.866-175.437c-31.885-18.409-32.053-48.24-0.421-66.623
											c75.473-43.86,238.286-93.015,301.891-175.44c31.678-18.409,83.179-18.41,115.064-0.001
											C1202.093,846.703,1377.665,918.831,1453.631,962.69z" opacity=".69"/><path fill="#94c9ff" d="M1412.631,953.107c28.601,16.513,28.752,43.272,0.336,59.785
											c-146.879,48.018-79.089,59.316-283.91,153.708c-28.374,16.489-74.57,16.489-103.172-0.024
											c-68.142-39.342-204.426-118.026-272.569-157.368c-28.601-16.513-28.752-43.271-0.378-59.761
											c67.699-39.342,213.743-83.434,270.797-157.37c28.416-16.513,74.612-16.513,103.213,0
											C1187,849.065,1344.489,913.765,1412.631,953.107z"/><defs><path id="b" d="M655.741,1007.427c25.984-38.766,55.364-56.762,55.364-56.762l301.891-175.439
												c17.441-10.136,40.363-15.717,64.544-15.717c24.165,0,47.129,5.573,64.661,15.694l330.354,190.309
												c31.744,18.287,51.454,51.994,51.824,88.626l3.837,379.435c0.118,41.892-28.332,91.189-64.77,112.225l-305.17,176.191
												c-11.319,6.535-39.44,16.652-76.963,16.253c-43.191-0.459-72.201-12.506-83.457-19.004l-303.865-175.437
												c-36.333-20.977-64.703-70.133-64.585-111.904l0.99-349.166C630.394,1082.73,627.853,1049.035,655.741,1007.427z"/></defs><use fill="#a8b0b0" opacity=".75" overflow="visible" xlink:href="#b"/><clipPath id="c"><use opacity=".75" overflow="visible" xlink:href="#b"/></clipPath><g clip-path="url(#c)"><path fill="#4a4a4a" d="M1384.176,628.81c165.861,95.76,166.735,251.047,1.952,346.809
													s-218.674-113.171-598.707-0.012C621.56,879.847,1218.315,533.05,1384.176,628.81z"/></g><g clip-path="url(#c)" opacity=".5"><path fill="#4a4a4a" d="M1044.378,1070.235c104.312,0,200.239,24.913,115.766,55.423
													c-139.744,29.782-176.951-16.609-268.179-69.279c-45.673-29.229-38.801-61.302-24.248-79.671
													C958.35,924.038,953.151,1017.565,1044.378,1070.235z"/></g><g clip-path="url(#c)"><path fill="#6e6e6e" d="M1510.802,1068.582c165.887-95.775,300.781-18.903,301.321,171.714
												c0.54,190.587-133.478,422.716-299.365,518.49c-165.861,95.76-300.755,18.888-301.295-171.699
												C1210.923,1396.47,1318.602,1438.699,1510.802,1068.582z"/></g><g clip-path="url(#c)"><path fill="#bcbcbc" d="M1176.901,1234.02c86.512-49.949,18.612,111.567,18.893,210.977
												c0.282,99.395,86.705,162.503,47.234,198.382c-74.524,67.741-119.149,18.72-129.106-141.701
												C1149.785,1326.051,1090.402,1283.961,1176.901,1234.02z"/></g><g><path fill="#e6f2ff" d="M1055.451,147.045c-11.67,19.691-21.999,39.778-27.987,60.686
									c-2.959,10.45-5.074,20.969-6.049,31.522c-0.949,10.559-0.648,21.116,0.428,31.512l0.949,7.782
									c0.447,2.431,0.795,4.441,1.452,6.679c1.095,4.356,2.972,8.712,4.9,13.033c4.231,8.663,9.769,17.22,16.141,25.737
									c12.519,17.235,27.627,34.273,42.18,53.384c14.373,19.134,29.784,39.926,39.756,66.214
									c4.778,13.084,8.035,27.433,8.257,42.05c0.426,14.548-2.142,29.275-6.761,42.779c-9.423,27.255-26.458,48.264-43.18,64.879
									c-8.429,8.369-16.961,15.846-24.803,23.181c-7.953,7.422-14.99,14.381-19.54,24.868l-0.119,0.275
									c-0.741,1.709-2.727,2.493-4.436,1.751c-0.812-0.352-1.417-0.992-1.747-1.742c-2.682-6.132-3.32-13.245-2.899-20.032
									c0.393-6.845,2.001-13.328,3.636-19.607c3.623-12.444,8.516-23.501,12.946-34.008c9.12-20.873,16.429-39.432,19.193-56.457
									c2.67-17.027,2.724-32.716-0.244-50.422c-2.831-17.739-10.829-36.926-21.836-55.634
									c-10.893-18.845-24.033-37.836-35.874-59.292c-5.764-10.823-11.136-22.471-15.035-35.176
									c-1.795-6.464-3.427-13.034-4.098-19.985c-0.425-3.367-0.523-7.076-0.581-10.322l0.291-9.341
									c1.411-24.877,7.795-49.35,18.745-70.908c10.743-21.729,25.671-40.253,41.241-57.151c1.176-1.298,3.181-1.396,4.479-0.22
									C1055.982,144.102,1056.189,145.778,1055.451,147.045z"/><path fill="#e6f2ff" d="M1160.317,74.821c-14.722,25.64-27.839,51.225-34.417,77.967
									c-6.668,26.689-8.196,53.902-5.229,80.982l1.046,10.13c0.508,3.1,0.991,5.895,1.608,8.806
									c1.442,5.735,3.021,11.351,5.397,16.834c4.424,10.988,10.724,21.552,18.304,31.989
									c14.655,21.147,34.207,41.654,54.055,65.006c10.007,11.644,20.154,24.16,30.137,37.929
									c9.892,13.802,19.455,29.203,26.603,46.822c7.186,17.509,11.606,37.135,12.021,56.734c0.62,19.491-2.949,39.231-9.35,57.185
									c-3.347,8.916-7.256,17.446-11.53,25.483c-4.544,7.878-9.215,15.475-14.369,22.361
									c-10.323,13.826-21.456,25.679-32.815,36.04c-11.281,10.38-22.632,19.458-33.036,28.235
									c-10.402,9.01-20.066,16.898-26.565,30.394l-0.223,0.463c-1.249,2.593-4.364,3.684-6.957,2.435
									c-1.035-0.498-1.83-1.294-2.333-2.234c-4.203-7.843-5.673-17.295-5.605-26.392c-0.022-9.189,1.633-17.998,3.603-26.343
									c4.162-16.693,10.126-31.35,15.464-45.107c11.066-27.308,19.546-50.767,22.364-71.272
									c1.297-10.297,2.145-19.871,2.005-29.712c-0.036-9.722-0.622-19.285-2.303-29.712c-3.15-20.801-13.381-44.609-28.44-68.239
									c-14.783-23.903-32.785-48.771-47.521-78.482c-7.14-14.892-13.304-31.124-16.798-48.398
									c-1.896-8.553-2.804-17.438-3.271-26.224c-0.131-4.373-0.071-8.908,0.047-13.12l0.905-11.86
									c2.94-31.506,10.842-63.135,24.918-91.335c7.044-14.081,15.497-27.227,24.824-39.307
									c9.434-12.039,19.659-23.001,29.788-33.72c1.807-1.939,4.844-2.045,6.783-0.237
									C1161.084,70.465,1161.385,72.934,1160.317,74.821z"/><path fill="#e6f2ff" d="M1506.272,445.626c8.141,13.736,15.346,27.749,19.523,42.334
									c2.065,7.29,3.539,14.628,4.22,21.99c0.662,7.366,0.452,14.73-0.298,21.983l-0.662,5.429
									c-0.312,1.696-0.555,3.098-1.013,4.659c-0.764,3.038-2.073,6.078-3.418,9.092c-2.951,6.043-6.815,12.013-11.26,17.954
									c-8.733,12.023-19.272,23.909-29.425,37.24c-10.027,13.348-20.777,27.852-27.734,46.19
									c-3.333,9.127-5.605,19.137-5.76,29.334c-0.297,10.149,1.494,20.422,4.716,29.842c6.574,19.013,18.457,33.669,30.122,45.259
									c5.88,5.838,11.832,11.054,17.302,16.171c5.548,5.178,10.457,10.032,13.631,17.348l0.083,0.192
									c0.517,1.192,1.903,1.739,3.095,1.222c0.566-0.245,0.989-0.692,1.219-1.215c1.871-4.277,2.316-9.24,2.023-13.974
									c-0.274-4.775-1.396-9.297-2.536-13.678c-2.527-8.681-5.941-16.394-9.031-23.724c-6.362-14.561-11.46-27.507-13.388-39.384
									c-1.862-11.878-1.9-22.823,0.17-35.174c1.974-12.374,7.554-25.759,15.232-38.809c7.599-13.146,16.765-26.394,25.026-41.362
									c4.021-7.55,7.769-15.675,10.488-24.539c1.252-4.509,2.391-9.092,2.859-13.941c0.297-2.349,0.365-4.936,0.405-7.201
									l-0.203-6.517c-0.984-17.354-5.438-34.427-13.076-49.465c-7.494-15.158-17.908-28.08-28.769-39.868
									c-0.82-0.905-2.219-0.974-3.124-0.154C1505.901,443.573,1505.757,444.742,1506.272,445.626z"/><path fill="#e6f2ff" d="M1433.118,395.243c10.27,17.886,19.42,35.734,24.009,54.389
									c4.652,18.618,5.718,37.602,3.647,56.492l-0.73,7.066c-0.354,2.162-0.692,4.112-1.122,6.143
									c-1.006,4.001-2.108,7.918-3.765,11.743c-3.086,7.665-7.481,15.035-12.768,22.316
									c-10.223,14.752-23.863,29.057-37.709,45.348c-6.981,8.123-14.059,16.854-21.024,26.459
									c-6.901,9.628-13.572,20.372-18.558,32.662c-5.013,12.214-8.096,25.905-8.385,39.578
									c-0.433,13.597,2.057,27.367,6.522,39.892c2.335,6.22,5.062,12.17,8.043,17.777c3.17,5.496,6.428,10.795,10.024,15.599
									c7.201,9.645,14.968,17.913,22.891,25.141c7.869,7.241,15.788,13.574,23.045,19.696
									c7.257,6.285,13.998,11.788,18.531,21.203l0.155,0.323c0.871,1.809,3.044,2.57,4.853,1.699
									c0.722-0.347,1.277-0.902,1.627-1.559c2.932-5.471,3.958-12.065,3.91-18.411c0.016-6.41-1.139-12.555-2.513-18.377
									c-2.903-11.645-7.064-21.869-10.788-31.466c-7.719-19.05-13.635-35.415-15.601-49.719
									c-0.905-7.183-1.496-13.862-1.399-20.727c0.025-6.782,0.434-13.453,1.607-20.727c2.198-14.511,9.334-31.119,19.839-47.603
									c10.312-16.675,22.871-34.022,33.15-54.749c4.981-10.389,9.281-21.712,11.718-33.762c1.323-5.966,1.956-12.164,2.282-18.294
									c0.092-3.05,0.049-6.214-0.033-9.153l-0.631-8.273c-2.051-21.978-7.563-44.043-17.383-63.714
									c-4.914-9.823-10.81-18.994-17.317-27.42c-6.581-8.398-13.714-16.046-20.78-23.523c-1.261-1.352-3.379-1.426-4.732-0.165
									C1432.583,392.204,1432.374,393.927,1433.118,395.243z"/><path fill="#e6f2ff" d="M737.577,373.628c10.42,18.147,19.704,36.256,24.36,55.184
									c4.72,18.89,5.801,38.151,3.701,57.317l-0.74,7.169c-0.359,2.194-0.702,4.172-1.138,6.233
									c-1.02,4.059-2.138,8.034-3.82,11.915c-3.131,7.777-7.59,15.254-12.955,22.642c-10.372,14.968-24.211,29.482-38.26,46.01
									c-7.083,8.242-14.264,17.1-21.331,26.846c-7.002,9.769-13.77,20.669-18.829,33.14c-5.086,12.393-8.214,26.284-8.508,40.156
									c-0.439,13.795,2.087,27.767,6.618,40.475c2.369,6.311,5.135,12.348,8.16,18.036c3.216,5.576,6.522,10.953,10.17,15.827
									c7.306,9.786,15.186,18.175,23.226,25.508c7.984,7.347,16.019,13.772,23.382,19.984c7.363,6.377,14.203,11.96,18.802,21.512
									l0.158,0.328c0.884,1.836,3.089,2.607,4.924,1.724c0.732-0.353,1.295-0.916,1.651-1.581
									c2.975-5.551,4.016-12.241,3.967-18.68c0.016-6.504-1.156-12.739-2.55-18.645c-2.945-11.815-7.167-22.189-10.945-31.926
									c-7.832-19.328-13.834-35.932-15.829-50.445c-0.918-7.288-1.518-14.064-1.419-21.03c0.026-6.881,0.441-13.65,1.63-21.03
									c2.23-14.723,9.471-31.573,20.129-48.298c10.463-16.918,23.205-34.519,33.635-55.548
									c5.054-10.541,9.416-22.029,11.89-34.255c1.342-6.053,1.985-12.342,2.315-18.561c0.093-3.095,0.05-6.305-0.033-9.286
									l-0.641-8.394c-2.081-22.299-7.674-44.686-17.637-64.645c-4.985-9.966-10.968-19.271-17.57-27.821
									c-6.677-8.521-13.914-16.28-21.083-23.867c-1.279-1.372-3.429-1.447-4.801-0.168
									C737.034,370.545,736.822,372.293,737.577,373.628z"/></g><g opacity=".07"><path d="M1074.165,1893.993c-10.759,0-19.928-4.422-23.726-10.712c-3.697,1.482-8.007,2.41-12.659,2.41
								c-7.279,0-13.763-2.157-18.29-5.506c-18.676-0.036-33.803-10.144-33.803-22.615c0-12.518,15.184-22.639,33.917-22.639
								c18.164,0,32.871,9.555,33.735,21.531c3.026,1.638,5.482,3.711,7.063,6.108c3.981-1.687,8.69-2.711,13.763-2.711
								c14.127,0,25.58,7.651,25.58,17.073C1099.745,1886.366,1088.291,1893.993,1074.165,1893.993z"/><path d="M788.122,1786.518c-18.733,0-33.917-10.144-33.917-22.651c0-12.482,15.184-22.628,33.917-22.628
								s33.929,10.145,33.929,22.628C822.051,1776.374,806.855,1786.518,788.122,1786.518z"/><path d="M949.722,1870.306c-10.554,0-19.086-5.711-19.086-12.736c0-7.049,8.531-12.748,19.086-12.748
								c10.532,0,19.074,5.699,19.074,12.748C968.797,1864.595,960.255,1870.306,949.722,1870.306z"/><path d="M913.543,1843.219c1.387,2.361,2.184,4.88,2.184,7.567c0,11.458-13.922,20.76-31.097,20.76
								c-17.175,0-31.118-9.302-31.118-20.76c0-7.229,5.539-13.567,13.91-17.301c-0.262-1.001-0.455-1.989-0.455-3.049
								c0-10.025,12.181-18.17,27.229-18.17c15.048,0,27.241,8.146,27.241,18.17C921.436,1835.424,918.41,1839.942,913.543,1843.219
								z"/><path d="M734.336,1753.059c-16.106,0-29.164-8.723-29.164-19.483c0-10.748,13.057-19.458,29.164-19.458
								c16.105,0,29.173,8.711,29.173,19.458C763.509,1744.336,750.441,1753.059,734.336,1753.059z"/><path d="M698.667,1626.089c0,6.603-8.031,11.953-17.937,11.953c-9.907,0-17.936-5.35-17.936-11.953
								s8.029-11.976,17.936-11.976C690.637,1614.113,698.667,1619.486,698.667,1626.089z"/><path d="M708.38,1560.774c-9.907,0-17.948-5.362-17.948-11.989c0-6.603,8.041-11.953,17.948-11.953
								s17.926,5.35,17.926,11.953C726.305,1555.412,718.286,1560.774,708.38,1560.774z"/><path d="M680.594,1697.647c9.919,0,17.936,5.362,17.936,11.976c0,6.603-8.018,11.953-17.936,11.953
								c-9.895,0-17.926-5.35-17.926-11.953C662.668,1703.009,670.698,1697.647,680.594,1697.647z"/><path d="M708.38,1760.107c9.907,0,17.926,5.35,17.926,11.953c0,6.602-8.019,11.964-17.926,11.964
								s-17.948-5.362-17.948-11.964C690.432,1765.457,698.473,1760.107,708.38,1760.107z"/><path d="M830.275,1813.701c-3.515,0-6.791-0.712-9.566-1.88c0.261,1.024,0.466,2.048,0.466,3.133
								c0,10.482-12.728,18.989-28.446,18.989s-28.469-8.507-28.469-18.989c0-10.495,12.75-19,28.469-19
								c7.654,0,14.57,2.048,19.689,5.325c0.363-6.41,8.201-11.519,17.857-11.519c9.917,0,17.948,5.362,17.948,11.965
								C848.222,1808.339,840.192,1813.701,830.275,1813.701z"/><path d="M828.738,1849.099c9.895,0,17.937,5.362,17.937,11.953c0,6.614-8.042,11.976-17.937,11.976
								c-9.907,0-17.936-5.362-17.936-11.976C810.802,1854.462,818.831,1849.099,828.738,1849.099z"/><path d="M953.737,1894.884c-9.906,0-17.936-5.35-17.936-11.964s8.03-11.976,17.936-11.976
								c9.907,0,17.937,5.362,17.937,11.976S963.644,1894.884,953.737,1894.884z"/><path d="M1055.58,1908.415c9.917,0,17.948,5.362,17.948,11.976c0,6.616-8.031,11.976-17.948,11.976
								c-9.907,0-17.926-5.361-17.926-11.976C1037.654,1913.777,1045.673,1908.415,1055.58,1908.415z"/><path d="M1108.058,1897.5c9.896,0,17.926,5.361,17.926,11.952c0,6.614-8.029,11.976-17.926,11.976
								c-9.906,0-17.936-5.362-17.936-11.976C1090.122,1902.861,1098.152,1897.5,1108.058,1897.5z"/><path d="M1270.092,1861.582c9.895,0,17.936,5.362,17.936,11.964c0,6.615-8.041,11.976-17.936,11.976
								c-4.221,0-8.019-1.012-11.09-2.614c-2.081,6.169-10.327,10.772-20.189,10.772c-6.631,0-12.466-2.121-16.265-5.362
								c-2.775,1.181-6.028,1.891-9.554,1.891c-1.728,0-3.378-0.228-4.959-0.529c-4.413,4.627-12.113,7.711-20.917,7.711
								c-13.569,0-24.578-7.291-24.795-16.314c-1.785,6.771-9.167,12.206-18.881,14.193c-2.32,0.735-4.867,1.168-7.609,1.168
								c-1.911,0-3.719-0.241-5.437-0.614c-12.704-1.578-22.339-8.988-22.339-17.916c0-10.097,12.262-18.291,27.367-18.291
								c14.991,0,27.127,8.049,27.342,18.013c1.615-5.555,7.37-10.085,15.036-12.169c-2.525-3.266-4.094-6.88-4.094-10.808
								c0-12.495,14.581-22.628,32.972-23.47c-0.489-1.097-0.83-2.242-0.83-3.435c0-6.602,8.031-11.964,17.937-11.964
								s17.936,5.362,17.936,11.964c0,4.146-3.174,7.796-7.973,9.941c6.654,4.313,10.816,10.302,10.816,16.965
								c0,4.169-1.75,8.024-4.595,11.422c5.095,0.193,9.69,1.566,13.148,3.77C1255.464,1865.063,1262.13,1861.582,1270.092,1861.582
								z"/><path d="M1382.158,1842.316c0,6.614-8.029,11.976-17.936,11.976c-9.918,0-17.937-5.362-17.937-11.976
								c0-6.591,8.019-11.953,17.937-11.953C1374.129,1830.363,1382.158,1835.725,1382.158,1842.316z"/><path d="M1323.525,1826.183c0,0.638-0.148,1.241-0.295,1.856c7.017,2.036,11.919,6.675,11.919,12.085
								c0,7.289-8.838,13.193-19.757,13.193c-7.757,0-14.399-3-17.64-7.35c-3.959,2.579-9.35,4.157-15.31,4.157
								c-12.17,0-22.031-6.579-22.031-14.699c0-8.109,9.861-14.687,22.031-14.687c2.32,0,4.527,0.301,6.631,0.746
								c2.742-4.253,9.111-7.253,16.504-7.253C1315.496,1814.23,1323.525,1819.58,1323.525,1826.183z"/><path d="M1414.369,1792.663c0,8.976-10.872,16.217-24.306,16.217c-13.421,0-24.306-7.241-24.306-16.217
								c0-8.952,10.885-16.218,24.306-16.218C1403.496,1776.445,1414.369,1783.711,1414.369,1792.663z"/><path d="M1465.529,1753.938c0,11.928-14.502,21.616-32.392,21.616c-17.892,0-32.382-9.688-32.382-21.616
								c0-11.941,14.49-21.627,32.382-21.627C1451.027,1732.311,1465.529,1741.998,1465.529,1753.938z"/><path d="M1487.287,1690.128c3.298-1.3,7.098-2.108,11.191-2.108c12.17,0,22.021,6.578,22.021,14.699
								c0,8.11-9.851,14.699-22.021,14.699c-7.962,0-14.877-2.843-18.755-7.072c-3.276,1.302-7.064,2.109-11.169,2.109
								c-12.159,0-22.02-6.591-22.02-14.712c0-8.096,9.86-14.687,22.02-14.687C1476.516,1683.056,1483.431,1685.9,1487.287,1690.128
								z"/><path d="M1336.446,1811.098c-12.158,0-22.031-6.591-22.031-14.699c0-8.121,9.873-14.687,22.031-14.687
								c12.17,0,22.019,6.566,22.019,14.687C1358.466,1804.507,1348.616,1811.098,1336.446,1811.098z"/><path d="M1496.932,1651.837c-12.158,0-22.031-6.578-22.031-14.675c0-8.133,9.873-14.724,22.031-14.724
								c12.17,0,22.031,6.591,22.031,14.724C1518.963,1645.259,1509.102,1651.837,1496.932,1651.837z"/></g><g><g opacity=".3"><path d="M1622.1,679.408c-2.849,1.096-8.552,2.704-15.203,2.704c-7.454,0-13.594-1.901-18.418-6.505
								c-4.241-4.093-6.87-10.67-6.87-18.345c0-14.691,10.159-25.436,26.677-25.436c5.701,0,10.232,1.243,12.351,2.266l-1.606,5.189
								c-2.632-1.241-5.92-2.119-10.891-2.119c-11.987,0-19.807,7.455-19.807,19.807c0,12.499,7.456,19.88,19.004,19.88
								c4.165,0,7.017-0.585,8.479-1.316v-14.691h-9.941v-5.116h16.226V679.408z"/><path d="M1639.717,666.106l-5.115,15.494h-6.58l16.812-49.263h7.603l16.809,49.263h-6.797l-5.261-15.494H1639.717z
								 M1655.945,661.135l-4.897-14.18c-1.096-3.215-1.829-6.139-2.559-8.989h-0.146c-0.73,2.85-1.462,5.92-2.485,8.916
								l-4.824,14.253H1655.945z"/><path d="M1675.681,673.852c2.849,1.827,6.943,3.217,11.328,3.217c6.506,0,10.305-3.435,10.305-8.406
								c0-4.531-2.629-7.235-9.282-9.72c-8.04-2.924-13.008-7.163-13.008-14.033c0-7.675,6.357-13.375,15.933-13.375
								c4.971,0,8.696,1.169,10.818,2.411l-1.755,5.19c-1.536-0.951-4.824-2.339-9.282-2.339c-6.724,0-9.282,4.02-9.282,7.382
								c0,4.604,2.996,6.87,9.795,9.502c8.33,3.215,12.498,7.235,12.498,14.471c0,7.601-5.554,14.253-17.175,14.253
								c-4.751,0-9.941-1.462-12.573-3.217L1675.681,673.852z"/></g><g opacity=".3"><path d="M1583.728,1287.866c2.849,1.826,6.943,3.215,11.328,3.215c6.506,0,10.305-3.435,10.305-8.406
								c0-4.531-2.629-7.236-9.282-9.722c-8.04-2.922-13.008-7.163-13.008-14.033c0-7.673,6.357-13.374,15.933-13.374
								c4.971,0,8.696,1.169,10.818,2.412l-1.755,5.188c-1.536-0.95-4.824-2.339-9.282-2.339c-6.724,0-9.282,4.021-9.282,7.383
								c0,4.604,2.996,6.87,9.795,9.502c8.33,3.215,12.498,7.236,12.498,14.47c0,7.603-5.554,14.253-17.175,14.253
								c-4.751,0-9.941-1.46-12.573-3.215L1583.728,1287.866z"/><path d="M1662.666,1270.469c0,16.885-10.305,25.947-22.876,25.947c-13.083,0-22.146-10.159-22.146-25.068
								c0-15.642,9.646-25.874,22.803-25.874C1653.97,1245.474,1662.666,1255.779,1662.666,1270.469z M1624.368,1271.201
								c0,10.598,5.701,20.027,15.789,20.027c10.085,0,15.786-9.282,15.786-20.466c0-9.866-5.117-20.1-15.715-20.1
								S1624.368,1260.457,1624.368,1271.201z"/><path d="M1670.857,1246.35h6.433v43.928h21.05v5.334h-27.483V1246.35z"/><path d="M1711.79,1246.35v49.263h-6.433v-49.263H1711.79z"/><path d="M1722.9,1247.08c3.875-0.657,8.479-1.096,13.523-1.096c9.136,0,15.64,2.195,19.954,6.14
								c4.458,4.021,7.017,9.722,7.017,17.688c0,8.04-2.559,14.619-7.09,19.15c-4.678,4.604-12.28,7.09-21.855,7.09
								c-4.604,0-8.33-0.22-11.548-0.586V1247.08z M1729.26,1290.642c1.606,0.22,3.945,0.293,6.431,0.293
								c13.669,0,20.977-7.6,20.977-20.903c0.073-11.621-6.504-19.004-19.954-19.004c-3.289,0-5.774,0.293-7.454,0.659V1290.642z"/></g></g><g><path fill="#e8c1a7" d="M2138.74,1075.826c-7.09-1.322-16.95-7.175-22.042-4.994
									c-1.57,0.672-6.158,3.662-6.158,3.662l-4.491,13.705c0,0,9.018-0.577,10.816,0.61c5.983,3.951,13.31,5.123,21.875,5.193
									V1075.826z"/><path fill="#962f5f" d="M2086.851,1061.476c-8.333-20.991-20.109-38.077-33.426-72.631
												c-6.31-16.374-7.072-27.022-18.397-29.18c-10.917-2.08-20.167,25.716-14.601,40.755
												c9.654,26.082,16.822,52.025,23.647,71.176C2049.945,1091.774,2090.618,1096.467,2086.851,1061.476z"/><path fill="#e8c1a7" d="M2063.91,1076.337c5.37,1.625,12.704-2.618,15.091-6.981l-13.379-31.224l-24.559,6.328
											C2041.064,1044.461,2050.763,1072.36,2063.91,1076.337z"/><path fill="#e8c1a7" d="M2123.994,1077.218l-63.33-24.502c-10.085-3.057-10.594,16.879,3.37,24.086
											c11.399,2.917,44.812,10.029,48.604,11.264L2123.994,1077.218z"/><path fill="#b53a74" d="M2086.851,1061.475c-8.333-20.991-20.109-38.077-33.426-72.631
												c-6.31-16.374-7.072-27.022-18.397-29.18c-10.917-2.08-20.167,25.716-14.601,40.755
												c9.654,26.082,23.797,61.784,30.623,80.935C2055.323,1063.529,2083.871,1053.679,2086.851,1061.475z"/><ellipse cx="2031.492" cy="1467.032" opacity=".07" rx="95.711" ry="55.438" transform="rotate(-7.712 2031.804 1467.218)"/><path fill="#bd3723" d="M2008.376,1446.721c1.986,2.239,1.821,13.364,2.025,22.965l1.896,1.095
																c0.008-0.002,0.016-0.005,0.024-0.007v-25.258L2008.376,1446.721z"/><path fill="#ed462c" d="M2013.782,1469.716c0.331-9.718,0.59-20.432,1.344-25.202l-2.805,1.002v25.258
																C2013.04,1470.59,2013.762,1470.153,2013.782,1469.716z"/><path fill="#7a7a7a" d="M2012.321,1468.69v2.083c-0.008,0.002-0.016,0.005-0.024,0.007
															c0.727-0.18,1.465-0.622,1.485-1.064c0.023-0.677,0.045-1.359,0.066-2.044
															C2013.736,1468.1,2013.028,1468.514,2012.321,1468.69z"/><path fill="#4f4f4f" d="M2012.321,1468.69l-0.006,0.002l-1.953-1.128c0,0.006,0,0.013,0,0.019
															c0.012,0.706,0.024,1.408,0.039,2.102l1.896,1.095c0.008-0.002,0.016-0.005,0.024-0.007V1468.69z"/><path fill="#f0c7ad" d="M2012.409,1311.077c1.51-33.88,5.623-69.135,5.623-69.135l-42.655,2.848
															c0,0,3.651,44.382,5.556,77.339c1.366,23.641,9.537,89.603,11.734,119.428c0.607,1.932,18.917,5.429,18.917,5.429
															v-30.903C2012.688,1363.922,2026.425,1340.859,2012.409,1311.077z"/><path fill="#f0c7ad" d="M1990.37,1478.307c-6.145-1.266-10.853-2.502-12.404-5.861
															c-0.427-0.924-0.577-1.949,0.162-3.49c6.098-6.676,13.845-18.799,14.558-28.295l18.93,3.837
															C2007.055,1458.192,2001.177,1473.491,1990.37,1478.307z"/><path fill="#7a5b42" d="M1999.051,1481.057c-5.028,7.476-26.315,14.436-28.202,8.321
															c-1.897-6.146,6.684-18.014,6.684-18.014c-0.577,2.35,7.715,4.949,14.902,4.844c4.533-0.066,7.92-2.863,9.725-5.226
															C2002.16,1470.982,2001.464,1477.468,1999.051,1481.057z"/><path fill="#ff4d2e" d="M1999.368,1479.895c-5.028,7.476-26.911,14.39-28.798,8.274
															c-1.896-6.146,7.602-19.301,7.602-19.301c-0.927,1.991-0.075,3.185,0.949,4.011c2.414,1.948,7.989,2.194,13.036,2.12
															c4.533-0.066,8.551-2.82,10.356-5.183C2002.512,1469.816,2001.781,1476.306,1999.368,1479.895z"/><path fill="#ff4d2e" d="M2014.811,1448.119c-8.355,10.385-9.708,18.417-13.057,25.284l-9.202,1.663
															c11.828-4.634,17.535-29.649,18.525-36.521c0.457-3.174,0.421-7.061,0.499-8.931
															C2014.746,1432.361,2016.571,1442.88,2014.811,1448.119z"/><g><path fill="#7a5b42" d="M2060.009,1454.974c1.822,2.876,33.203,8.079,34.897,2.589
																	c1.702-5.517-14.499-14.016-14.499-14.016c-4.027,2.205-19,4.256-23.506,1.859
																	C2056.901,1445.405,2057.931,1451.694,2060.009,1454.974z"/><path fill="#bd3723" d="M2045.722,1425.851c-1.783,2.01-1.635,11.997-1.818,20.616l-1.702,0.983
																		c-0.007-0.002-0.014-0.005-0.021-0.006v-22.674L2045.722,1425.851z"/><path fill="#ed462c" d="M2040.869,1446.495c-0.297-8.724-0.354-18.437-1.521-22.591l2.833,0.866v22.674
																		C2041.535,1447.279,2040.887,1446.887,2040.869,1446.495z"/><path fill="#f0c7ad" d="M2042.491,1422.708l23.532-0.603c-3.15-8.765-6.1-17.6-5.96-27.247l-17.571-0.171
																	V1422.708z"/><path fill="#f0c7ad" d="M2068.171,1448.421l12.565-5.394c-7.977-4.831-15.537-22.842-17.928-30.544
																	l-15.116,9.497C2051.786,1434.273,2058.469,1444.097,2068.171,1448.421z"/><path fill="#ff4d2e" d="M2060.073,1453.924c1.822,2.876,33.203,8.079,34.897,2.589
																	c1.703-5.517-14.499-14.016-14.499-14.016c-4.026,2.205-19,4.256-23.505,1.859
																	C2056.966,1444.355,2057.996,1450.643,2060.073,1453.924z"/><path fill="#ff4d2e" d="M2039.303,1423.904c8.745,8.264,16.13,16.832,18.342,23.671l8.653-2.232
																	c-10.498-4.113-24.999-34.33-23.743-38.303C2037.957,1411.336,2037.236,1418.558,2039.303,1423.904z"/><path fill="#ccc" d="M2043.904,1446.468c0.013-0.623,0.025-1.254,0.035-1.887
																		C2043.929,1445.214,2043.918,1445.844,2043.904,1446.468z"/><path fill="#ababab" d="M2043.94,1444.563c0,0.006,0,0.011,0,0.017
																		C2043.94,1444.574,2043.94,1444.569,2043.94,1444.563L2043.94,1444.563z"/><path fill="#7a7a7a" d="M2042.181,1445.574v1.87c0.007,0.002,0.014,0.005,0.021,0.006
																		c-0.652-0.161-1.315-0.559-1.333-0.956c-0.021-0.608-0.04-1.22-0.059-1.835
																		C2040.911,1445.045,2041.546,1445.415,2042.181,1445.574z"/><path fill="#4f4f4f" d="M2042.181,1445.574l0.006,0.002l1.754-1.012c0,0.006,0,0.011,0,0.017
																		c-0.011,0.634-0.022,1.264-0.035,1.887l-1.702,0.983c-0.007-0.002-0.014-0.005-0.021-0.006V1445.574z"/><path fill="#f0c7ad" d="M2037.55,1310.027c-7.879,41.836,2.564,42.661,4.889,86.617
																c3.745,23.092,21.665,31.134,21.528,19.562c-5.397-26.086,7.188-117.132,2.018-125.283
																C2055.641,1274.616,2039.445,1299.968,2037.55,1310.027z"/><path fill="#cf4485" d="M1976.661,1134.357l78.662-1.942c-5.706-23.507-4.521-46.96-1.852-68.084
														c0.5-3.96,13.061-20.04,12.688-38.783c-0.167-8.394-8.715-20.002-11.895-24.195
														c-3.672-4.843-0.104-19.547-11.466-36.962c-6.217-9.53-16.179-6.511-31.74-3.199l-38.14,14.693
														c-15.63,3.327-26.807,17.128-26.813,33.108c0,0,38.238,80.824,37.952,106.493
														C1983.989,1121.526,1980.288,1129.34,1976.661,1134.357z"/><path fill="#305570" d="M2076.926,1296.427c-7-43.344,5.557-137.55-24.707-186.705l-63.627,7.56
														c-40.589,26.222-13.969,131.762-22.315,190.183C1974.486,1340.712,2064.612,1324.748,2076.926,1296.427z"/><path fill="#e3bca3" d="M1970.104,978.724c5.11,4.606,36.542,21.344,53.444,14.573
														c10.487-4.2,13.273-10.274,12.844-17.615c-0.616-10.541-5.138-28.257-31.927-16.514
														C1983.865,968.199,1969.955,975.759,1970.104,978.724z"/><g><path fill="#ccaa92" d="M2030.399,973.937c-0.137-3.211-3.509-57.889-3.509-57.889l-44.328,11.859
															c0,0-1.367,31.316-0.186,35.489C1985.158,976.518,2026.969,988.414,2030.399,973.937z"/><path fill="#403a34" d="M2034.016,939.746c8.188,0.497,19.111,3.597,20.543-0.105
																c0.77-1.902-5.627-3.768-10.075-13.626c-5.144-11.4-12.229-26.105-15.487-36.302l-13.223,5.246
																C2019.222,910.315,2024.605,934.106,2034.016,939.746z"/><path fill="#edc5ab" d="M1962.704,925.82c7.065,12.776,17.675,21.252,31.188,26.996
																c11.881,5.049,29.306,5.39,34.871,3.525c12.02-4.028,10.114-10.768,10.871-18.941
																c1.102-11.9-3.058-24.532-7.816-31.529c-6.401-9.411-17.264-31.636-26.543-35.536
																c-13.088-5.501-25.298-1.898-34.459,5.255C1955.03,887.918,1949.427,901.812,1962.704,925.82z"/><path fill="#4f4841" d="M1952.33,964.929c8.713-15.975,3.812-39.059,3.394-43.312
																c-2.554-26.016-2.3-35.733,13.486-48.061c6.168-4.817,11.87-5.827,21.949-7.223
																c17.472-2.419,33.411,5.961,41.549,27.608c1.346,3.579-24.714,9.112-36.12,1.752
																c-4.079-2.632-15.581,3.582-14.303,15.854c1.305,12.541,11.984,45.26,0.28,59.193
																c-2.346,2.086-8.936,1.088-14.421-0.744c0.07-0.811,1.996-14.481,1.996-14.481s-3.212,12.502-3.631,13.295
																c-3.335-1.216-9.156-3.347-9.156-3.347l2.462-22.001c-0.873,8.022-2.036,15.383-3.719,21.557
																C1956.097,965.02,1952.76,964.538,1952.33,964.929z"/><path fill="#4f4841" d="M2000.926,897.352l4.502-1.213c4.503,3.014,10.761,3.505,17.32,3.563
																C2015.433,900.813,2005.633,899.271,2000.926,897.352z"/><path fill="#4f4841" d="M1999.593,897.18l4.973-0.724c4.435,3.801,11.071,5.125,18.083,6.024
																C2014.679,902.736,2004.386,899.834,1999.593,897.18z"/><path fill="#4f4841" d="M1975.191,914.49l2.31-4.979c-1.361,6.289,6.639,19.003,11.237,24.374
																C1982.654,928.729,1976.966,919.674,1975.191,914.49z"/><path fill="#4f4841" d="M1983.019,947.71l-2.947,1.103c5.338,3.592,6.617,17.497,6.285,24.805
																C1988.358,965.263,1985.329,952.677,1983.019,947.71z"/></g><path fill="#292929" d="M2053.242,1111.255c-5.257,11.701-61.651,23.413-71.176,11.397
														c2.515-4.006,1.304-13.88-0.146-21.421c14.305,9.218,64.292-2.304,69.676-12.326
														C2054.872,1097.721,2053.939,1104.193,2053.242,1111.255z"/></g><g><path fill="#962f5f" d="M1931.652,1103.998c1.99-22.497,8.396-42.235,11.288-79.153
												c1.37-17.494-0.941-27.917,9.296-33.219c9.868-5.111,26.672,18.885,25.633,34.887
												c-1.802,27.753-1.262,54.662-2.333,74.965C1975.674,1122.493,1938.036,1138.607,1931.652,1103.998z"/><path fill="#e8c1a7" d="M1955.42,1109.824c-4.894,2.743-12.969,0.179-16.24-3.568l6.342-33.372l25.345,0.892
											C1970.868,1073.776,1967.402,1103.109,1955.42,1109.824z"/><path fill="#b53a74" d="M1931.652,1103.998c1.99-22.497,8.396-42.235,11.288-79.153
												c1.37-17.494-0.941-27.917,9.296-33.219c9.868-5.111,26.672,18.885,25.633,34.887
												c-1.802,27.753-1.262,54.662-2.333,74.965C1966.35,1085.616,1932.281,1095.675,1931.652,1103.998z"/><path fill="#e6bea5" d="M1922.581,1042.375l37.895,53.481c6.327,8.427-10.51,20.231-22.064,9.581
											c-8.861-12.947-16.926-39.71-25.782-49.602L1922.581,1042.375z"/><path fill="#edc5ab" d="M1887.504,1062.394c2.665-1.19,5.855-4.723,6.945-4.666
											c0.227,0.152-1.147,4.325-4.508,8.591c-3.985,5.058-5.54,6.605-5.687,7.746c-2.342,5.993,10.22,8.665,11.925,8.863
											c6.343,0.739,14.252-5.068,17.414-8.794c3.544-4.175,4.688-10.966,4.691-14.622c0.003-2.409,3.918-11.045,4.728-12.725
											c3.514-7.296-10.972-8.578-14.048-7.04c-2.922,1.461-4.448,2.518-6.187,2.769c-6.016,0.868-12.229,6.738-12.887,8.224
											c-1.442,3.254-6.182,7.239-8.346,8.482c-0.57,0.327-0.796,1.059-0.46,1.623
											C1882.121,1062.588,1884.134,1063.9,1887.504,1062.394z"/></g><path fill="#e8c1a7" d="M2122.33,1075.772l-6.002,8.967c0,0,4.363,1.816,6.552,2.936
									c2.287,1.17,3.822,0.311,7.263,1.886c1.817,0.832,4.126-1.344,3.72-2.878c-0.497-1.876-8.643-4.509-8.643-4.509
									C2123.126,1081.011,2122.561,1078.762,2122.33,1075.772z"/><g><path fill="#fff" d="M2150.324,983.886l-61.396-35.448c-0.723-0.417-1.431-0.486-2.024-0.262l-3.826,1.442
										c0.594-0.224,1.302-0.155,2.024,0.262l61.396,35.448c1.662,0.959,2.772,3.398,2.479,5.447l-17.333,121.247
										c-0.166,1.158-0.743,1.942-1.514,2.233l3.825-1.442c0.771-0.291,1.349-1.075,1.514-2.233l17.333-121.248
										C2153.096,987.283,2151.986,984.845,2150.324,983.886z"/><path fill="#fff" d="M2146.499,985.328c1.662,0.959,2.772,3.398,2.479,5.447l-17.333,121.247
												c-0.293,2.049-1.878,2.93-3.539,1.97l-61.396-35.448c-1.662-0.959-2.772-3.396-2.479-5.445l17.333-121.247
												c0.293-2.049,1.878-2.931,3.54-1.972L2146.499,985.328z"/><path fill="#bdd0e6" d="M2084.84,953.786l59.902,34.585c0.322,0.186,0.864,1.164,0.758,1.906l-17.131,119.809
												l-59.902-34.585c-0.322-0.186-0.864-1.163-0.758-1.905L2084.84,953.786L2084.84,953.786z M2083.778,949.492
												c-1.109,0-2.002,0.873-2.215,2.359l-17.333,121.247c-0.293,2.049,0.818,4.486,2.479,5.445l61.396,35.447
												c0.456,0.263,0.906,0.388,1.326,0.388c1.109,0,2.001-0.871,2.214-2.358l17.333-121.247
												c0.293-2.049-0.817-4.487-2.479-5.447l-61.396-35.448C2084.646,949.617,2084.197,949.492,2083.778,949.492
												L2083.778,949.492z"/><polygon fill="#ff3717" points="2087.769 1000.339 2084.818 1018.294 2082.648 1017.041 2085.6 999.086"/><polygon fill="#17aaff" points="2091.824 1004.947 2089.213 1020.831 2087.043 1019.579 2089.654 1003.695"/><polygon fill="#59e700" points="2095.353 1012.751 2093.608 1023.369 2091.438 1022.116 2093.183 1011.498"/><polygon fill="#ff45f1" points="2100.542 1010.454 2098.002 1025.906 2095.834 1024.654 2098.374 1009.202"/><polygon fill="#ffe600" points="2105.647 1008.675 2102.397 1028.444 2100.229 1027.192 2103.478 1007.423"/><polygon fill="#ff3717" points="2109.942 1011.818 2106.792 1030.981 2104.624 1029.729 2107.773 1010.565"/><polygon fill="#17aaff" points="2113.6 1018.844 2111.188 1033.519 2109.018 1032.266 2111.431 1017.591"/><polygon fill="#59e700" points="2117.583 1023.885 2115.583 1036.056 2113.413 1034.804 2115.414 1022.632"/><polygon fill="#ff45f1" points="2126.203 1029.995 2124.373 1041.131 2122.203 1039.879 2124.033 1028.743"/><polygon fill="#73daff" points="2103.331 1000.576 2106.162 1006.476 2111.297 1010.373 2114.727 1016.869 2116.537 1015.987 2117.51 1018.512 2119.281 1017.549 2119.607 1020.425 2121.589 1020.59 2122.257 1023.401 2123.385 1020.769 2125.703 1020.241 2127.588 1018.954 2128.884 1024.262 2130.894 1026.029 2131.078 1029.988 2130.885 1029.94 2130.708 1026.137 2128.727 1024.396 2127.492 1019.335 2125.792 1020.491 2123.528 1021.007 2122.223 1024.051 2121.458 1020.833 2119.444 1020.664 2119.135 1017.929 2117.444 1018.848 2116.469 1016.315 2114.685 1017.184 2111.182 1010.549 2106.041 1006.647 2103.295 1000.924 2099.738 1003.537 2095.427 1005.198 2093.207 1007.208 2091.349 1001.945 2088.74 1000.028 2086.62 994.579 2086.789 994.51 2088.871 999.863 2091.485 1001.784 2093.261 1006.815 2095.311 1004.959 2099.636 1003.293"/><polygon fill="#73daff" points="2107.851 997.028 2109.573 1000.483 2113.633 1003.313 2114.074 1006.012 2116.971 1007.756 2117.656 1010.739 2119.122 1011.833 2119.051 1014.69 2120.357 1014.784 2121.251 1017.597 2122.694 1017.417 2125.477 1018.865 2128.787 1014.645 2130.519 1019.016 2131.72 1019.705 2130.935 1022.68 2132.966 1025.261 2132.851 1025.423 2130.709 1022.701 2131.471 1019.816 2130.396 1019.198 2128.762 1015.075 2125.558 1019.16 2122.712 1017.678 2121.147 1017.873 2120.243 1015.029 2118.85 1014.93 2118.924 1011.947 2117.5 1010.885 2116.82 1007.92 2113.912 1006.169 2113.468 1003.457 2109.457 1000.661 2107.797 997.331 2106.441 997.839 2102.562 996.881 2101.631 997.938 2099.175 997.231 2098.737 998.523 2097.543 998.369 2096.971 1001.111 2095.18 1000.701 2093.711 1000.937 2092.826 998.079 2091.459 998.109 2090.82 996.175 2087.978 993.722 2087.12 990.226 2087.303 990.205 2088.134 993.586 2090.963 996.03 2091.565 997.85 2092.936 997.82 2093.814 1000.654 2095.152 1000.445 2096.816 1000.827 2097.386 998.097 2098.598 998.253 2099.041 996.944 2101.542 997.664 2102.469 996.609 2106.388 997.577"/><polygon fill="#17aaff" points="2130.569 1032.706 2128.767 1043.668 2126.599 1042.416 2128.401 1031.454"/><polygon fill="#ffe600" points="2121.453 1029.616 2119.978 1038.594 2117.808 1037.341 2119.284 1028.364"/><g><polygon fill="#fff226" points="2121.869 1073.646 2124.554 1075.208 2124.264 1076.942 2121.579 1075.381"/><polygon fill="#c9e5ff" points="2076.25 1039.869 2076.577 1042.263 2081.664 1048.103 2082.415 1051.845 2085.218 1053.974 2087.862 1060.598 2089.382 1058.205 2093.312 1060.46 2095.066 1058.437 2098.083 1060.194 2100.047 1058.458 2100.868 1064.291 2104.222 1068.347 2104.167 1076.339 2107.363 1080.411 2107.59 1086.158 2111.135 1087.15 2114.16 1092.642 2119.295 1094.938 2120.392 1098.772 2122.591 1099.839 2122.149 1102.524 2070.822 1072.89"/><polygon fill="#fbb845" points="2123.174 1065.842 2125.859 1067.404 2125.569 1069.137 2122.884 1067.577"/><path fill="#00b6fc" d="M2111.556,1066.076l-1.014,6.065c-2.228-1.296-3.783-3.971-4.041-6.948L2111.556,1066.076z
											"/><path fill="#3fee76" d="M2111.556,1066.076l1.615,6.702c-0.881,0.095-1.701-0.101-2.61-0.626
											c-0.006-0.004-0.012-0.007-0.019-0.011L2111.556,1066.076z"/><path fill="#f5242c" d="M2114.289,1061.454c1.127,1.283,1.856,2.803,2.191,4.569l-4.924,0.054L2114.289,1061.454z"/><path fill="#ff45f1" d="M2112.569,1060.011c0.655,0.382,1.156,0.802,1.72,1.443l-2.733,4.623L2112.569,1060.011z"/><path fill="#fbb845" d="M2112.56,1060.006l-1.004,6.07l-5.054-0.883c-0.317-3.679,1.687-6.268,4.478-5.781
											C2111.507,1059.505,2112.04,1059.705,2112.56,1060.006z"/><polygon fill="#00b6fc" points="2122.739 1068.443 2125.424 1070.004 2125.134 1071.739 2122.449 1070.178"/><polygon fill="#3fee76" points="2122.304 1071.045 2124.989 1072.606 2124.699 1074.34 2122.014 1072.779"/><path fill="#fff226" d="M2116.48,1066.022c0.67,3.535-0.774,6.481-3.31,6.756l-1.615-6.702L2116.48,1066.022z"/><polygon fill="#f5242c" points="2121.434 1076.248 2124.119 1077.81 2123.829 1079.543 2121.144 1077.983"/><polygon fill="#ff45f1" points="2121 1078.849 2123.685 1080.411 2123.395 1082.145 2120.709 1080.583"/><polygon fill="#30c8ff" points="2076.439 1039.475 2076.805 1042.142 2081.88 1047.97 2082.622 1051.661 2085.388 1053.762 2087.877 1059.999 2089.267 1057.811 2093.218 1060.078 2094.972 1058.053 2098.007 1059.821 2100.209 1057.874 2101.105 1064.242 2104.475 1068.258 2104.419 1076.26 2107.608 1080.321 2107.828 1085.902 2111.247 1086.86 2114.285 1092.373 2119.471 1094.693 2120.571 1098.535 2122.631 1099.534 2122.599 1099.843 2120.392 1098.772 2119.295 1094.938 2114.16 1092.642 2111.135 1087.15 2107.59 1086.158 2107.363 1080.411 2104.167 1076.339 2104.222 1068.347 2100.878 1064.36 2100.047 1058.458 2098.083 1060.194 2095.066 1058.437 2093.312 1060.46 2089.382 1058.205 2087.862 1060.598 2085.218 1053.974 2082.415 1051.845 2081.664 1048.103 2076.577 1042.263 2076.25 1039.869 2076.193 1039.454"/></g></g><path fill="#ffd4b8" d="M2141.609,1074.53c-6.128,1.222-9.958,5.464-10.25,10.404
							c-0.331,5.595-1.154,9.626,5.565,10.709C2143.452,1092.265,2143.213,1078.446,2141.609,1074.53z"/><g><path fill="#d6d6d6" d="M1814.307,813.876c0.047,16.781,5.971,28.588,15.526,34.141l13.22,7.683
										c-9.555-5.553-15.479-17.361-15.526-34.141c-0.096-33.777,23.653-74.917,53.053-91.892
										c14.79-8.539,28.19-9.331,37.867-3.708l-13.22-7.683c-9.677-5.623-23.077-4.831-37.867,3.708
										C1837.96,738.958,1814.212,780.099,1814.307,813.876L1814.307,813.876z"/><path fill="#ededed" d="M1880.581,729.667c29.395-16.971,53.298-3.342,53.394,30.435
											c0.044,15.378-4.863,32.27-12.982,47.723l4.872,34.444l-31.303-0.191c-4.349,3.834-8.922,7.191-13.635,9.912
											c-29.401,16.975-53.304,3.346-53.4-30.431C1827.432,787.782,1851.18,746.641,1880.581,729.667z"/><path fill="#ff4d2e" d="M1902.607,768.08c-4.693,2.709-8.476,9.262-8.46,14.654c0.015,5.392,3.823,7.57,8.516,4.861
										c4.692-2.709,8.483-9.275,8.468-14.667C1911.114,767.536,1907.299,765.371,1902.607,768.08z"/><path fill="#ff4d2e" d="M1880.872,780.628c-4.692,2.709-8.483,9.266-8.468,14.658
										c0.015,5.392,3.831,7.566,8.523,4.857c4.693-2.709,8.483-9.274,8.468-14.667
										C1889.379,780.085,1885.564,777.919,1880.872,780.628z"/><path fill="#ff4d2e" d="M1858.833,793.353c-4.685,2.705-8.475,9.262-8.46,14.654
										c0.015,5.392,3.83,7.566,8.515,4.861c4.693-2.709,8.483-9.275,8.468-14.667
										C1867.34,792.809,1863.525,790.643,1858.833,793.353z"/><g opacity=".07"><polygon points="1808.354 1310.904 1841.083 1329.924 1939.928 1272.856 1907.199 1253.836"/></g></g></g><g><path fill="#666" d="M2258.467,1439.34c4.798-2.455,72.778-33.329,91.778-40.988
									c14.72-5.934,35.927,32.913,43.041,46.6c-24.41-1.854-130.939,39.895-137.569,38.083
									C2249.086,1481.223,2253.482,1441.891,2258.467,1439.34z"/><g opacity=".07"><ellipse cx="2407.161" cy="1883.372" rx="41.131" ry="71.01" transform="rotate(-89.84 2407.085 1883.373)"/><ellipse cx="2316.437" cy="1848.909" rx="41.131" ry="71.01" transform="rotate(-89.84 2316.36 1848.91)"/></g><path fill="#1a130f" d="M2322.941,1855.567c0,0,22.325-3.166,27.316-8.912c1.732-1.994,1.129-11.351,1.129-11.351
									l-32.168,13.003L2322.941,1855.567z"/><path fill="#1a130f" d="M2351.196,1837.111c-1.903,10.845-15.792,10.845-34.628,15.602
									c-19.601,4.95-28.361,8.851-44.105,7.47c-10.845-0.951-24.164-10.274-15.647-15.388c13.46-8.082,24.989-5.262,48.914-11.985
									c15.635-4.393,22.301-13.465,30.818-11.012C2343.625,1823.837,2352.761,1828.187,2351.196,1837.111z"/><path fill="#3b2d1e" d="M2350.91,1835.018c-1.903,10.845-15.792,10.845-34.628,15.602
									c-19.601,4.95-28.361,8.851-44.105,7.47c-10.845-0.951-24.164-10.274-15.647-15.388c13.46-8.082,22.654-8.41,46.579-15.133
									c15.635-4.393,24.636-10.318,33.153-7.864C2343.339,1821.744,2352.476,1826.094,2350.91,1835.018z"/><path d="M2444.045,1868.885c-2.188,5.652-18.646,16.934-18.646,16.934l-6.374-3.33L2444.045,1868.885z"/><path fill="#1a130f" d="M2425.399,1885.819c0,0,16.458-11.281,18.646-16.934c0.514-1.329,0.666-10.274,0.666-10.274
									l-19.831,19.188L2425.399,1885.819z"/><path fill="#1a130f" d="M2367.344,1899.493c-5.583-8.726,20.778-27.589,39.988-40.161
									c19.21-12.572,26.535-23.666,33.819-12.537c7.284,11.129,5.069,20.473-14.141,33.045
									c-8.66,5.668-16.261,18.117-27.547,23.664C2388.94,1908.676,2372.638,1907.768,2367.344,1899.493z"/><path fill="#3b2d1e" d="M2366.868,1897.97c-5.583-8.726,20.778-27.589,39.988-40.161
									c19.21-12.572,26.535-23.666,33.819-12.537c7.284,11.129,4.749,19.884-14.461,32.456
									c-8.66,5.668-17.147,17.315-28.433,22.862C2387.257,1905.763,2372.162,1906.245,2366.868,1897.97z"/><path fill="#363636" d="M2349.49,1832.34c-0.381,11.035-41.453,19.236-45.83-4.166c0,0,1.209-93.939,3.394-108.994
									c2.294-15.804,17.843-127.841,17.843-127.841l73.397,10.069l-38.598,130.68L2349.49,1832.34z"/><path fill="#454545" d="M2442.725,1851.542c-5.106,20.425-35.924,30.52-47.051,13.988l-39.925-274.267l72.727,7.587
									L2442.725,1851.542z"/><path fill="#5e493c" d="M2392.907,1406.374l-38.427-4.768c0.19-3.048,0.625-5.874,1.46-8.228l13.785-48.699
									l40.269,20.72c0,0-3.195,7.88-6.609,16.606c1.666,6.191,1.579,19.173,0.38,23.117
									C2403.658,1405.211,2393.035,1406.26,2392.907,1406.374z"/><path fill="#dbdbdb" d="M2317.948,1587.569c-1.163,15.122,69.463,36.457,86.237,13.969l3.958-195.714l-57.864-7.527
									C2336.823,1457.216,2326.365,1520.804,2317.948,1587.569z"/><path fill="#f44e2f" d="M2330.257,1539.522l7.459,14.223l10.677-6.957c1.778-52.013,8.91-98.876,24.501-134.179
									l-6.627-2.613C2348.481,1441.705,2337.435,1488.026,2330.257,1539.522z"/><path fill="#565656" d="M2429.388,1413.021c37.814,29.328-3.568,80.637-3.303,114.46
									c0.396,50.55,11.375,100.211,11.375,100.211c-3.19,16.956-75.869,16.729-88.562-0.195
									c-2.987-0.698-4.587-103.601,3.813-132.122c6.531-22.175,53.262-104.589,57.881-96.378
									C2413.772,1404.651,2425.015,1409.63,2429.388,1413.021z"/><path fill="#565656" d="M2321.842,1431.739c10.398-24.263,21.694-30.299,31.475-35.303
									c-5.835,5.597-14.909,20.407-15.164,42.316c-0.229,19.659-0.053,40.694-3.292,52.265
									c-7.755,27.703-6.326,133.767-3.227,133.762c-12.557-7.354-17.337-14.409-19.872-19.562
									C2311.086,1596.923,2307.22,1465.859,2321.842,1431.739z"/><path fill="#f7f7f7" d="M2403.389,1381.747c1.888,12.339-25.825,20.86-32.266,19.294l5.218,25.979
									c0,0,31.339-23.055,31.46-33.528C2407.858,1388.606,2403.389,1381.747,2403.389,1381.747z"/><path fill="#bf3c24" d="M2371.162,1400.969l-6.711,5.396l1.438,10.99c0.114,0.874,1.106,1.323,1.839,0.833
									l6.037-4.04L2371.162,1400.969z"/><path fill="#f7f7f7" d="M2358.943,1382.038c0,0-0.804,2.527-0.744,4.277c0.263,7.69,12.923,14.68,12.923,14.68
									l-23.577,25.27c0,0,1.812-24.149,3.732-32.895C2351.827,1390.861,2358.943,1382.038,2358.943,1382.038z"/><path fill="#404040" d="M2356.433,1385.478c-1.359-0.354-22.577,31.928-22.577,31.928l2.722,9.742l-4.584,11.174
									l3.295,44.841c0.935-1.943,7.174-34.696,8.779-45.663C2344.799,1432.501,2352.146,1391.68,2356.433,1385.478z"/><path fill="#404040" d="M2405.031,1384.525c1.515,1.221,5.178,17.773,9.082,21.948
									c5.81,6.212-31.526,32.364-31.526,32.364l-2.827,17.414l-27.241,38.177c0,0,9.665-45.797,14.821-55.591
									C2377.68,1419.194,2406.936,1399.054,2405.031,1384.525z"/><path fill="#7a5e4e" d="M2425.019,1352.065c-8.019,12.955-19.512,21.248-33.893,26.543
									c-12.644,4.655-27.649,8.386-36.274,3.952c-19.29-9.918-8.681-14.345-8.438-24.202c0.308-12.468,3.619-27.779,12.035-41.376
									c6.251-10.099,15.164-21.342,25.035-24.932c13.925-5.064,33.142,0.24,42.324,8.165
									C2441.633,1313.873,2440.089,1327.72,2425.019,1352.065z"/><path fill="#2b2019" d="M2409.699,1368.067c1.459-0.261,4.74-2.085,6.821-4.279c3.999-3.27,7.451-9.317,9.799-13.109
									c15.07-24.346,16.272-38.352,0.448-52.01c-6.183-5.337-17.144-9.563-27.518-10.079c-4.158-0.207-12.041,0.734-18.976,3.077
									c-7.288,2.462-16.478,12.462-16.391,17.33c0.564-0.467,6.497-4.542,7.531-1.526c3.646-2.922,7.393-2.325,8.033-2.198
									c-1.001,2.775-0.342,4.548-0.11,6.604c-0.125-0.867,7.129-2.255,8.82-1.757c0.078,0.023-2.078,3.847,0.02,6.497
									c-0.441-0.626,4.622-1.457,7.256-0.941c2.213,0.433,16.589,5.528,11.657,21.868c-0.698,2.312-4.517,13.647-4.517,13.647
									s5.612,2.011,6.669,1.553C2415.7,1349.948,2428.678,1345.709,2409.699,1368.067z"/><path fill="#705e36" d="M2445.107,1620.735l-1.655-13.292l40.382-14.065c0.083,14.818-0.227,25.756-0.227,25.756
										C2480.156,1626.134,2451.633,1627.12,2445.107,1620.735z"/><path fill="#7a5e4e" d="M2457.353,1660.507c0.879-3.266,0.038-8.717,0.886-9.654
										c0.661-0.202,5.613,26.205,7.303,27.988c3.673,6.488,13.455-2.39,14.88-3.777c5.303-5.161,4.892-21.088,3.856-26.655
										c-1.16-6.239-2.604-15.118-5.887-17.795c-2.163-1.764-3.229-4.796-3.997-6.816c-3.059-8.045-23.482-6.798-22.408-1.964
										c0.951,4.438-0.403,7.377-2.343,10.615c-3.62,6.042-2.505,15.472-1.651,17.15c1.87,3.676,2.102,11.93,1.636,14.784
										c-0.123,0.751,0.369,1.49,1.122,1.6C2453.073,1666.325,2456.241,1664.637,2457.353,1660.507z"/><path fill="#fff" d="M2446.723,1610.878l1.556,18.703c2.533,4.802,26.611,4.108,33.363-0.195l0.619-20.442
										L2446.723,1610.878z"/><path fill="#636363" d="M2422.958,1419.312c13.373-8.025,25.364,8.673,28.402,17.514
										c0,0,24.78,58.288,29.137,84.724c4.148,25.169,3.111,97.584,3.111,97.584c-0.209,7.537-33.584,8.554-38.5,1.601
										l-8.713-91.981l-29.058-66.605C2401.723,1448.14,2407.458,1428.613,2422.958,1419.312z"/><path fill="#404040" d="M2170.174,1411.555c0,0,30.713,11.644,57.414,19.981l13.34,45.201
									c-34.62-9.87-84.038-29.112-84.038-29.112C2153.11,1441.883,2163.722,1412.412,2170.174,1411.555z"/><path fill="#dbdbdb" d="M2175.579,1416.654l-13.18-4.573c-7.943,1.677-14.982,22.598-11.35,30.494l13.623,5.358
									C2172.413,1438.359,2176.02,1429.13,2175.579,1416.654z"/><path fill="#7a5e4e" d="M2127.011,1407.106c2.872,1.789,8.337,2.565,8.988,3.65c0.001,0.317-4.901,1.702-11.18,1.238
									c-7.445-0.551-13.251-3.54-14.444-2.943c-7.279,1.634-4.911,14.156-3.996,15.924c3.403,6.576,17.917,12.253,23.549,12.876
									c6.311,0.699,16.089,0.442,19.605-1.925c2.317-1.559,5.529-1.701,7.687-1.85c8.591-0.596,13.322-20.515,8.382-20.889
									c-4.526-0.377-7.044-1.492-9.583-4.289c-4.736-5.219-14.406-7.384-16.261-7.054c-4.063,0.724-10.966-1.248-13.564-2.522
									c-0.684-0.335-1.534-0.079-1.858,0.61C2123.335,1402.058,2123.379,1404.843,2127.011,1407.106z"/><path fill="#fff" d="M2175.579,1416.654l-13.18-4.573c2.524,6.282-4.273,27.308-11.35,30.494l13.623,5.358
									C2172.413,1438.359,2176.02,1429.13,2175.579,1416.654z"/><path fill="#6e6e6e" d="M2170.174,1411.555c0,0,84.772,25.908,88.265,27.923c13.6,7.846,6.339,41.733-1.428,43.535
									c-5.541,1.285-100.12-35.388-100.12-35.388C2164.329,1445.901,2175.49,1419.176,2170.174,1411.555z"/><g><path fill="#d1d1d1" d="M2605.193,1240.516c-0.058,20.358-7.244,34.682-18.836,41.419l-16.038,9.32
								c11.592-6.736,18.778-21.061,18.836-41.419c0.116-40.977-28.695-90.887-64.363-111.48
								c-17.943-10.359-34.199-11.32-45.939-4.498l16.038-9.32c11.739-6.822,27.996-5.861,45.939,4.498
								C2576.499,1149.629,2605.309,1199.539,2605.193,1240.516L2605.193,1240.516z"/><path fill="#ededed" d="M2524.793,1138.356c-35.661-20.589-64.659-4.055-64.776,36.922
									c-0.053,18.656,5.899,39.149,15.749,57.896l-5.91,41.787l37.975-0.231c5.277,4.652,10.824,8.724,16.541,12.025
									c35.668,20.593,64.667,4.059,64.783-36.918C2589.271,1208.859,2560.461,1158.949,2524.793,1138.356z"/><polygon fill="#ff4d2e" points="2532.054 1232.542 2517.64 1224.22 2515.04 1156.749 2535.027 1168.289"/><path fill="#ff4d2e" d="M2524.835,1235.673c6.698,3.867,11.113,11.802,11.215,19.714
										c-0.021,7.573-4.467,10.681-11.29,6.741l-0.268-0.155c-6.573-3.795-11.112-12.089-11.09-19.663
										C2513.424,1234.471,2518.119,1231.795,2524.835,1235.673z"/><polygon points="2594.564 1773.909 2561.835 1792.929 2462.99 1735.861 2495.719 1716.841" opacity=".07"/></g></g></g></switch></svg>